STARTFONT 2.1
FONT -FontForge-Rajdhani-Book-R-Normal--14-140-72-72-P-85-ISO10646-1
SIZE 14 72 72
FONTBOUNDINGBOX 34 18 -6 -5
COMMENT "Generated by fontforge, http://fontforge.sourceforge.net"
COMMENT "Copyright (c) 2014 Indian Type Foundry (info@indiantypefoundry.com)"
STARTPROPERTIES 40
FOUNDRY "FontForge"
FAMILY_NAME "Rajdhani"
WEIGHT_NAME "Book"
SLANT "R"
SETWIDTH_NAME "Normal"
ADD_STYLE_NAME ""
PIXEL_SIZE 14
POINT_SIZE 140
RESOLUTION_X 72
RESOLUTION_Y 72
SPACING "P"
AVERAGE_WIDTH 85
CHARSET_REGISTRY "ISO10646"
CHARSET_ENCODING "1"
FONTNAME_REGISTRY ""
CHARSET_COLLECTIONS "ISO8859-2 ISO8859-9 ISO8859-4 ISO10646-1"
FONT_NAME "Rajdhani-Regular"
FACE_NAME "Rajdhani Regular"
COPYRIGHT "Copyright (c) 2014 Indian Type Foundry (info@indiantypefoundry.com)"
FONT_VERSION "1.201;PS 1.0;hotconv 1.0.78;makeotf.lib2.5.61930; ttfautohint (v1.1) -l 7 -r 28 -G 50 -x 13 -D latn -f deva -w G"
FONT_ASCENT 11
FONT_DESCENT 3
UNDERLINE_POSITION -1
UNDERLINE_THICKNESS 1
X_HEIGHT 6
CAP_HEIGHT 8
DEFAULT_CHAR 3
RAW_ASCENT 800
RAW_DESCENT 200
NORM_SPACE 4
RELATIVE_WEIGHT 40
RELATIVE_SETWIDTH 50
SUPERSCRIPT_X 0
SUPERSCRIPT_Y 4
SUPERSCRIPT_SIZE 8
SUBSCRIPT_X 0
SUBSCRIPT_Y 1
SUBSCRIPT_SIZE 8
AVG_LOWERCASE_WIDTH 63
AVG_UPPERCASE_WIDTH 73
ENDPROPERTIES
CHARS 1043
STARTCHAR NULL.dup1
ENCODING 0
SWIDTH 0 0
DWIDTH 0 0
BBX 1 1 0 0
BITMAP
00
ENDCHAR
STARTCHAR CR
ENCODING 13
SWIDTH 0 0
DWIDTH 0 0
BBX 1 1 0 0
BITMAP
00
ENDCHAR
STARTCHAR space
ENCODING 32
SWIDTH 267 0
DWIDTH 4 0
BBX 1 1 0 0
BITMAP
00
ENDCHAR
STARTCHAR exclam
ENCODING 33
SWIDTH 237 0
DWIDTH 3 0
BBX 1 9 1 0
BITMAP
80
80
80
80
80
80
00
80
80
ENDCHAR
STARTCHAR quotedbl
ENCODING 34
SWIDTH 330 0
DWIDTH 5 0
BBX 3 3 1 6
BITMAP
A0
A0
A0
ENDCHAR
STARTCHAR numbersign
ENCODING 35
SWIDTH 677 0
DWIDTH 9 0
BBX 8 9 1 0
BITMAP
12
22
7F
24
24
44
FE
48
48
ENDCHAR
STARTCHAR dollar
ENCODING 36
SWIDTH 504 0
DWIDTH 7 0
BBX 5 11 1 -1
BITMAP
20
70
88
88
80
70
08
88
88
78
20
ENDCHAR
STARTCHAR percent
ENCODING 37
SWIDTH 717 0
DWIDTH 10 0
BBX 8 9 1 0
BITMAP
E4
A4
A8
E8
08
17
15
25
27
ENDCHAR
STARTCHAR ampersand
ENCODING 38
SWIDTH 597 0
DWIDTH 8 0
BBX 7 9 1 0
BITMAP
78
48
48
40
E0
BE
90
88
74
ENDCHAR
STARTCHAR quotesingle
ENCODING 39
SWIDTH 186 0
DWIDTH 3 0
BBX 1 3 1 6
BITMAP
80
80
80
ENDCHAR
STARTCHAR parenleft
ENCODING 40
SWIDTH 283 0
DWIDTH 4 0
BBX 2 11 1 -2
BITMAP
C0
80
80
80
80
80
80
80
80
80
40
ENDCHAR
STARTCHAR parenright
ENCODING 41
SWIDTH 283 0
DWIDTH 4 0
BBX 2 11 1 -2
BITMAP
80
40
40
40
40
40
40
40
40
40
80
ENDCHAR
STARTCHAR asterisk
ENCODING 42
SWIDTH 406 0
DWIDTH 6 0
BBX 4 4 1 5
BITMAP
40
B0
60
A0
ENDCHAR
STARTCHAR plus
ENCODING 43
SWIDTH 523 0
DWIDTH 7 0
BBX 5 5 1 2
BITMAP
20
20
F8
20
20
ENDCHAR
STARTCHAR comma
ENCODING 44
SWIDTH 191 0
DWIDTH 3 0
BBX 1 3 1 -1
BITMAP
80
80
80
ENDCHAR
STARTCHAR hyphen
ENCODING 45
SWIDTH 312 0
DWIDTH 4 0
BBX 3 1 1 4
BITMAP
E0
ENDCHAR
STARTCHAR period
ENCODING 46
SWIDTH 191 0
DWIDTH 3 0
BBX 1 2 1 0
BITMAP
80
80
ENDCHAR
STARTCHAR slash
ENCODING 47
SWIDTH 396 0
DWIDTH 6 0
BBX 4 9 1 0
BITMAP
10
20
20
20
40
40
40
80
80
ENDCHAR
STARTCHAR zero
ENCODING 48
SWIDTH 514 0
DWIDTH 7 0
BBX 5 9 1 0
BITMAP
F8
88
88
88
88
88
88
88
F8
ENDCHAR
STARTCHAR one
ENCODING 49
SWIDTH 317 0
DWIDTH 4 0
BBX 3 9 0 0
BITMAP
20
E0
20
20
20
20
20
20
20
ENDCHAR
STARTCHAR two
ENCODING 50
SWIDTH 478 0
DWIDTH 7 0
BBX 5 9 1 0
BITMAP
F0
88
88
08
10
60
80
80
F8
ENDCHAR
STARTCHAR three
ENCODING 51
SWIDTH 496 0
DWIDTH 7 0
BBX 5 9 1 0
BITMAP
F0
88
88
08
30
08
88
88
F0
ENDCHAR
STARTCHAR four
ENCODING 52
SWIDTH 520 0
DWIDTH 7 0
BBX 6 9 1 0
BITMAP
18
28
28
48
48
88
FC
08
08
ENDCHAR
STARTCHAR five
ENCODING 53
SWIDTH 482 0
DWIDTH 7 0
BBX 5 9 1 0
BITMAP
F8
80
80
F0
88
08
88
88
F0
ENDCHAR
STARTCHAR six
ENCODING 54
SWIDTH 497 0
DWIDTH 7 0
BBX 5 9 1 0
BITMAP
F8
80
80
80
F0
88
88
88
F8
ENDCHAR
STARTCHAR seven
ENCODING 55
SWIDTH 380 0
DWIDTH 5 0
BBX 5 9 0 0
BITMAP
F8
08
10
10
10
20
20
20
40
ENDCHAR
STARTCHAR eight
ENCODING 56
SWIDTH 519 0
DWIDTH 7 0
BBX 5 9 1 0
BITMAP
F8
88
88
88
70
88
88
88
F8
ENDCHAR
STARTCHAR nine
ENCODING 57
SWIDTH 497 0
DWIDTH 7 0
BBX 5 9 1 0
BITMAP
F0
88
88
88
88
78
08
08
F0
ENDCHAR
STARTCHAR colon
ENCODING 58
SWIDTH 191 0
DWIDTH 3 0
BBX 1 7 1 0
BITMAP
80
80
00
00
00
80
80
ENDCHAR
STARTCHAR semicolon
ENCODING 59
SWIDTH 191 0
DWIDTH 3 0
BBX 1 8 1 -1
BITMAP
80
80
00
00
00
80
80
80
ENDCHAR
STARTCHAR less
ENCODING 60
SWIDTH 513 0
DWIDTH 7 0
BBX 5 5 1 2
BITMAP
08
70
80
70
08
ENDCHAR
STARTCHAR equal
ENCODING 61
SWIDTH 531 0
DWIDTH 7 0
BBX 5 3 1 3
BITMAP
F8
00
F8
ENDCHAR
STARTCHAR greater
ENCODING 62
SWIDTH 531 0
DWIDTH 7 0
BBX 5 5 1 2
BITMAP
80
70
08
30
C0
ENDCHAR
STARTCHAR question
ENCODING 63
SWIDTH 473 0
DWIDTH 7 0
BBX 5 9 1 0
BITMAP
70
88
88
10
20
20
00
20
20
ENDCHAR
STARTCHAR at
ENCODING 64
SWIDTH 753 0
DWIDTH 11 0
BBX 8 9 1 -1
BITMAP
3F
41
9D
A5
A5
A5
9B
40
3C
ENDCHAR
STARTCHAR A
ENCODING 65
SWIDTH 533 0
DWIDTH 7 0
BBX 7 9 0 0
BITMAP
10
18
28
28
24
44
7C
42
82
ENDCHAR
STARTCHAR B
ENCODING 66
SWIDTH 546 0
DWIDTH 8 0
BBX 6 9 1 0
BITMAP
F8
84
84
84
F8
84
84
84
F8
ENDCHAR
STARTCHAR C
ENCODING 67
SWIDTH 542 0
DWIDTH 8 0
BBX 6 9 1 0
BITMAP
78
84
84
80
80
80
84
84
78
ENDCHAR
STARTCHAR D
ENCODING 68
SWIDTH 557 0
DWIDTH 8 0
BBX 6 9 1 0
BITMAP
F8
84
84
84
84
84
84
84
F8
ENDCHAR
STARTCHAR E
ENCODING 69
SWIDTH 481 0
DWIDTH 7 0
BBX 5 9 1 0
BITMAP
F8
80
80
80
F0
80
80
80
F8
ENDCHAR
STARTCHAR F
ENCODING 70
SWIDTH 459 0
DWIDTH 6 0
BBX 5 9 1 0
BITMAP
F8
80
80
80
F0
80
80
80
80
ENDCHAR
STARTCHAR G
ENCODING 71
SWIDTH 539 0
DWIDTH 8 0
BBX 6 9 1 0
BITMAP
78
84
84
80
9C
84
84
84
78
ENDCHAR
STARTCHAR H
ENCODING 72
SWIDTH 570 0
DWIDTH 8 0
BBX 6 9 1 0
BITMAP
84
84
84
84
FC
84
84
84
84
ENDCHAR
STARTCHAR I
ENCODING 73
SWIDTH 230 0
DWIDTH 3 0
BBX 1 9 1 0
BITMAP
80
80
80
80
80
80
80
80
80
ENDCHAR
STARTCHAR J
ENCODING 74
SWIDTH 499 0
DWIDTH 7 0
BBX 5 9 1 0
BITMAP
08
08
08
08
08
08
88
88
F0
ENDCHAR
STARTCHAR K
ENCODING 75
SWIDTH 530 0
DWIDTH 7 0
BBX 6 9 1 0
BITMAP
8C
88
90
A0
E0
90
88
88
84
ENDCHAR
STARTCHAR L
ENCODING 76
SWIDTH 451 0
DWIDTH 6 0
BBX 5 9 1 0
BITMAP
80
80
80
80
80
80
80
80
F8
ENDCHAR
STARTCHAR M
ENCODING 77
SWIDTH 696 0
DWIDTH 10 0
BBX 8 9 1 0
BITMAP
83
C3
C5
A5
A9
99
91
81
81
ENDCHAR
STARTCHAR N
ENCODING 78
SWIDTH 579 0
DWIDTH 8 0
BBX 6 9 1 0
BITMAP
84
C4
C4
A4
94
94
8C
8C
84
ENDCHAR
STARTCHAR O
ENCODING 79
SWIDTH 553 0
DWIDTH 8 0
BBX 6 9 1 0
BITMAP
78
84
84
84
84
84
84
84
78
ENDCHAR
STARTCHAR P
ENCODING 80
SWIDTH 524 0
DWIDTH 7 0
BBX 6 9 1 0
BITMAP
F8
84
84
84
84
F8
80
80
80
ENDCHAR
STARTCHAR Q
ENCODING 81
SWIDTH 556 0
DWIDTH 8 0
BBX 6 11 1 -2
BITMAP
78
84
84
84
84
84
84
84
78
10
08
ENDCHAR
STARTCHAR R
ENCODING 82
SWIDTH 534 0
DWIDTH 7 0
BBX 6 9 1 0
BITMAP
F8
84
84
84
88
F8
90
88
84
ENDCHAR
STARTCHAR S
ENCODING 83
SWIDTH 562 0
DWIDTH 8 0
BBX 6 9 1 0
BITMAP
78
84
84
80
78
04
84
84
78
ENDCHAR
STARTCHAR T
ENCODING 84
SWIDTH 420 0
DWIDTH 6 0
BBX 6 9 0 0
BITMAP
FC
20
20
20
20
20
20
20
20
ENDCHAR
STARTCHAR U
ENCODING 85
SWIDTH 552 0
DWIDTH 8 0
BBX 6 9 1 0
BITMAP
84
84
84
84
84
84
84
84
78
ENDCHAR
STARTCHAR V
ENCODING 86
SWIDTH 500 0
DWIDTH 7 0
BBX 7 9 0 0
BITMAP
82
44
44
44
28
28
28
28
10
ENDCHAR
STARTCHAR W
ENCODING 87
SWIDTH 794 0
DWIDTH 11 0
BBX 11 9 0 0
BITMAP
8420
4440
4A40
4A40
4A40
5140
3180
3180
3080
ENDCHAR
STARTCHAR X
ENCODING 88
SWIDTH 504 0
DWIDTH 7 0
BBX 7 9 0 0
BITMAP
44
44
28
28
10
28
28
44
C6
ENDCHAR
STARTCHAR Y
ENCODING 89
SWIDTH 493 0
DWIDTH 7 0
BBX 7 9 0 0
BITMAP
86
44
48
28
30
10
10
10
10
ENDCHAR
STARTCHAR Z
ENCODING 90
SWIDTH 482 0
DWIDTH 7 0
BBX 5 9 1 0
BITMAP
F8
08
10
20
20
40
40
80
F8
ENDCHAR
STARTCHAR bracketleft
ENCODING 91
SWIDTH 287 0
DWIDTH 4 0
BBX 2 11 1 -2
BITMAP
C0
80
80
80
80
80
80
80
80
80
C0
ENDCHAR
STARTCHAR backslash
ENCODING 92
SWIDTH 396 0
DWIDTH 6 0
BBX 4 9 1 0
BITMAP
80
80
40
40
40
20
20
20
10
ENDCHAR
STARTCHAR bracketright
ENCODING 93
SWIDTH 287 0
DWIDTH 4 0
BBX 2 11 1 -2
BITMAP
C0
40
40
40
40
40
40
40
40
40
C0
ENDCHAR
STARTCHAR asciicircum
ENCODING 94
SWIDTH 465 0
DWIDTH 7 0
BBX 5 4 1 5
BITMAP
20
50
90
88
ENDCHAR
STARTCHAR underscore
ENCODING 95
SWIDTH 372 0
DWIDTH 5 0
BBX 5 1 0 -2
BITMAP
F8
ENDCHAR
STARTCHAR grave
ENCODING 96
SWIDTH 269 0
DWIDTH 4 0
BBX 2 2 1 8
BITMAP
80
40
ENDCHAR
STARTCHAR a
ENCODING 97
SWIDTH 502 0
DWIDTH 7 0
BBX 5 7 1 0
BITMAP
F8
88
88
88
88
88
F8
ENDCHAR
STARTCHAR b
ENCODING 98
SWIDTH 504 0
DWIDTH 7 0
BBX 5 10 1 0
BITMAP
80
80
80
F8
88
88
88
88
88
F8
ENDCHAR
STARTCHAR c
ENCODING 99
SWIDTH 394 0
DWIDTH 6 0
BBX 4 7 1 0
BITMAP
F0
80
80
80
80
80
F0
ENDCHAR
STARTCHAR d
ENCODING 100
SWIDTH 504 0
DWIDTH 7 0
BBX 5 10 1 0
BITMAP
08
08
08
F8
88
88
88
88
88
F8
ENDCHAR
STARTCHAR e
ENCODING 101
SWIDTH 492 0
DWIDTH 7 0
BBX 5 7 1 0
BITMAP
F0
88
88
F8
80
80
F8
ENDCHAR
STARTCHAR f
ENCODING 102
SWIDTH 303 0
DWIDTH 4 0
BBX 4 10 0 0
BITMAP
30
20
20
F0
20
20
20
20
20
20
ENDCHAR
STARTCHAR g
ENCODING 103
SWIDTH 506 0
DWIDTH 7 0
BBX 5 9 1 -2
BITMAP
78
88
88
88
88
88
78
08
F0
ENDCHAR
STARTCHAR h
ENCODING 104
SWIDTH 507 0
DWIDTH 7 0
BBX 5 10 1 0
BITMAP
80
80
80
F8
88
88
88
88
88
88
ENDCHAR
STARTCHAR i
ENCODING 105
SWIDTH 210 0
DWIDTH 3 0
BBX 1 10 1 0
BITMAP
80
80
00
80
80
80
80
80
80
80
ENDCHAR
STARTCHAR j
ENCODING 106
SWIDTH 210 0
DWIDTH 3 0
BBX 3 12 -1 -2
BITMAP
20
20
00
20
20
20
20
20
20
20
20
C0
ENDCHAR
STARTCHAR k
ENCODING 107
SWIDTH 431 0
DWIDTH 6 0
BBX 5 10 1 0
BITMAP
80
80
80
98
90
A0
A0
A0
90
88
ENDCHAR
STARTCHAR l
ENCODING 108
SWIDTH 210 0
DWIDTH 3 0
BBX 1 10 1 0
BITMAP
80
80
80
80
80
80
80
80
80
80
ENDCHAR
STARTCHAR m
ENCODING 109
SWIDTH 769 0
DWIDTH 11 0
BBX 9 7 1 0
BITMAP
F700
8880
8880
8880
8880
8880
8880
ENDCHAR
STARTCHAR n
ENCODING 110
SWIDTH 507 0
DWIDTH 7 0
BBX 5 7 1 0
BITMAP
F8
88
88
88
88
88
88
ENDCHAR
STARTCHAR o
ENCODING 111
SWIDTH 496 0
DWIDTH 7 0
BBX 5 7 1 0
BITMAP
F0
88
88
88
88
88
F0
ENDCHAR
STARTCHAR p
ENCODING 112
SWIDTH 504 0
DWIDTH 7 0
BBX 5 9 1 -2
BITMAP
F8
88
88
88
88
88
F8
80
80
ENDCHAR
STARTCHAR q
ENCODING 113
SWIDTH 502 0
DWIDTH 7 0
BBX 5 9 1 -2
BITMAP
F8
88
88
88
88
88
F8
08
08
ENDCHAR
STARTCHAR r
ENCODING 114
SWIDTH 313 0
DWIDTH 4 0
BBX 3 7 1 0
BITMAP
E0
80
80
80
80
80
80
ENDCHAR
STARTCHAR s
ENCODING 115
SWIDTH 431 0
DWIDTH 6 0
BBX 4 7 1 0
BITMAP
F0
80
80
60
10
10
F0
ENDCHAR
STARTCHAR t
ENCODING 116
SWIDTH 347 0
DWIDTH 5 0
BBX 4 9 0 0
BITMAP
40
40
F0
40
40
40
40
40
30
ENDCHAR
STARTCHAR u
ENCODING 117
SWIDTH 507 0
DWIDTH 7 0
BBX 5 7 1 0
BITMAP
88
88
88
88
88
88
78
ENDCHAR
STARTCHAR v
ENCODING 118
SWIDTH 416 0
DWIDTH 6 0
BBX 6 7 0 0
BITMAP
84
48
48
48
50
30
30
ENDCHAR
STARTCHAR w
ENCODING 119
SWIDTH 683 0
DWIDTH 10 0
BBX 9 7 0 0
BITMAP
8880
4C80
4C80
5500
5300
3300
2200
ENDCHAR
STARTCHAR x
ENCODING 120
SWIDTH 413 0
DWIDTH 6 0
BBX 5 7 0 0
BITMAP
C8
48
30
20
30
48
88
ENDCHAR
STARTCHAR y
ENCODING 121
SWIDTH 459 0
DWIDTH 6 0
BBX 6 9 0 -2
BITMAP
84
44
48
48
28
30
10
10
60
ENDCHAR
STARTCHAR z
ENCODING 122
SWIDTH 405 0
DWIDTH 6 0
BBX 5 7 0 0
BITMAP
78
08
10
20
20
40
F8
ENDCHAR
STARTCHAR braceleft
ENCODING 123
SWIDTH 298 0
DWIDTH 4 0
BBX 3 11 0 -2
BITMAP
20
40
40
40
40
80
40
40
40
40
20
ENDCHAR
STARTCHAR bar
ENCODING 124
SWIDTH 207 0
DWIDTH 3 0
BBX 1 9 1 0
BITMAP
80
80
80
80
80
80
80
80
80
ENDCHAR
STARTCHAR braceright
ENCODING 125
SWIDTH 298 0
DWIDTH 4 0
BBX 3 11 0 -2
BITMAP
C0
40
20
20
20
20
20
20
20
40
C0
ENDCHAR
STARTCHAR asciitilde
ENCODING 126
SWIDTH 523 0
DWIDTH 7 0
BBX 5 1 1 4
BITMAP
F8
ENDCHAR
STARTCHAR uni00A0
ENCODING 160
SWIDTH 267 0
DWIDTH 4 0
BBX 1 1 0 0
BITMAP
00
ENDCHAR
STARTCHAR exclamdown
ENCODING 161
SWIDTH 237 0
DWIDTH 3 0
BBX 1 9 1 0
BITMAP
80
80
00
80
80
80
80
80
80
ENDCHAR
STARTCHAR cent
ENCODING 162
SWIDTH 414 0
DWIDTH 6 0
BBX 4 10 1 -1
BITMAP
20
20
F0
80
80
80
80
80
F0
20
ENDCHAR
STARTCHAR sterling
ENCODING 163
SWIDTH 528 0
DWIDTH 7 0
BBX 6 9 0 0
BITMAP
3C
44
40
40
F8
40
40
40
FC
ENDCHAR
STARTCHAR yen
ENCODING 165
SWIDTH 499 0
DWIDTH 7 0
BBX 7 9 0 0
BITMAP
86
44
44
28
EC
10
FC
10
10
ENDCHAR
STARTCHAR brokenbar
ENCODING 166
SWIDTH 201 0
DWIDTH 3 0
BBX 1 9 1 0
BITMAP
80
80
80
80
00
80
80
80
80
ENDCHAR
STARTCHAR section
ENCODING 167
SWIDTH 454 0
DWIDTH 6 0
BBX 5 9 1 0
BITMAP
F0
80
80
F0
88
78
08
08
F0
ENDCHAR
STARTCHAR dieresis
ENCODING 168
SWIDTH 345 0
DWIDTH 5 0
BBX 3 2 1 8
BITMAP
A0
A0
ENDCHAR
STARTCHAR copyright
ENCODING 169
SWIDTH 723 0
DWIDTH 10 0
BBX 8 9 1 0
BITMAP
7F
81
BD
A5
A1
A1
A5
99
7F
ENDCHAR
STARTCHAR guillemotleft
ENCODING 171
SWIDTH 431 0
DWIDTH 6 0
BBX 4 5 1 1
BITMAP
50
A0
A0
60
50
ENDCHAR
STARTCHAR registered
ENCODING 174
SWIDTH 439 0
DWIDTH 6 0
BBX 4 5 1 5
BITMAP
F0
F0
F0
F0
F0
ENDCHAR
STARTCHAR macron
ENCODING 175
SWIDTH 358 0
DWIDTH 5 0
BBX 3 1 1 8
BITMAP
E0
ENDCHAR
STARTCHAR degree
ENCODING 176
SWIDTH 298 0
DWIDTH 4 0
BBX 2 3 1 7
BITMAP
C0
C0
C0
ENDCHAR
STARTCHAR plusminus
ENCODING 177
SWIDTH 523 0
DWIDTH 7 0
BBX 5 6 1 1
BITMAP
20
20
F8
20
00
F8
ENDCHAR
STARTCHAR acute
ENCODING 180
SWIDTH 269 0
DWIDTH 4 0
BBX 2 2 1 8
BITMAP
40
80
ENDCHAR
STARTCHAR paragraph
ENCODING 182
SWIDTH 513 0
DWIDTH 7 0
BBX 5 9 1 0
BITMAP
F8
C8
C8
C8
48
48
48
48
48
ENDCHAR
STARTCHAR periodcentered
ENCODING 183
SWIDTH 207 0
DWIDTH 3 0
BBX 1 2 1 3
BITMAP
80
80
ENDCHAR
STARTCHAR cedilla
ENCODING 184
SWIDTH 257 0
DWIDTH 4 0
BBX 2 3 1 -3
BITMAP
80
80
C0
ENDCHAR
STARTCHAR guillemotright
ENCODING 187
SWIDTH 431 0
DWIDTH 6 0
BBX 4 5 1 1
BITMAP
A0
50
50
60
A0
ENDCHAR
STARTCHAR questiondown
ENCODING 191
SWIDTH 473 0
DWIDTH 7 0
BBX 5 9 1 0
BITMAP
20
20
00
20
40
80
88
88
70
ENDCHAR
STARTCHAR Agrave
ENCODING 192
SWIDTH 532 0
DWIDTH 7 0
BBX 7 12 0 0
BITMAP
20
10
10
10
18
28
28
24
44
7C
42
82
ENDCHAR
STARTCHAR Aacute
ENCODING 193
SWIDTH 532 0
DWIDTH 7 0
BBX 7 12 0 0
BITMAP
04
08
10
10
18
28
28
24
44
7C
42
82
ENDCHAR
STARTCHAR Acircumflex
ENCODING 194
SWIDTH 532 0
DWIDTH 7 0
BBX 7 12 0 0
BITMAP
10
18
28
10
18
28
28
24
44
7C
42
82
ENDCHAR
STARTCHAR Atilde
ENCODING 195
SWIDTH 532 0
DWIDTH 7 0
BBX 7 12 0 0
BITMAP
28
38
18
10
18
28
28
24
44
7C
42
82
ENDCHAR
STARTCHAR Adieresis
ENCODING 196
SWIDTH 532 0
DWIDTH 7 0
BBX 7 12 0 0
BITMAP
28
28
00
10
18
28
28
24
44
7C
42
82
ENDCHAR
STARTCHAR Aring
ENCODING 197
SWIDTH 532 0
DWIDTH 7 0
BBX 7 12 0 0
BITMAP
18
28
18
10
18
28
28
24
44
7C
42
82
ENDCHAR
STARTCHAR AE
ENCODING 198
SWIDTH 773 0
DWIDTH 11 0
BBX 10 9 0 0
BITMAP
07C0
0C00
1400
1400
27C0
2400
7C00
4400
87C0
ENDCHAR
STARTCHAR Ccedilla
ENCODING 199
SWIDTH 542 0
DWIDTH 8 0
BBX 6 12 1 -3
BITMAP
78
84
84
80
80
80
84
84
78
20
10
30
ENDCHAR
STARTCHAR Egrave
ENCODING 200
SWIDTH 481 0
DWIDTH 7 0
BBX 5 12 1 0
BITMAP
40
20
20
F8
80
80
80
F0
80
80
80
F8
ENDCHAR
STARTCHAR Eacute
ENCODING 201
SWIDTH 481 0
DWIDTH 7 0
BBX 5 12 1 0
BITMAP
10
20
20
F8
80
80
80
F0
80
80
80
F8
ENDCHAR
STARTCHAR Ecircumflex
ENCODING 202
SWIDTH 481 0
DWIDTH 7 0
BBX 5 12 1 0
BITMAP
20
50
50
F8
80
80
80
F0
80
80
80
F8
ENDCHAR
STARTCHAR Edieresis
ENCODING 203
SWIDTH 481 0
DWIDTH 7 0
BBX 5 12 1 0
BITMAP
50
50
00
F8
80
80
80
F0
80
80
80
F8
ENDCHAR
STARTCHAR Igrave
ENCODING 204
SWIDTH 230 0
DWIDTH 3 0
BBX 2 12 0 0
BITMAP
80
80
40
40
40
40
40
40
40
40
40
40
ENDCHAR
STARTCHAR Iacute
ENCODING 205
SWIDTH 231 0
DWIDTH 3 0
BBX 2 12 1 0
BITMAP
40
40
80
80
80
80
80
80
80
80
80
80
ENDCHAR
STARTCHAR Icircumflex
ENCODING 206
SWIDTH 229 0
DWIDTH 3 0
BBX 3 12 0 0
BITMAP
40
40
A0
40
40
40
40
40
40
40
40
40
ENDCHAR
STARTCHAR Idieresis
ENCODING 207
SWIDTH 230 0
DWIDTH 3 0
BBX 3 12 0 0
BITMAP
A0
A0
00
40
40
40
40
40
40
40
40
40
ENDCHAR
STARTCHAR Eth
ENCODING 208
SWIDTH 514 0
DWIDTH 7 0
BBX 7 9 0 0
BITMAP
7C
42
42
42
F2
42
42
42
7C
ENDCHAR
STARTCHAR Ntilde
ENCODING 209
SWIDTH 579 0
DWIDTH 8 0
BBX 6 12 1 0
BITMAP
50
58
28
84
C4
C4
A4
94
94
8C
8C
84
ENDCHAR
STARTCHAR Ograve
ENCODING 210
SWIDTH 553 0
DWIDTH 8 0
BBX 6 12 1 0
BITMAP
40
20
20
78
84
84
84
84
84
84
84
78
ENDCHAR
STARTCHAR Oacute
ENCODING 211
SWIDTH 553 0
DWIDTH 8 0
BBX 6 12 1 0
BITMAP
10
10
20
78
84
84
84
84
84
84
84
78
ENDCHAR
STARTCHAR Ocircumflex
ENCODING 212
SWIDTH 553 0
DWIDTH 8 0
BBX 6 12 1 0
BITMAP
20
30
50
78
84
84
84
84
84
84
84
78
ENDCHAR
STARTCHAR Otilde
ENCODING 213
SWIDTH 553 0
DWIDTH 8 0
BBX 6 12 1 0
BITMAP
50
68
28
78
84
84
84
84
84
84
84
78
ENDCHAR
STARTCHAR Odieresis
ENCODING 214
SWIDTH 553 0
DWIDTH 8 0
BBX 6 12 1 0
BITMAP
50
50
00
78
84
84
84
84
84
84
84
78
ENDCHAR
STARTCHAR multiply
ENCODING 215
SWIDTH 493 0
DWIDTH 7 0
BBX 5 5 1 2
BITMAP
88
50
20
50
88
ENDCHAR
STARTCHAR Oslash
ENCODING 216
SWIDTH 559 0
DWIDTH 8 0
BBX 6 9 1 0
BITMAP
7C
84
8C
94
A4
A4
C4
84
F8
ENDCHAR
STARTCHAR Ugrave
ENCODING 217
SWIDTH 552 0
DWIDTH 8 0
BBX 6 12 1 0
BITMAP
40
20
20
84
84
84
84
84
84
84
84
78
ENDCHAR
STARTCHAR Uacute
ENCODING 218
SWIDTH 552 0
DWIDTH 8 0
BBX 6 12 1 0
BITMAP
08
10
20
84
84
84
84
84
84
84
84
78
ENDCHAR
STARTCHAR Ucircumflex
ENCODING 219
SWIDTH 552 0
DWIDTH 8 0
BBX 6 12 1 0
BITMAP
20
30
50
84
84
84
84
84
84
84
84
78
ENDCHAR
STARTCHAR Udieresis
ENCODING 220
SWIDTH 552 0
DWIDTH 8 0
BBX 6 12 1 0
BITMAP
50
50
00
84
84
84
84
84
84
84
84
78
ENDCHAR
STARTCHAR Yacute
ENCODING 221
SWIDTH 493 0
DWIDTH 7 0
BBX 7 12 0 0
BITMAP
08
10
10
86
44
48
28
30
10
10
10
10
ENDCHAR
STARTCHAR Thorn
ENCODING 222
SWIDTH 501 0
DWIDTH 7 0
BBX 4 9 2 0
BITMAP
80
80
F0
90
90
90
E0
80
80
ENDCHAR
STARTCHAR germandbls
ENCODING 223
SWIDTH 540 0
DWIDTH 8 0
BBX 6 9 1 0
BITMAP
78
84
84
88
B8
84
84
84
B8
ENDCHAR
STARTCHAR agrave
ENCODING 224
SWIDTH 502 0
DWIDTH 7 0
BBX 5 10 1 0
BITMAP
60
20
00
F8
88
88
88
88
88
F8
ENDCHAR
STARTCHAR aacute
ENCODING 225
SWIDTH 502 0
DWIDTH 7 0
BBX 5 10 1 0
BITMAP
10
20
00
F8
88
88
88
88
88
F8
ENDCHAR
STARTCHAR acircumflex
ENCODING 226
SWIDTH 502 0
DWIDTH 7 0
BBX 5 10 1 0
BITMAP
20
50
00
F8
88
88
88
88
88
F8
ENDCHAR
STARTCHAR atilde
ENCODING 227
SWIDTH 504 0
DWIDTH 7 0
BBX 5 10 1 0
BITMAP
50
28
00
F8
88
88
88
88
88
F8
ENDCHAR
STARTCHAR adieresis
ENCODING 228
SWIDTH 502 0
DWIDTH 7 0
BBX 5 10 1 0
BITMAP
50
50
00
F8
88
88
88
88
88
F8
ENDCHAR
STARTCHAR aring
ENCODING 229
SWIDTH 502 0
DWIDTH 7 0
BBX 5 10 1 0
BITMAP
30
50
30
F8
88
88
88
88
88
F8
ENDCHAR
STARTCHAR ae
ENCODING 230
SWIDTH 795 0
DWIDTH 11 0
BBX 9 7 1 0
BITMAP
7780
0880
0880
FF80
8800
8800
F780
ENDCHAR
STARTCHAR ccedilla
ENCODING 231
SWIDTH 394 0
DWIDTH 6 0
BBX 4 10 1 -3
BITMAP
F0
80
80
80
80
80
F0
20
10
20
ENDCHAR
STARTCHAR egrave
ENCODING 232
SWIDTH 492 0
DWIDTH 7 0
BBX 5 10 1 0
BITMAP
40
20
00
F0
88
88
F8
80
80
F8
ENDCHAR
STARTCHAR eacute
ENCODING 233
SWIDTH 492 0
DWIDTH 7 0
BBX 5 10 1 0
BITMAP
10
20
00
F0
88
88
F8
80
80
F8
ENDCHAR
STARTCHAR ecircumflex
ENCODING 234
SWIDTH 492 0
DWIDTH 7 0
BBX 5 10 1 0
BITMAP
20
50
00
F0
88
88
F8
80
80
F8
ENDCHAR
STARTCHAR edieresis
ENCODING 235
SWIDTH 492 0
DWIDTH 7 0
BBX 5 10 1 0
BITMAP
50
50
00
F0
88
88
F8
80
80
F8
ENDCHAR
STARTCHAR igrave
ENCODING 236
SWIDTH 210 0
DWIDTH 3 0
BBX 2 10 0 0
BITMAP
80
40
00
40
40
40
40
40
40
40
ENDCHAR
STARTCHAR iacute
ENCODING 237
SWIDTH 208 0
DWIDTH 3 0
BBX 2 10 1 0
BITMAP
40
80
00
80
80
80
80
80
80
80
ENDCHAR
STARTCHAR icircumflex
ENCODING 238
SWIDTH 210 0
DWIDTH 3 0
BBX 3 10 0 0
BITMAP
40
A0
00
40
40
40
40
40
40
40
ENDCHAR
STARTCHAR idieresis
ENCODING 239
SWIDTH 210 0
DWIDTH 3 0
BBX 3 10 0 0
BITMAP
A0
A0
00
40
40
40
40
40
40
40
ENDCHAR
STARTCHAR eth
ENCODING 240
SWIDTH 488 0
DWIDTH 7 0
BBX 5 10 1 0
BITMAP
58
20
50
10
78
88
88
88
88
F0
ENDCHAR
STARTCHAR ntilde
ENCODING 241
SWIDTH 507 0
DWIDTH 7 0
BBX 5 10 1 0
BITMAP
70
70
00
F8
88
88
88
88
88
88
ENDCHAR
STARTCHAR ograve
ENCODING 242
SWIDTH 496 0
DWIDTH 7 0
BBX 5 10 1 0
BITMAP
40
20
00
F0
88
88
88
88
88
F0
ENDCHAR
STARTCHAR oacute
ENCODING 243
SWIDTH 496 0
DWIDTH 7 0
BBX 5 10 1 0
BITMAP
10
20
00
F0
88
88
88
88
88
F0
ENDCHAR
STARTCHAR ocircumflex
ENCODING 244
SWIDTH 496 0
DWIDTH 7 0
BBX 5 10 1 0
BITMAP
20
50
00
F0
88
88
88
88
88
F0
ENDCHAR
STARTCHAR otilde
ENCODING 245
SWIDTH 496 0
DWIDTH 7 0
BBX 5 10 1 0
BITMAP
70
50
00
F0
88
88
88
88
88
F0
ENDCHAR
STARTCHAR odieresis
ENCODING 246
SWIDTH 496 0
DWIDTH 7 0
BBX 5 10 1 0
BITMAP
50
50
00
F0
88
88
88
88
88
F0
ENDCHAR
STARTCHAR divide
ENCODING 247
SWIDTH 510 0
DWIDTH 7 0
BBX 5 5 1 2
BITMAP
20
00
F8
00
20
ENDCHAR
STARTCHAR oslash
ENCODING 248
SWIDTH 521 0
DWIDTH 7 0
BBX 7 7 0 0
BITMAP
3E
44
4C
54
64
44
BC
ENDCHAR
STARTCHAR ugrave
ENCODING 249
SWIDTH 507 0
DWIDTH 7 0
BBX 5 10 1 0
BITMAP
40
20
00
88
88
88
88
88
88
78
ENDCHAR
STARTCHAR uacute
ENCODING 250
SWIDTH 507 0
DWIDTH 7 0
BBX 5 10 1 0
BITMAP
10
20
00
88
88
88
88
88
88
78
ENDCHAR
STARTCHAR ucircumflex
ENCODING 251
SWIDTH 507 0
DWIDTH 7 0
BBX 5 10 1 0
BITMAP
20
50
00
88
88
88
88
88
88
78
ENDCHAR
STARTCHAR udieresis
ENCODING 252
SWIDTH 507 0
DWIDTH 7 0
BBX 5 10 1 0
BITMAP
50
50
00
88
88
88
88
88
88
78
ENDCHAR
STARTCHAR yacute
ENCODING 253
SWIDTH 459 0
DWIDTH 6 0
BBX 6 12 0 -2
BITMAP
08
10
00
84
44
48
48
28
30
10
10
60
ENDCHAR
STARTCHAR thorn
ENCODING 254
SWIDTH 508 0
DWIDTH 7 0
BBX 5 12 1 -2
BITMAP
80
80
80
F8
88
88
88
88
88
F8
80
80
ENDCHAR
STARTCHAR ydieresis
ENCODING 255
SWIDTH 459 0
DWIDTH 6 0
BBX 6 12 0 -2
BITMAP
28
28
00
84
44
48
48
28
30
10
10
60
ENDCHAR
STARTCHAR Amacron
ENCODING 256
SWIDTH 532 0
DWIDTH 7 0
BBX 7 11 0 0
BITMAP
38
00
10
18
28
28
24
44
7C
42
82
ENDCHAR
STARTCHAR amacron
ENCODING 257
SWIDTH 502 0
DWIDTH 7 0
BBX 5 9 1 0
BITMAP
70
00
F8
88
88
88
88
88
F8
ENDCHAR
STARTCHAR Abreve
ENCODING 258
SWIDTH 532 0
DWIDTH 7 0
BBX 7 12 0 0
BITMAP
28
28
18
10
18
28
28
24
44
7C
42
82
ENDCHAR
STARTCHAR abreve
ENCODING 259
SWIDTH 502 0
DWIDTH 7 0
BBX 5 10 1 0
BITMAP
50
30
00
F8
88
88
88
88
88
F8
ENDCHAR
STARTCHAR Aogonek
ENCODING 260
SWIDTH 532 0
DWIDTH 7 0
BBX 7 11 0 -2
BITMAP
10
18
28
28
24
44
7C
42
82
02
06
ENDCHAR
STARTCHAR aogonek
ENCODING 261
SWIDTH 502 0
DWIDTH 7 0
BBX 5 9 1 -2
BITMAP
F8
88
88
88
88
88
F8
08
18
ENDCHAR
STARTCHAR Cacute
ENCODING 262
SWIDTH 542 0
DWIDTH 8 0
BBX 6 12 1 0
BITMAP
08
10
20
78
84
84
80
80
80
84
84
78
ENDCHAR
STARTCHAR cacute
ENCODING 263
SWIDTH 394 0
DWIDTH 6 0
BBX 4 10 1 0
BITMAP
10
20
00
F0
80
80
80
80
80
F0
ENDCHAR
STARTCHAR Cdotaccent
ENCODING 266
SWIDTH 542 0
DWIDTH 8 0
BBX 6 12 1 0
BITMAP
20
20
00
78
84
84
80
80
80
84
84
78
ENDCHAR
STARTCHAR cdotaccent
ENCODING 267
SWIDTH 394 0
DWIDTH 6 0
BBX 4 10 1 0
BITMAP
20
20
00
F0
80
80
80
80
80
F0
ENDCHAR
STARTCHAR Ccaron
ENCODING 268
SWIDTH 542 0
DWIDTH 8 0
BBX 6 12 1 0
BITMAP
50
30
20
78
84
84
80
80
80
84
84
78
ENDCHAR
STARTCHAR ccaron
ENCODING 269
SWIDTH 394 0
DWIDTH 6 0
BBX 4 10 1 0
BITMAP
50
20
00
F0
80
80
80
80
80
F0
ENDCHAR
STARTCHAR Dcaron
ENCODING 270
SWIDTH 557 0
DWIDTH 8 0
BBX 6 12 1 0
BITMAP
50
30
20
F8
84
84
84
84
84
84
84
F8
ENDCHAR
STARTCHAR dcaron
ENCODING 271
SWIDTH 534 0
DWIDTH 7 0
BBX 7 10 1 0
BITMAP
0A
0A
0C
F8
88
88
88
88
88
F8
ENDCHAR
STARTCHAR Dcroat
ENCODING 272
SWIDTH 514 0
DWIDTH 7 0
BBX 7 9 0 0
BITMAP
7C
42
42
F2
42
42
42
42
7C
ENDCHAR
STARTCHAR dcroat
ENCODING 273
SWIDTH 539 0
DWIDTH 8 0
BBX 6 10 1 0
BITMAP
08
08
3C
08
78
88
88
88
88
F8
ENDCHAR
STARTCHAR Emacron
ENCODING 274
SWIDTH 481 0
DWIDTH 7 0
BBX 5 11 1 0
BITMAP
70
00
F8
80
80
80
F0
80
80
80
F8
ENDCHAR
STARTCHAR emacron
ENCODING 275
SWIDTH 492 0
DWIDTH 7 0
BBX 5 9 1 0
BITMAP
70
00
F0
88
88
F8
80
80
F8
ENDCHAR
STARTCHAR Ebreve
ENCODING 276
SWIDTH 481 0
DWIDTH 7 0
BBX 5 12 1 0
BITMAP
50
50
20
F8
80
80
80
F0
80
80
80
F8
ENDCHAR
STARTCHAR ebreve
ENCODING 277
SWIDTH 492 0
DWIDTH 7 0
BBX 5 10 1 0
BITMAP
50
20
00
F0
88
88
F8
80
80
F8
ENDCHAR
STARTCHAR Edotaccent
ENCODING 278
SWIDTH 496 0
DWIDTH 7 0
BBX 5 12 1 0
BITMAP
20
20
00
F8
80
80
80
F0
80
80
80
F8
ENDCHAR
STARTCHAR edotaccent
ENCODING 279
SWIDTH 492 0
DWIDTH 7 0
BBX 5 10 1 0
BITMAP
20
20
00
F0
88
88
F8
80
80
F8
ENDCHAR
STARTCHAR Eogonek
ENCODING 280
SWIDTH 481 0
DWIDTH 7 0
BBX 5 11 1 -2
BITMAP
F8
80
80
80
F0
80
80
80
F8
10
10
ENDCHAR
STARTCHAR eogonek
ENCODING 281
SWIDTH 492 0
DWIDTH 7 0
BBX 5 9 1 -2
BITMAP
F0
88
88
F8
80
80
F8
10
10
ENDCHAR
STARTCHAR Ecaron
ENCODING 282
SWIDTH 481 0
DWIDTH 7 0
BBX 5 12 1 0
BITMAP
50
50
20
F8
80
80
80
F0
80
80
80
F8
ENDCHAR
STARTCHAR ecaron
ENCODING 283
SWIDTH 492 0
DWIDTH 7 0
BBX 5 10 1 0
BITMAP
50
20
00
F0
88
88
F8
80
80
F8
ENDCHAR
STARTCHAR Gcircumflex
ENCODING 284
SWIDTH 539 0
DWIDTH 8 0
BBX 6 12 1 0
BITMAP
20
30
50
78
84
84
80
9C
84
84
84
78
ENDCHAR
STARTCHAR gcircumflex
ENCODING 285
SWIDTH 506 0
DWIDTH 7 0
BBX 5 12 1 -2
BITMAP
20
50
00
78
88
88
88
88
88
78
08
F0
ENDCHAR
STARTCHAR Gbreve
ENCODING 286
SWIDTH 539 0
DWIDTH 8 0
BBX 6 12 1 0
BITMAP
50
50
30
78
84
84
80
9C
84
84
84
78
ENDCHAR
STARTCHAR gbreve
ENCODING 287
SWIDTH 506 0
DWIDTH 7 0
BBX 5 12 1 -2
BITMAP
48
30
00
78
88
88
88
88
88
78
08
F0
ENDCHAR
STARTCHAR Gdotaccent
ENCODING 288
SWIDTH 539 0
DWIDTH 8 0
BBX 6 12 1 0
BITMAP
20
20
00
78
84
84
80
9C
84
84
84
78
ENDCHAR
STARTCHAR gdotaccent
ENCODING 289
SWIDTH 506 0
DWIDTH 7 0
BBX 5 12 1 -2
BITMAP
20
20
00
78
88
88
88
88
88
78
08
F0
ENDCHAR
STARTCHAR uni0122
ENCODING 290
SWIDTH 539 0
DWIDTH 8 0
BBX 6 12 1 -3
BITMAP
78
84
84
80
9C
84
84
84
78
10
20
20
ENDCHAR
STARTCHAR uni0123
ENCODING 291
SWIDTH 506 0
DWIDTH 7 0
BBX 5 13 1 -2
BITMAP
10
20
20
00
78
88
88
88
88
88
78
08
F0
ENDCHAR
STARTCHAR hcircumflex
ENCODING 293
SWIDTH 507 0
DWIDTH 7 0
BBX 5 11 1 0
BITMAP
20
F0
80
80
F8
88
88
88
88
88
88
ENDCHAR
STARTCHAR Hbar
ENCODING 294
SWIDTH 523 0
DWIDTH 7 0
BBX 8 9 0 0
BITMAP
42
42
FF
42
7E
42
42
42
42
ENDCHAR
STARTCHAR hbar
ENCODING 295
SWIDTH 544 0
DWIDTH 8 0
BBX 7 10 0 0
BITMAP
40
40
F8
40
7C
42
42
42
42
42
ENDCHAR
STARTCHAR Itilde
ENCODING 296
SWIDTH 230 0
DWIDTH 3 0
BBX 3 12 0 0
BITMAP
A0
E0
E0
40
40
40
40
40
40
40
40
40
ENDCHAR
STARTCHAR itilde
ENCODING 297
SWIDTH 210 0
DWIDTH 3 0
BBX 3 10 0 0
BITMAP
E0
E0
00
40
40
40
40
40
40
40
ENDCHAR
STARTCHAR Imacron
ENCODING 298
SWIDTH 230 0
DWIDTH 3 0
BBX 3 11 0 0
BITMAP
E0
00
40
40
40
40
40
40
40
40
40
ENDCHAR
STARTCHAR imacron
ENCODING 299
SWIDTH 208 0
DWIDTH 3 0
BBX 3 9 0 0
BITMAP
E0
00
40
40
40
40
40
40
40
ENDCHAR
STARTCHAR Ibreve
ENCODING 300
SWIDTH 231 0
DWIDTH 3 0
BBX 3 12 0 0
BITMAP
A0
A0
40
40
40
40
40
40
40
40
40
40
ENDCHAR
STARTCHAR ibreve
ENCODING 301
SWIDTH 211 0
DWIDTH 3 0
BBX 3 10 0 0
BITMAP
A0
40
00
40
40
40
40
40
40
40
ENDCHAR
STARTCHAR Iogonek
ENCODING 302
SWIDTH 230 0
DWIDTH 3 0
BBX 2 11 0 -2
BITMAP
40
40
40
40
40
40
40
40
40
40
C0
ENDCHAR
STARTCHAR iogonek
ENCODING 303
SWIDTH 210 0
DWIDTH 3 0
BBX 2 12 0 -2
BITMAP
40
40
00
40
40
40
40
40
40
40
80
C0
ENDCHAR
STARTCHAR Idotaccent
ENCODING 304
SWIDTH 230 0
DWIDTH 3 0
BBX 1 11 1 0
BITMAP
80
80
80
80
80
80
80
80
80
80
80
ENDCHAR
STARTCHAR dotlessi
ENCODING 305
SWIDTH 212 0
DWIDTH 3 0
BBX 1 7 1 0
BITMAP
80
80
80
80
80
80
80
ENDCHAR
STARTCHAR IJ
ENCODING 306
SWIDTH 721 0
DWIDTH 10 0
BBX 8 9 1 0
BITMAP
81
81
81
81
81
81
91
91
9E
ENDCHAR
STARTCHAR ij
ENCODING 307
SWIDTH 419 0
DWIDTH 6 0
BBX 4 12 1 -2
BITMAP
90
90
00
90
90
90
90
90
90
90
10
60
ENDCHAR
STARTCHAR Jcircumflex
ENCODING 308
SWIDTH 494 0
DWIDTH 7 0
BBX 6 12 1 0
BITMAP
08
14
14
08
08
08
08
08
08
88
88
F0
ENDCHAR
STARTCHAR jcircumflex
ENCODING 309
SWIDTH 209 0
DWIDTH 3 0
BBX 4 12 -1 -2
BITMAP
20
50
00
20
20
20
20
20
20
20
20
C0
ENDCHAR
STARTCHAR uni0136
ENCODING 310
SWIDTH 530 0
DWIDTH 7 0
BBX 6 12 1 -3
BITMAP
8C
88
90
A0
E0
90
88
88
84
10
10
20
ENDCHAR
STARTCHAR uni0137
ENCODING 311
SWIDTH 431 0
DWIDTH 6 0
BBX 5 13 1 -3
BITMAP
80
80
80
98
90
A0
A0
A0
90
88
20
20
20
ENDCHAR
STARTCHAR Lacute
ENCODING 313
SWIDTH 451 0
DWIDTH 6 0
BBX 5 12 1 0
BITMAP
40
40
80
80
80
80
80
80
80
80
80
F8
ENDCHAR
STARTCHAR lacute
ENCODING 314
SWIDTH 207 0
DWIDTH 3 0
BBX 2 12 1 0
BITMAP
40
80
80
80
80
80
80
80
80
80
80
80
ENDCHAR
STARTCHAR uni013B
ENCODING 315
SWIDTH 451 0
DWIDTH 6 0
BBX 5 12 1 -3
BITMAP
80
80
80
80
80
80
80
80
F8
20
20
20
ENDCHAR
STARTCHAR uni013C
ENCODING 316
SWIDTH 211 0
DWIDTH 3 0
BBX 1 13 1 -3
BITMAP
80
80
80
80
80
80
80
80
80
80
80
80
80
ENDCHAR
STARTCHAR Lcaron
ENCODING 317
SWIDTH 451 0
DWIDTH 6 0
BBX 5 9 1 0
BITMAP
90
90
90
80
80
80
80
80
F8
ENDCHAR
STARTCHAR lcaron
ENCODING 318
SWIDTH 274 0
DWIDTH 4 0
BBX 3 10 1 0
BITMAP
A0
A0
A0
80
80
80
80
80
80
80
ENDCHAR
STARTCHAR Ldot
ENCODING 319
SWIDTH 500 0
DWIDTH 7 0
BBX 5 9 1 0
BITMAP
80
80
80
80
90
90
80
80
F8
ENDCHAR
STARTCHAR ldot
ENCODING 320
SWIDTH 314 0
DWIDTH 4 0
BBX 3 10 1 0
BITMAP
80
80
80
80
80
A0
A0
80
80
80
ENDCHAR
STARTCHAR Lslash
ENCODING 321
SWIDTH 504 0
DWIDTH 7 0
BBX 6 9 0 0
BITMAP
40
40
70
C0
40
40
40
40
7C
ENDCHAR
STARTCHAR lslash
ENCODING 322
SWIDTH 296 0
DWIDTH 4 0
BBX 4 10 0 0
BITMAP
20
20
20
30
C0
20
20
20
20
20
ENDCHAR
STARTCHAR Nacute
ENCODING 323
SWIDTH 579 0
DWIDTH 8 0
BBX 6 12 1 0
BITMAP
08
10
10
84
C4
C4
A4
94
94
8C
8C
84
ENDCHAR
STARTCHAR nacute
ENCODING 324
SWIDTH 507 0
DWIDTH 7 0
BBX 5 10 1 0
BITMAP
10
20
00
F8
88
88
88
88
88
88
ENDCHAR
STARTCHAR uni0145
ENCODING 325
SWIDTH 579 0
DWIDTH 8 0
BBX 6 12 1 -3
BITMAP
84
C4
C4
A4
94
94
8C
8C
84
10
10
20
ENDCHAR
STARTCHAR uni0146
ENCODING 326
SWIDTH 505 0
DWIDTH 7 0
BBX 5 10 1 -3
BITMAP
F8
88
88
88
88
88
88
20
20
20
ENDCHAR
STARTCHAR Ncaron
ENCODING 327
SWIDTH 579 0
DWIDTH 8 0
BBX 6 12 1 0
BITMAP
48
30
10
84
C4
C4
A4
94
94
8C
8C
84
ENDCHAR
STARTCHAR ncaron
ENCODING 328
SWIDTH 507 0
DWIDTH 7 0
BBX 5 10 1 0
BITMAP
50
20
00
F8
88
88
88
88
88
88
ENDCHAR
STARTCHAR Eng
ENCODING 330
SWIDTH 519 0
DWIDTH 7 0
BBX 6 11 1 -2
BITMAP
84
C4
C4
A4
94
94
8C
8C
84
04
18
ENDCHAR
STARTCHAR eng
ENCODING 331
SWIDTH 507 0
DWIDTH 7 0
BBX 5 9 1 -2
BITMAP
F8
88
88
88
88
88
88
08
18
ENDCHAR
STARTCHAR Omacron
ENCODING 332
SWIDTH 553 0
DWIDTH 8 0
BBX 6 11 1 0
BITMAP
70
00
78
84
84
84
84
84
84
84
78
ENDCHAR
STARTCHAR omacron
ENCODING 333
SWIDTH 496 0
DWIDTH 7 0
BBX 5 9 1 0
BITMAP
70
00
F0
88
88
88
88
88
F0
ENDCHAR
STARTCHAR Obreve
ENCODING 334
SWIDTH 553 0
DWIDTH 8 0
BBX 6 12 1 0
BITMAP
48
50
30
78
84
84
84
84
84
84
84
78
ENDCHAR
STARTCHAR obreve
ENCODING 335
SWIDTH 496 0
DWIDTH 7 0
BBX 5 10 1 0
BITMAP
50
20
00
F0
88
88
88
88
88
F0
ENDCHAR
STARTCHAR Ohungarumlaut
ENCODING 336
SWIDTH 553 0
DWIDTH 8 0
BBX 6 12 1 0
BITMAP
28
30
00
78
84
84
84
84
84
84
84
78
ENDCHAR
STARTCHAR ohungarumlaut
ENCODING 337
SWIDTH 496 0
DWIDTH 7 0
BBX 5 10 1 0
BITMAP
28
50
00
F0
88
88
88
88
88
F0
ENDCHAR
STARTCHAR OE
ENCODING 338
SWIDTH 775 0
DWIDTH 11 0
BBX 9 9 1 0
BITMAP
7F80
8800
8800
8800
8F00
8800
8800
8800
7F80
ENDCHAR
STARTCHAR oe
ENCODING 339
SWIDTH 812 0
DWIDTH 11 0
BBX 9 7 1 0
BITMAP
F780
8880
8880
8F80
8800
8800
F780
ENDCHAR
STARTCHAR Racute
ENCODING 340
SWIDTH 534 0
DWIDTH 7 0
BBX 6 12 1 0
BITMAP
10
10
20
F8
84
84
84
88
F8
90
88
84
ENDCHAR
STARTCHAR racute
ENCODING 341
SWIDTH 313 0
DWIDTH 4 0
BBX 3 10 1 0
BITMAP
60
40
00
E0
80
80
80
80
80
80
ENDCHAR
STARTCHAR uni0156
ENCODING 342
SWIDTH 534 0
DWIDTH 7 0
BBX 6 12 1 -3
BITMAP
F8
84
84
84
88
F8
90
88
84
20
20
20
ENDCHAR
STARTCHAR uni0157
ENCODING 343
SWIDTH 313 0
DWIDTH 4 0
BBX 3 10 1 -3
BITMAP
E0
80
80
80
80
80
80
80
80
80
ENDCHAR
STARTCHAR Rcaron
ENCODING 344
SWIDTH 534 0
DWIDTH 7 0
BBX 6 12 1 0
BITMAP
50
50
20
F8
84
84
84
88
F8
90
88
84
ENDCHAR
STARTCHAR rcaron
ENCODING 345
SWIDTH 313 0
DWIDTH 4 0
BBX 3 10 1 0
BITMAP
A0
40
00
E0
80
80
80
80
80
80
ENDCHAR
STARTCHAR Sacute
ENCODING 346
SWIDTH 562 0
DWIDTH 8 0
BBX 6 12 1 0
BITMAP
08
10
20
78
84
84
80
78
04
84
84
78
ENDCHAR
STARTCHAR sacute
ENCODING 347
SWIDTH 427 0
DWIDTH 6 0
BBX 4 10 1 0
BITMAP
20
40
00
F0
80
80
60
10
10
F0
ENDCHAR
STARTCHAR Scircumflex
ENCODING 348
SWIDTH 562 0
DWIDTH 8 0
BBX 6 12 1 0
BITMAP
20
30
48
78
84
84
80
78
04
84
84
78
ENDCHAR
STARTCHAR scircumflex
ENCODING 349
SWIDTH 427 0
DWIDTH 6 0
BBX 4 10 1 0
BITMAP
60
60
00
F0
80
80
60
10
10
F0
ENDCHAR
STARTCHAR uni015E
ENCODING 350
SWIDTH 562 0
DWIDTH 8 0
BBX 6 12 1 -3
BITMAP
78
84
84
80
78
04
84
84
78
30
10
30
ENDCHAR
STARTCHAR uni015F
ENCODING 351
SWIDTH 427 0
DWIDTH 6 0
BBX 4 10 1 -3
BITMAP
F0
80
80
60
10
10
F0
60
20
60
ENDCHAR
STARTCHAR Scaron
ENCODING 352
SWIDTH 562 0
DWIDTH 8 0
BBX 6 12 1 0
BITMAP
50
30
20
78
84
84
80
78
04
84
84
78
ENDCHAR
STARTCHAR scaron
ENCODING 353
SWIDTH 427 0
DWIDTH 6 0
BBX 4 10 1 0
BITMAP
60
60
00
F0
80
80
60
10
10
F0
ENDCHAR
STARTCHAR uni0162
ENCODING 354
SWIDTH 420 0
DWIDTH 6 0
BBX 6 12 0 -3
BITMAP
FC
20
20
20
20
20
20
20
20
20
20
20
ENDCHAR
STARTCHAR uni0163
ENCODING 355
SWIDTH 347 0
DWIDTH 5 0
BBX 4 12 0 -3
BITMAP
40
40
F0
40
40
40
40
40
30
20
20
20
ENDCHAR
STARTCHAR Tcaron
ENCODING 356
SWIDTH 420 0
DWIDTH 6 0
BBX 6 12 0 0
BITMAP
48
30
20
FC
20
20
20
20
20
20
20
20
ENDCHAR
STARTCHAR tcaron
ENCODING 357
SWIDTH 396 0
DWIDTH 6 0
BBX 5 9 0 0
BITMAP
48
48
F8
40
40
40
40
40
30
ENDCHAR
STARTCHAR Tbar
ENCODING 358
SWIDTH 501 0
DWIDTH 7 0
BBX 6 9 0 0
BITMAP
FC
10
10
10
78
10
10
10
10
ENDCHAR
STARTCHAR tbar
ENCODING 359
SWIDTH 350 0
DWIDTH 5 0
BBX 4 9 0 0
BITMAP
40
40
F0
40
F0
40
40
40
30
ENDCHAR
STARTCHAR Utilde
ENCODING 360
SWIDTH 552 0
DWIDTH 8 0
BBX 6 12 1 0
BITMAP
50
68
28
84
84
84
84
84
84
84
84
78
ENDCHAR
STARTCHAR utilde
ENCODING 361
SWIDTH 507 0
DWIDTH 7 0
BBX 5 10 1 0
BITMAP
70
70
00
88
88
88
88
88
88
78
ENDCHAR
STARTCHAR Umacron
ENCODING 362
SWIDTH 552 0
DWIDTH 8 0
BBX 6 11 1 0
BITMAP
70
00
84
84
84
84
84
84
84
84
78
ENDCHAR
STARTCHAR umacron
ENCODING 363
SWIDTH 507 0
DWIDTH 7 0
BBX 5 9 1 0
BITMAP
70
00
88
88
88
88
88
88
78
ENDCHAR
STARTCHAR Ubreve
ENCODING 364
SWIDTH 552 0
DWIDTH 8 0
BBX 6 12 1 0
BITMAP
48
50
30
84
84
84
84
84
84
84
84
78
ENDCHAR
STARTCHAR ubreve
ENCODING 365
SWIDTH 507 0
DWIDTH 7 0
BBX 5 10 1 0
BITMAP
50
50
20
88
88
88
88
88
88
78
ENDCHAR
STARTCHAR Uring
ENCODING 366
SWIDTH 552 0
DWIDTH 8 0
BBX 6 12 1 0
BITMAP
30
50
30
84
84
84
84
84
84
84
84
78
ENDCHAR
STARTCHAR uring
ENCODING 367
SWIDTH 507 0
DWIDTH 7 0
BBX 5 10 1 0
BITMAP
60
50
60
88
88
88
88
88
88
78
ENDCHAR
STARTCHAR Uhungarumlaut
ENCODING 368
SWIDTH 552 0
DWIDTH 8 0
BBX 6 12 1 0
BITMAP
28
30
00
84
84
84
84
84
84
84
84
78
ENDCHAR
STARTCHAR uhungarumlaut
ENCODING 369
SWIDTH 507 0
DWIDTH 7 0
BBX 5 10 1 0
BITMAP
28
50
00
88
88
88
88
88
88
78
ENDCHAR
STARTCHAR Uogonek
ENCODING 370
SWIDTH 552 0
DWIDTH 8 0
BBX 6 11 1 -2
BITMAP
84
84
84
84
84
84
84
84
78
20
30
ENDCHAR
STARTCHAR uogonek
ENCODING 371
SWIDTH 503 0
DWIDTH 7 0
BBX 5 9 1 -2
BITMAP
88
88
88
88
88
88
78
08
18
ENDCHAR
STARTCHAR Wcircumflex
ENCODING 372
SWIDTH 795 0
DWIDTH 11 0
BBX 11 12 0 0
BITMAP
0400
0A00
0A00
8420
4440
4A40
4A40
4A40
5140
3180
3180
3080
ENDCHAR
STARTCHAR wcircumflex
ENCODING 373
SWIDTH 682 0
DWIDTH 10 0
BBX 9 10 0 0
BITMAP
0800
1400
0000
8880
4C80
4C80
5500
5300
3300
2200
ENDCHAR
STARTCHAR Ycircumflex
ENCODING 374
SWIDTH 493 0
DWIDTH 7 0
BBX 7 12 0 0
BITMAP
10
28
28
86
44
48
28
30
10
10
10
10
ENDCHAR
STARTCHAR ycircumflex
ENCODING 375
SWIDTH 459 0
DWIDTH 6 0
BBX 6 12 0 -2
BITMAP
10
28
00
84
44
48
48
28
30
10
10
60
ENDCHAR
STARTCHAR Ydieresis
ENCODING 376
SWIDTH 493 0
DWIDTH 7 0
BBX 7 12 0 0
BITMAP
28
28
00
86
44
48
28
30
10
10
10
10
ENDCHAR
STARTCHAR Zacute
ENCODING 377
SWIDTH 482 0
DWIDTH 7 0
BBX 5 12 1 0
BITMAP
10
10
20
F8
08
10
20
20
40
40
80
F8
ENDCHAR
STARTCHAR zacute
ENCODING 378
SWIDTH 405 0
DWIDTH 6 0
BBX 5 10 0 0
BITMAP
18
10
00
78
08
10
20
20
40
F8
ENDCHAR
STARTCHAR Zdotaccent
ENCODING 379
SWIDTH 482 0
DWIDTH 7 0
BBX 5 12 1 0
BITMAP
20
20
00
F8
08
10
20
20
40
40
80
F8
ENDCHAR
STARTCHAR zdotaccent
ENCODING 380
SWIDTH 405 0
DWIDTH 6 0
BBX 5 10 0 0
BITMAP
10
10
00
78
08
10
20
20
40
F8
ENDCHAR
STARTCHAR Zcaron
ENCODING 381
SWIDTH 482 0
DWIDTH 7 0
BBX 5 12 1 0
BITMAP
50
20
20
F8
08
10
20
20
40
40
80
F8
ENDCHAR
STARTCHAR zcaron
ENCODING 382
SWIDTH 405 0
DWIDTH 6 0
BBX 5 10 0 0
BITMAP
30
10
00
78
08
10
20
20
40
F8
ENDCHAR
STARTCHAR florin
ENCODING 402
SWIDTH 494 0
DWIDTH 7 0
BBX 7 12 0 -2
BITMAP
06
08
08
08
10
3C
10
10
10
20
20
C0
ENDCHAR
STARTCHAR AEacute
ENCODING 508
SWIDTH 773 0
DWIDTH 11 0
BBX 10 12 0 0
BITMAP
0100
0200
0400
07C0
0C00
1400
1400
27C0
2400
7C00
4400
87C0
ENDCHAR
STARTCHAR aeacute
ENCODING 509
SWIDTH 795 0
DWIDTH 11 0
BBX 9 10 1 0
BITMAP
0400
0800
0000
7780
0880
0880
FF80
8800
8800
F780
ENDCHAR
STARTCHAR Oslashacute
ENCODING 510
SWIDTH 558 0
DWIDTH 8 0
BBX 6 12 1 0
BITMAP
08
10
20
7C
84
8C
94
A4
A4
C4
84
F8
ENDCHAR
STARTCHAR oslashacute
ENCODING 511
SWIDTH 521 0
DWIDTH 7 0
BBX 7 10 0 0
BITMAP
08
10
00
3E
44
4C
54
64
44
BC
ENDCHAR
STARTCHAR uni0218
ENCODING 536
SWIDTH 562 0
DWIDTH 8 0
BBX 6 12 1 -3
BITMAP
78
84
84
80
78
04
84
84
78
10
10
20
ENDCHAR
STARTCHAR uni0219
ENCODING 537
SWIDTH 427 0
DWIDTH 6 0
BBX 4 10 1 -3
BITMAP
F0
80
80
60
10
10
F0
20
20
20
ENDCHAR
STARTCHAR circumflex
ENCODING 710
SWIDTH 326 0
DWIDTH 5 0
BBX 3 2 1 8
BITMAP
40
A0
ENDCHAR
STARTCHAR caron
ENCODING 711
SWIDTH 326 0
DWIDTH 5 0
BBX 3 2 1 8
BITMAP
A0
40
ENDCHAR
STARTCHAR uni02C9
ENCODING 713
SWIDTH 358 0
DWIDTH 5 0
BBX 3 1 1 8
BITMAP
E0
ENDCHAR
STARTCHAR breve
ENCODING 728
SWIDTH 332 0
DWIDTH 5 0
BBX 3 2 1 8
BITMAP
A0
C0
ENDCHAR
STARTCHAR dotaccent
ENCODING 729
SWIDTH 183 0
DWIDTH 3 0
BBX 1 2 1 8
BITMAP
80
80
ENDCHAR
STARTCHAR ring
ENCODING 730
SWIDTH 297 0
DWIDTH 4 0
BBX 2 3 1 7
BITMAP
C0
C0
C0
ENDCHAR
STARTCHAR ogonek
ENCODING 731
SWIDTH 243 0
DWIDTH 3 0
BBX 1 2 1 -2
BITMAP
80
80
ENDCHAR
STARTCHAR tilde
ENCODING 732
SWIDTH 369 0
DWIDTH 5 0
BBX 3 2 1 8
BITMAP
E0
A0
ENDCHAR
STARTCHAR hungarumlaut
ENCODING 733
SWIDTH 377 0
DWIDTH 5 0
BBX 3 2 1 8
BITMAP
E0
A0
ENDCHAR
STARTCHAR Mu
ENCODING 924
SWIDTH 527 0
DWIDTH 7 0
BBX 5 9 1 -1
BITMAP
88
88
88
88
88
88
88
F8
80
ENDCHAR
STARTCHAR Pi
ENCODING 928
SWIDTH 605 0
DWIDTH 8 0
BBX 7 9 1 0
BITMAP
FE
44
44
44
44
44
44
44
44
ENDCHAR
STARTCHAR Sigma
ENCODING 931
SWIDTH 481 0
DWIDTH 7 0
BBX 5 9 1 0
BITMAP
F8
80
40
20
20
40
40
80
F8
ENDCHAR
STARTCHAR uni0901
ENCODING 2305
SWIDTH 0 0
DWIDTH 0 0
BBX 5 3 -4 10
BITMAP
20
88
70
ENDCHAR
STARTCHAR uni0902
ENCODING 2306
SWIDTH 0 0
DWIDTH 0 0
BBX 1 1 -2 10
BITMAP
80
ENDCHAR
STARTCHAR uni0903
ENCODING 2307
SWIDTH 247 0
DWIDTH 3 0
BBX 1 5 1 1
BITMAP
80
00
00
00
80
ENDCHAR
STARTCHAR uni0905
ENCODING 2309
SWIDTH 598 0
DWIDTH 8 0
BBX 9 9 0 0
BITMAP
7380
0A00
0A00
7200
0E00
0A00
1200
F200
0200
ENDCHAR
STARTCHAR uni0906
ENCODING 2310
SWIDTH 828 0
DWIDTH 12 0
BBX 12 9 0 0
BITMAP
73F0
0A40
1240
7240
0E40
0A40
1240
F240
0240
ENDCHAR
STARTCHAR uni0907
ENCODING 2311
SWIDTH 478 0
DWIDTH 7 0
BBX 7 9 0 0
BITMAP
FE
04
78
40
78
04
44
44
78
ENDCHAR
STARTCHAR uni0908
ENCODING 2312
SWIDTH 478 0
DWIDTH 7 0
BBX 7 13 0 0
BITMAP
0C
10
10
10
FE
04
78
40
78
04
44
44
78
ENDCHAR
STARTCHAR uni0909
ENCODING 2313
SWIDTH 471 0
DWIDTH 7 0
BBX 7 9 0 0
BITMAP
FE
04
04
18
04
44
44
48
30
ENDCHAR
STARTCHAR uni090A
ENCODING 2314
SWIDTH 661 0
DWIDTH 9 0
BBX 9 9 0 0
BITMAP
FF80
0400
0400
1800
0700
0480
4480
4880
3300
ENDCHAR
STARTCHAR uni090B
ENCODING 2315
SWIDTH 753 0
DWIDTH 11 0
BBX 11 9 0 0
BITMAP
FFE0
0400
3C80
4540
4640
4580
1D00
2500
44C0
ENDCHAR
STARTCHAR uni090C
ENCODING 2316
SWIDTH 676 0
DWIDTH 9 0
BBX 10 12 0 -3
BITMAP
FFC0
0100
3700
4900
4900
4900
4100
3100
0300
0200
0240
0380
ENDCHAR
STARTCHAR uni090D
ENCODING 2317
SWIDTH 521 0
DWIDTH 7 0
BBX 8 12 0 1
BITMAP
44
38
00
00
FF
42
42
44
4C
40
40
3C
ENDCHAR
STARTCHAR uni090E
ENCODING 2318
SWIDTH 522 0
DWIDTH 7 0
BBX 8 12 0 1
BITMAP
10
10
0C
02
FF
42
42
44
4C
40
40
3C
ENDCHAR
STARTCHAR uni090F
ENCODING 2319
SWIDTH 526 0
DWIDTH 7 0
BBX 8 8 0 1
BITMAP
FF
42
42
44
4C
40
40
3C
ENDCHAR
STARTCHAR uni0910
ENCODING 2320
SWIDTH 526 0
DWIDTH 7 0
BBX 8 12 0 1
BITMAP
10
08
04
04
FF
42
42
44
4C
40
40
3C
ENDCHAR
STARTCHAR uni0911
ENCODING 2321
SWIDTH 829 0
DWIDTH 12 0
BBX 12 13 0 0
BITMAP
0220
0220
01C0
0000
73F0
0A40
0A40
7240
0E40
0A40
1240
F240
0240
ENDCHAR
STARTCHAR uni0912
ENCODING 2322
SWIDTH 828 0
DWIDTH 12 0
BBX 12 13 0 0
BITMAP
0100
0100
0080
0040
73F0
0A40
0A40
7240
0E40
0A40
1240
F240
0240
ENDCHAR
STARTCHAR uni0913
ENCODING 2323
SWIDTH 829 0
DWIDTH 12 0
BBX 12 13 0 0
BITMAP
0100
0080
0040
0040
73F0
0A40
0A40
7240
0E40
0A40
1240
F240
0240
ENDCHAR
STARTCHAR uni0914
ENCODING 2324
SWIDTH 829 0
DWIDTH 12 0
BBX 12 13 0 0
BITMAP
0140
00C0
00A0
0040
73F0
0A40
0A40
7240
0E40
0A40
1240
F240
0240
ENDCHAR
STARTCHAR uni0915
ENCODING 2325
SWIDTH 725 0
DWIDTH 10 0
BBX 10 9 0 0
BITMAP
FFC0
3780
4480
4480
4480
4480
3F80
0400
0400
ENDCHAR
STARTCHAR uni0916
ENCODING 2326
SWIDTH 696 0
DWIDTH 10 0
BBX 10 9 0 0
BITMAP
FFC0
1080
1680
1880
E880
4880
2780
2080
1080
ENDCHAR
STARTCHAR uni0917
ENCODING 2327
SWIDTH 494 0
DWIDTH 7 0
BBX 7 9 0 0
BITMAP
FE
24
24
24
24
C4
04
04
04
ENDCHAR
STARTCHAR uni0918
ENCODING 2328
SWIDTH 559 0
DWIDTH 8 0
BBX 8 9 0 0
BITMAP
FF
42
42
32
42
42
42
3E
02
ENDCHAR
STARTCHAR uni0919
ENCODING 2329
SWIDTH 505 0
DWIDTH 7 0
BBX 7 9 0 0
BITMAP
FE
04
78
42
78
04
44
44
38
ENDCHAR
STARTCHAR uni091A
ENCODING 2330
SWIDTH 563 0
DWIDTH 8 0
BBX 8 9 0 0
BITMAP
FF
02
FA
42
42
42
3E
02
02
ENDCHAR
STARTCHAR uni091B
ENCODING 2331
SWIDTH 581 0
DWIDTH 8 0
BBX 8 8 0 1
BITMAP
FF
42
46
32
42
42
42
3E
ENDCHAR
STARTCHAR uni091C
ENCODING 2332
SWIDTH 547 0
DWIDTH 8 0
BBX 8 9 0 0
BITMAP
FF
02
7C
12
12
12
12
E2
02
ENDCHAR
STARTCHAR uni091D
ENCODING 2333
SWIDTH 664 0
DWIDTH 9 0
BBX 9 9 0 0
BITMAP
FF80
3900
4100
4100
3F00
0900
4900
7900
4100
ENDCHAR
STARTCHAR uni091E
ENCODING 2334
SWIDTH 592 0
DWIDTH 8 0
BBX 8 9 0 0
BITMAP
FF
02
72
12
1E
12
72
02
02
ENDCHAR
STARTCHAR uni091F
ENCODING 2335
SWIDTH 485 0
DWIDTH 7 0
BBX 7 8 0 1
BITMAP
FE
08
38
40
40
44
44
3C
ENDCHAR
STARTCHAR uni0920
ENCODING 2336
SWIDTH 512 0
DWIDTH 7 0
BBX 7 8 0 1
BITMAP
FE
04
38
44
44
44
44
3C
ENDCHAR
STARTCHAR uni0921
ENCODING 2337
SWIDTH 475 0
DWIDTH 7 0
BBX 7 9 0 0
BITMAP
FE
04
78
40
78
04
44
44
38
ENDCHAR
STARTCHAR uni0922
ENCODING 2338
SWIDTH 485 0
DWIDTH 7 0
BBX 7 8 0 1
BITMAP
FE
04
38
40
4C
54
44
3C
ENDCHAR
STARTCHAR uni0923
ENCODING 2339
SWIDTH 681 0
DWIDTH 10 0
BBX 10 9 0 0
BITMAP
FFC0
4900
4900
4900
4900
3900
0100
0100
0100
ENDCHAR
STARTCHAR uni0924
ENCODING 2340
SWIDTH 496 0
DWIDTH 7 0
BBX 7 9 0 0
BITMAP
FE
04
3C
44
44
44
44
44
34
ENDCHAR
STARTCHAR uni0925
ENCODING 2341
SWIDTH 593 0
DWIDTH 8 0
BBX 8 9 1 0
BITMAP
67
94
14
E4
84
84
7C
04
04
ENDCHAR
STARTCHAR uni0926
ENCODING 2342
SWIDTH 489 0
DWIDTH 7 0
BBX 7 9 0 0
BITMAP
FE
04
3C
40
44
44
3C
04
04
ENDCHAR
STARTCHAR uni0927
ENCODING 2343
SWIDTH 560 0
DWIDTH 8 0
BBX 8 9 0 0
BITMAP
EF
42
42
32
42
42
42
3E
02
ENDCHAR
STARTCHAR uni0928
ENCODING 2344
SWIDTH 473 0
DWIDTH 7 0
BBX 7 9 0 0
BITMAP
FE
08
08
78
88
48
08
08
08
ENDCHAR
STARTCHAR uni0928093C
ENCODING 2345
SWIDTH 473 0
DWIDTH 7 0
BBX 7 9 0 0
BITMAP
FE
08
08
78
88
48
08
08
28
ENDCHAR
STARTCHAR uni092A
ENCODING 2346
SWIDTH 503 0
DWIDTH 7 0
BBX 7 9 0 0
BITMAP
FE
44
44
44
44
3C
04
04
04
ENDCHAR
STARTCHAR uni092B
ENCODING 2347
SWIDTH 739 0
DWIDTH 10 0
BBX 11 9 0 0
BITMAP
FFE0
4780
4440
4440
4440
3C40
0580
0400
0400
ENDCHAR
STARTCHAR uni092C
ENCODING 2348
SWIDTH 491 0
DWIDTH 7 0
BBX 7 9 0 0
BITMAP
FE
34
44
64
54
4C
3C
04
04
ENDCHAR
STARTCHAR uni092D
ENCODING 2349
SWIDTH 491 0
DWIDTH 7 0
BBX 7 9 0 0
BITMAP
DE
44
44
7C
44
44
04
04
04
ENDCHAR
STARTCHAR uni092E
ENCODING 2350
SWIDTH 490 0
DWIDTH 7 0
BBX 7 9 0 0
BITMAP
FE
44
44
7C
44
44
04
04
04
ENDCHAR
STARTCHAR uni092F
ENCODING 2351
SWIDTH 564 0
DWIDTH 8 0
BBX 8 9 0 0
BITMAP
FF
12
12
62
42
42
3E
02
02
ENDCHAR
STARTCHAR uni0930
ENCODING 2352
SWIDTH 337 0
DWIDTH 5 0
BBX 5 9 0 0
BITMAP
F8
10
10
10
E0
40
20
20
10
ENDCHAR
STARTCHAR uni0930093C
ENCODING 2353
SWIDTH 347 0
DWIDTH 5 0
BBX 5 9 0 0
BITMAP
F8
10
10
10
60
40
20
20
90
ENDCHAR
STARTCHAR uni0932
ENCODING 2354
SWIDTH 676 0
DWIDTH 9 0
BBX 10 9 0 0
BITMAP
FFC0
0100
3700
4900
4900
4900
4100
3100
0100
ENDCHAR
STARTCHAR uni0933
ENCODING 2355
SWIDTH 672 0
DWIDTH 9 0
BBX 10 8 0 1
BITMAP
FFC0
0200
3700
4900
4880
4880
4880
7700
ENDCHAR
STARTCHAR uni0933093C
ENCODING 2356
SWIDTH 672 0
DWIDTH 9 0
BBX 10 9 0 0
BITMAP
FFC0
0200
3700
4900
4880
4880
4880
7700
2000
ENDCHAR
STARTCHAR uni0935
ENCODING 2357
SWIDTH 484 0
DWIDTH 7 0
BBX 7 9 0 0
BITMAP
FE
34
44
44
44
44
3C
04
04
ENDCHAR
STARTCHAR uni0936
ENCODING 2358
SWIDTH 614 0
DWIDTH 9 0
BBX 8 9 1 0
BITMAP
E3
94
94
14
E4
84
44
44
24
ENDCHAR
STARTCHAR uni0937
ENCODING 2359
SWIDTH 505 0
DWIDTH 7 0
BBX 7 9 0 0
BITMAP
FE
64
54
4C
44
3C
04
04
04
ENDCHAR
STARTCHAR uni0938
ENCODING 2360
SWIDTH 575 0
DWIDTH 8 0
BBX 8 9 0 0
BITMAP
FF
22
22
22
FE
42
42
22
12
ENDCHAR
STARTCHAR uni0939
ENCODING 2361
SWIDTH 481 0
DWIDTH 7 0
BBX 7 10 0 -1
BITMAP
FE
04
38
40
40
38
44
44
40
3C
ENDCHAR
STARTCHAR uni093C
ENCODING 2364
SWIDTH 0 0
DWIDTH 0 0
BBX 1 1 -2 -1
BITMAP
80
ENDCHAR
STARTCHAR uni093D
ENCODING 2365
SWIDTH 529 0
DWIDTH 7 0
BBX 5 9 1 0
BITMAP
78
40
40
20
18
08
88
48
30
ENDCHAR
STARTCHAR uni093E
ENCODING 2366
SWIDTH 231 0
DWIDTH 3 0
BBX 3 9 0 0
BITMAP
E0
40
40
40
40
40
40
40
40
ENDCHAR
STARTCHAR uni093F
ENCODING 2367
SWIDTH 231 0
DWIDTH 3 0
BBX 9 13 0 0
BITMAP
3F00
4080
4080
4000
E000
4000
4000
4000
4000
4000
4000
4000
4000
ENDCHAR
STARTCHAR uni0940
ENCODING 2368
SWIDTH 231 0
DWIDTH 3 0
BBX 5 13 -2 0
BITMAP
60
90
90
10
38
10
10
10
10
10
10
10
10
ENDCHAR
STARTCHAR uni0941
ENCODING 2369
SWIDTH 0 0
DWIDTH 0 0
BBX 5 4 -5 -4
BITMAP
18
88
48
38
ENDCHAR
STARTCHAR uni0942
ENCODING 2370
SWIDTH 0 0
DWIDTH 0 0
BBX 5 4 -4 -4
BITMAP
70
88
88
68
ENDCHAR
STARTCHAR uni0943
ENCODING 2371
SWIDTH 0 0
DWIDTH 0 0
BBX 4 4 -4 -4
BITMAP
60
80
90
70
ENDCHAR
STARTCHAR uni0945
ENCODING 2373
SWIDTH 0 0
DWIDTH 0 0
BBX 5 2 -4 10
BITMAP
88
70
ENDCHAR
STARTCHAR uni0946
ENCODING 2374
SWIDTH 0 0
DWIDTH 0 0
BBX 4 5 -5 8
BITMAP
80
80
60
10
10
ENDCHAR
STARTCHAR uni0947
ENCODING 2375
SWIDTH 0 0
DWIDTH 0 0
BBX 3 5 -4 8
BITMAP
80
80
40
40
20
ENDCHAR
STARTCHAR uni0948
ENCODING 2376
SWIDTH 0 0
DWIDTH 0 0
BBX 3 5 -4 8
BITMAP
A0
A0
60
60
20
ENDCHAR
STARTCHAR uni0949
ENCODING 2377
SWIDTH 231 0
DWIDTH 3 0
BBX 5 13 -1 0
BITMAP
88
88
70
00
70
20
20
20
20
20
20
20
20
ENDCHAR
STARTCHAR uni094A
ENCODING 2378
SWIDTH 231 0
DWIDTH 3 0
BBX 5 13 -2 0
BITMAP
80
40
20
10
38
10
10
10
10
10
10
10
10
ENDCHAR
STARTCHAR uni094B
ENCODING 2379
SWIDTH 231 0
DWIDTH 3 0
BBX 4 13 -1 0
BITMAP
80
40
40
20
70
20
20
20
20
20
20
20
20
ENDCHAR
STARTCHAR uni094C
ENCODING 2380
SWIDTH 231 0
DWIDTH 3 0
BBX 4 13 -1 0
BITMAP
A0
A0
60
20
70
20
20
20
20
20
20
20
20
ENDCHAR
STARTCHAR uni094D
ENCODING 2381
SWIDTH 0 0
DWIDTH 0 0
BBX 2 3 -2 -3
BITMAP
80
80
40
ENDCHAR
STARTCHAR uni0950
ENCODING 2384
SWIDTH 847 0
DWIDTH 12 0
BBX 10 11 1 1
BITMAP
0200
0000
0040
7380
1000
1380
6040
1E40
9240
9240
F380
ENDCHAR
STARTCHAR uni0951
ENCODING 2385
SWIDTH 0 0
DWIDTH 0 0
BBX 1 3 -2 10
BITMAP
80
80
80
ENDCHAR
STARTCHAR uni0952
ENCODING 2386
SWIDTH 0 0
DWIDTH 0 0
BBX 5 1 -6 -2
BITMAP
F8
ENDCHAR
STARTCHAR uni0953
ENCODING 2387
SWIDTH 0 0
DWIDTH 0 0
BBX 3 2 -4 11
BITMAP
C0
60
ENDCHAR
STARTCHAR uni0954
ENCODING 2388
SWIDTH 0 0
DWIDTH 0 0
BBX 2 2 -2 11
BITMAP
40
80
ENDCHAR
STARTCHAR uni0915093C
ENCODING 2392
SWIDTH 725 0
DWIDTH 10 0
BBX 10 9 0 0
BITMAP
FFC0
3780
4480
4480
4480
4480
3F80
0400
2400
ENDCHAR
STARTCHAR uni0916093C
ENCODING 2393
SWIDTH 696 0
DWIDTH 10 0
BBX 10 9 0 0
BITMAP
FFC0
1080
1680
1880
E880
4880
2780
2080
5080
ENDCHAR
STARTCHAR uni0917093C
ENCODING 2394
SWIDTH 494 0
DWIDTH 7 0
BBX 7 9 0 0
BITMAP
FE
24
24
24
24
C4
04
04
44
ENDCHAR
STARTCHAR uni091C093C
ENCODING 2395
SWIDTH 547 0
DWIDTH 8 0
BBX 8 9 0 0
BITMAP
FF
02
7C
12
12
12
12
E2
42
ENDCHAR
STARTCHAR uni0921093C
ENCODING 2396
SWIDTH 475 0
DWIDTH 7 0
BBX 7 10 0 -1
BITMAP
FE
04
78
40
78
04
44
44
38
10
ENDCHAR
STARTCHAR uni0922093C
ENCODING 2397
SWIDTH 485 0
DWIDTH 7 0
BBX 7 10 0 -1
BITMAP
FE
04
38
40
4C
54
44
3C
00
10
ENDCHAR
STARTCHAR uni092B093C
ENCODING 2398
SWIDTH 739 0
DWIDTH 10 0
BBX 11 9 0 0
BITMAP
FFE0
4780
4440
4440
4440
3C40
0580
0400
2400
ENDCHAR
STARTCHAR uni092F093C
ENCODING 2399
SWIDTH 564 0
DWIDTH 8 0
BBX 8 9 0 0
BITMAP
FF
12
12
62
42
42
3E
02
42
ENDCHAR
STARTCHAR uni0960
ENCODING 2400
SWIDTH 753 0
DWIDTH 11 0
BBX 11 10 0 -1
BITMAP
FFE0
0400
3C80
4540
4680
0D00
1500
25C0
4500
01C0
ENDCHAR
STARTCHAR uni0961
ENCODING 2401
SWIDTH 676 0
DWIDTH 9 0
BBX 10 13 0 -4
BITMAP
FFC0
0100
0100
3700
4900
4900
4900
7200
0200
0200
0300
0200
0380
ENDCHAR
STARTCHAR uni0964
ENCODING 2404
SWIDTH 286 0
DWIDTH 4 0
BBX 1 9 2 0
BITMAP
80
80
80
80
80
80
80
80
80
ENDCHAR
STARTCHAR uni0965
ENCODING 2405
SWIDTH 518 0
DWIDTH 7 0
BBX 4 9 2 0
BITMAP
90
90
90
90
90
90
90
90
90
ENDCHAR
STARTCHAR uni0966
ENCODING 2406
SWIDTH 519 0
DWIDTH 7 0
BBX 5 9 1 0
BITMAP
F8
88
88
88
88
88
88
88
70
ENDCHAR
STARTCHAR uni0967
ENCODING 2407
SWIDTH 288 0
DWIDTH 4 0
BBX 3 9 0 0
BITMAP
60
A0
20
20
20
20
20
20
20
ENDCHAR
STARTCHAR uni0968
ENCODING 2408
SWIDTH 453 0
DWIDTH 6 0
BBX 5 9 1 0
BITMAP
F0
88
88
18
20
40
80
80
F8
ENDCHAR
STARTCHAR uni0969
ENCODING 2409
SWIDTH 489 0
DWIDTH 7 0
BBX 5 9 1 0
BITMAP
F0
88
08
30
08
88
88
88
70
ENDCHAR
STARTCHAR uni096A
ENCODING 2410
SWIDTH 453 0
DWIDTH 6 0
BBX 6 9 0 0
BITMAP
08
18
28
28
48
48
FC
08
08
ENDCHAR
STARTCHAR uni096B
ENCODING 2411
SWIDTH 480 0
DWIDTH 7 0
BBX 5 9 1 0
BITMAP
F8
80
F0
88
08
08
88
88
70
ENDCHAR
STARTCHAR uni096C
ENCODING 2412
SWIDTH 495 0
DWIDTH 7 0
BBX 5 9 1 0
BITMAP
F8
80
80
F8
88
88
88
88
70
ENDCHAR
STARTCHAR uni096D
ENCODING 2413
SWIDTH 380 0
DWIDTH 5 0
BBX 5 9 0 0
BITMAP
F8
08
10
10
10
20
20
40
40
ENDCHAR
STARTCHAR uni096E
ENCODING 2414
SWIDTH 523 0
DWIDTH 7 0
BBX 5 9 1 0
BITMAP
F8
88
88
70
88
88
88
88
70
ENDCHAR
STARTCHAR uni096F
ENCODING 2415
SWIDTH 493 0
DWIDTH 7 0
BBX 5 9 1 0
BITMAP
F0
88
88
88
F8
08
08
08
F0
ENDCHAR
STARTCHAR uni0970
ENCODING 2416
SWIDTH 391 0
DWIDTH 5 0
BBX 4 5 1 2
BITMAP
E0
90
90
90
E0
ENDCHAR
STARTCHAR uni0972
ENCODING 2418
SWIDTH 598 0
DWIDTH 8 0
BBX 9 13 0 0
BITMAP
0880
0880
0700
0000
7380
0A00
0A00
7200
0E00
0A00
1200
F200
0200
ENDCHAR
STARTCHAR Wgrave
ENCODING 7808
SWIDTH 795 0
DWIDTH 11 0
BBX 11 12 0 0
BITMAP
0800
0800
0400
8420
4440
4A40
4A40
4A40
5140
3180
3180
3080
ENDCHAR
STARTCHAR wgrave
ENCODING 7809
SWIDTH 682 0
DWIDTH 10 0
BBX 9 10 0 0
BITMAP
1000
0800
0000
8880
4C80
4C80
5500
5300
3300
2200
ENDCHAR
STARTCHAR Wacute
ENCODING 7810
SWIDTH 795 0
DWIDTH 11 0
BBX 11 12 0 0
BITMAP
0200
0200
0400
8420
4440
4A40
4A40
4A40
5140
3180
3180
3080
ENDCHAR
STARTCHAR wacute
ENCODING 7811
SWIDTH 682 0
DWIDTH 10 0
BBX 9 10 0 0
BITMAP
0400
0400
0000
8880
4C80
4C80
5500
5300
3300
2200
ENDCHAR
STARTCHAR Wdieresis
ENCODING 7812
SWIDTH 795 0
DWIDTH 11 0
BBX 11 12 0 0
BITMAP
0A00
0A00
0000
8420
4440
4A40
4A40
4A40
5140
3180
3180
3080
ENDCHAR
STARTCHAR wdieresis
ENCODING 7813
SWIDTH 682 0
DWIDTH 10 0
BBX 9 10 0 0
BITMAP
1400
1400
0000
8880
4C80
4C80
5500
5300
3300
2200
ENDCHAR
STARTCHAR uni1E9E
ENCODING 7838
SWIDTH 542 0
DWIDTH 8 0
BBX 6 9 1 0
BITMAP
7C
88
88
90
98
84
84
84
B8
ENDCHAR
STARTCHAR Ygrave
ENCODING 7922
SWIDTH 493 0
DWIDTH 7 0
BBX 7 12 0 0
BITMAP
20
20
10
86
44
48
28
30
10
10
10
10
ENDCHAR
STARTCHAR ygrave
ENCODING 7923
SWIDTH 459 0
DWIDTH 6 0
BBX 6 12 0 -2
BITMAP
20
10
00
84
44
48
48
28
30
10
10
60
ENDCHAR
STARTCHAR uni200B
ENCODING 8203
SWIDTH 0 0
DWIDTH 0 0
BBX 1 1 0 0
BITMAP
00
ENDCHAR
STARTCHAR uni200C
ENCODING 8204
SWIDTH 0 0
DWIDTH 0 0
BBX 1 15 0 -3
BITMAP
80
80
80
80
80
80
80
80
80
80
80
80
80
80
80
ENDCHAR
STARTCHAR uni200D
ENCODING 8205
SWIDTH 0 0
DWIDTH 0 0
BBX 4 14 -2 -3
BITMAP
F0
60
B0
20
20
20
20
20
20
20
20
20
20
20
ENDCHAR
STARTCHAR endash
ENCODING 8211
SWIDTH 408 0
DWIDTH 6 0
BBX 4 1 1 4
BITMAP
F0
ENDCHAR
STARTCHAR emdash
ENCODING 8212
SWIDTH 537 0
DWIDTH 8 0
BBX 6 1 1 4
BITMAP
FC
ENDCHAR
STARTCHAR quoteleft
ENCODING 8216
SWIDTH 179 0
DWIDTH 3 0
BBX 1 3 1 6
BITMAP
80
80
80
ENDCHAR
STARTCHAR quoteright
ENCODING 8217
SWIDTH 179 0
DWIDTH 3 0
BBX 1 3 1 6
BITMAP
80
80
80
ENDCHAR
STARTCHAR quotesinglbase
ENCODING 8218
SWIDTH 187 0
DWIDTH 3 0
BBX 1 3 1 -1
BITMAP
80
80
80
ENDCHAR
STARTCHAR quotedblleft
ENCODING 8220
SWIDTH 329 0
DWIDTH 5 0
BBX 3 3 1 6
BITMAP
A0
A0
A0
ENDCHAR
STARTCHAR quotedblright
ENCODING 8221
SWIDTH 329 0
DWIDTH 5 0
BBX 3 3 1 6
BITMAP
A0
A0
A0
ENDCHAR
STARTCHAR quotedblbase
ENCODING 8222
SWIDTH 337 0
DWIDTH 5 0
BBX 3 3 1 -1
BITMAP
A0
A0
A0
ENDCHAR
STARTCHAR dagger
ENCODING 8224
SWIDTH 427 0
DWIDTH 6 0
BBX 4 9 1 0
BITMAP
40
40
F0
40
40
40
40
40
40
ENDCHAR
STARTCHAR daggerdbl
ENCODING 8225
SWIDTH 427 0
DWIDTH 6 0
BBX 4 9 1 0
BITMAP
40
40
F0
40
40
40
F0
40
40
ENDCHAR
STARTCHAR bullet
ENCODING 8226
SWIDTH 273 0
DWIDTH 4 0
BBX 2 2 1 3
BITMAP
C0
C0
ENDCHAR
STARTCHAR ellipsis
ENCODING 8230
SWIDTH 591 0
DWIDTH 8 0
BBX 6 2 1 0
BITMAP
94
94
ENDCHAR
STARTCHAR perthousand
ENCODING 8240
SWIDTH 1027 0
DWIDTH 14 0
BBX 13 9 1 0
BITMAP
E400
A400
A800
E800
0800
1730
14C8
24C8
2738
ENDCHAR
STARTCHAR guilsinglleft
ENCODING 8249
SWIDTH 290 0
DWIDTH 4 0
BBX 2 5 1 1
BITMAP
40
40
80
40
40
ENDCHAR
STARTCHAR guilsinglright
ENCODING 8250
SWIDTH 290 0
DWIDTH 4 0
BBX 2 5 1 1
BITMAP
80
40
40
40
80
ENDCHAR
STARTCHAR fraction
ENCODING 8260
SWIDTH 117 0
DWIDTH 2 0
BBX 7 9 -3 0
BITMAP
02
02
04
08
10
10
20
40
80
ENDCHAR
STARTCHAR Euro
ENCODING 8364
SWIDTH 523 0
DWIDTH 7 0
BBX 6 9 0 0
BITMAP
3C
44
40
F8
40
F8
40
44
3C
ENDCHAR
STARTCHAR uni20B9
ENCODING 8377
SWIDTH 414 0
DWIDTH 6 0
BBX 4 9 1 0
BITMAP
F0
F0
20
20
C0
80
40
40
20
ENDCHAR
STARTCHAR trademark
ENCODING 8482
SWIDTH 591 0
DWIDTH 8 0
BBX 6 4 1 5
BITMAP
F4
54
5C
54
ENDCHAR
STARTCHAR uni2126
ENCODING 8486
SWIDTH 629 0
DWIDTH 9 0
BBX 7 9 1 0
BITMAP
7C
82
82
82
82
82
82
44
EE
ENDCHAR
STARTCHAR partialdiff
ENCODING 8706
SWIDTH 481 0
DWIDTH 7 0
BBX 5 10 1 0
BITMAP
60
10
08
78
88
88
88
88
88
70
ENDCHAR
STARTCHAR uni2206
ENCODING 8710
SWIDTH 594 0
DWIDTH 8 0
BBX 8 9 0 0
BITMAP
08
18
14
24
24
42
42
41
FF
ENDCHAR
STARTCHAR minus
ENCODING 8722
SWIDTH 523 0
DWIDTH 7 0
BBX 5 1 1 4
BITMAP
F8
ENDCHAR
STARTCHAR approxequal
ENCODING 8776
SWIDTH 523 0
DWIDTH 7 0
BBX 5 4 1 3
BITMAP
E8
98
00
F8
ENDCHAR
STARTCHAR notequal
ENCODING 8800
SWIDTH 523 0
DWIDTH 7 0
BBX 5 6 1 2
BITMAP
10
F8
20
20
F8
40
ENDCHAR
STARTCHAR lessequal
ENCODING 8804
SWIDTH 523 0
DWIDTH 7 0
BBX 5 6 1 2
BITMAP
08
70
C0
38
00
F8
ENDCHAR
STARTCHAR greaterequal
ENCODING 8805
SWIDTH 523 0
DWIDTH 7 0
BBX 5 6 1 2
BITMAP
80
70
18
E0
00
F8
ENDCHAR
STARTCHAR uni25CC
ENCODING 9676
SWIDTH 701 0
DWIDTH 10 0
BBX 8 8 1 1
BITMAP
74
02
80
01
80
41
02
28
ENDCHAR
STARTCHAR commaaccent
ENCODING 63171
SWIDTH 0 0
DWIDTH 0 0
BBX 1 3 3 -4
BITMAP
80
80
80
ENDCHAR
STARTCHAR .notdef
ENCODING -1
SWIDTH 600 0
DWIDTH 8 0
BBX 5 9 2 0
BITMAP
F8
88
88
88
88
88
88
88
F8
ENDCHAR
STARTCHAR .null
ENCODING -1
SWIDTH 0 0
DWIDTH 0 0
BBX 1 1 0 0
BITMAP
00
ENDCHAR
STARTCHAR nonmarkingreturn
ENCODING -1
SWIDTH 333 0
DWIDTH 5 0
BBX 1 1 0 0
BITMAP
00
ENDCHAR
STARTCHAR uni0915094D
ENCODING -1
SWIDTH 519 0
DWIDTH 7 0
BBX 9 9 0 0
BITMAP
FF80
3780
4480
4400
4400
4400
3C00
0400
0400
ENDCHAR
STARTCHAR uni0916094D
ENCODING -1
SWIDTH 468 0
DWIDTH 7 0
BBX 8 9 0 0
BITMAP
FF
10
16
18
E8
48
27
20
10
ENDCHAR
STARTCHAR uni0917094D
ENCODING -1
SWIDTH 264 0
DWIDTH 4 0
BBX 4 6 0 3
BITMAP
F0
20
20
20
20
C0
ENDCHAR
STARTCHAR uni0918094D
ENCODING -1
SWIDTH 321 0
DWIDTH 5 0
BBX 6 8 0 1
BITMAP
FC
40
40
30
40
40
44
3C
ENDCHAR
STARTCHAR uni0919094D
ENCODING -1
SWIDTH 505 0
DWIDTH 7 0
BBX 7 11 0 -2
BITMAP
FE
04
78
42
78
04
44
44
38
10
08
ENDCHAR
STARTCHAR uni091A094D
ENCODING -1
SWIDTH 330 0
DWIDTH 5 0
BBX 6 8 0 1
BITMAP
FC
00
00
F8
40
40
44
3C
ENDCHAR
STARTCHAR uni091B094D
ENCODING -1
SWIDTH 581 0
DWIDTH 8 0
BBX 8 8 0 1
BITMAP
FF
40
46
32
42
42
42
3E
ENDCHAR
STARTCHAR uni091C094D
ENCODING -1
SWIDTH 309 0
DWIDTH 4 0
BBX 6 8 0 1
BITMAP
FC
00
00
7C
10
10
10
E0
ENDCHAR
STARTCHAR uni091D094D
ENCODING -1
SWIDTH 432 0
DWIDTH 6 0
BBX 8 9 0 0
BITMAP
FF
38
40
40
3F
48
48
78
40
ENDCHAR
STARTCHAR uni091E094D
ENCODING -1
SWIDTH 359 0
DWIDTH 5 0
BBX 6 8 0 1
BITMAP
FC
00
60
10
10
1C
10
70
ENDCHAR
STARTCHAR uni091F094D
ENCODING -1
SWIDTH 485 0
DWIDTH 7 0
BBX 7 11 0 -2
BITMAP
FE
08
38
40
40
44
44
3C
00
10
08
ENDCHAR
STARTCHAR uni0920094D
ENCODING -1
SWIDTH 512 0
DWIDTH 7 0
BBX 7 11 0 -2
BITMAP
FE
04
38
44
44
44
44
3C
00
10
08
ENDCHAR
STARTCHAR uni0921094D
ENCODING -1
SWIDTH 475 0
DWIDTH 7 0
BBX 7 11 0 -2
BITMAP
FE
04
78
40
78
04
44
44
38
10
08
ENDCHAR
STARTCHAR uni0922094D
ENCODING -1
SWIDTH 485 0
DWIDTH 7 0
BBX 7 11 0 -2
BITMAP
FE
04
38
40
4C
54
44
3C
00
10
08
ENDCHAR
STARTCHAR uni0923094D
ENCODING -1
SWIDTH 454 0
DWIDTH 6 0
BBX 7 7 0 2
BITMAP
FE
48
48
48
48
48
38
ENDCHAR
STARTCHAR uni0924094D
ENCODING -1
SWIDTH 263 0
DWIDTH 4 0
BBX 5 9 0 0
BITMAP
F8
00
38
40
40
40
40
40
30
ENDCHAR
STARTCHAR uni0925094D
ENCODING -1
SWIDTH 359 0
DWIDTH 5 0
BBX 6 8 1 1
BITMAP
60
90
90
10
E0
80
84
78
ENDCHAR
STARTCHAR uni0926094D
ENCODING -1
SWIDTH 489 0
DWIDTH 7 0
BBX 7 10 0 -1
BITMAP
FE
04
3C
40
44
44
3C
04
14
08
ENDCHAR
STARTCHAR uni0927094D
ENCODING -1
SWIDTH 321 0
DWIDTH 5 0
BBX 6 8 0 1
BITMAP
EC
40
40
30
40
40
44
3C
ENDCHAR
STARTCHAR uni0928094D
ENCODING -1
SWIDTH 233 0
DWIDTH 3 0
BBX 5 6 0 3
BITMAP
F8
00
00
00
78
80
ENDCHAR
STARTCHAR uni092A094D
ENCODING -1
SWIDTH 269 0
DWIDTH 4 0
BBX 6 7 0 2
BITMAP
FC
40
40
40
40
44
38
ENDCHAR
STARTCHAR uni092B094D
ENCODING -1
SWIDTH 530 0
DWIDTH 7 0
BBX 9 9 0 0
BITMAP
FF80
4780
4480
4400
4400
3C00
0400
0400
0400
ENDCHAR
STARTCHAR uni092C094D
ENCODING -1
SWIDTH 265 0
DWIDTH 4 0
BBX 6 8 0 1
BITMAP
F8
00
30
40
60
54
4C
38
ENDCHAR
STARTCHAR uni092D094D
ENCODING -1
SWIDTH 261 0
DWIDTH 4 0
BBX 5 7 0 2
BITMAP
98
40
40
40
78
40
40
ENDCHAR
STARTCHAR uni092E094D
ENCODING -1
SWIDTH 261 0
DWIDTH 4 0
BBX 5 7 0 2
BITMAP
F8
40
40
40
78
40
40
ENDCHAR
STARTCHAR uni092F094D
ENCODING -1
SWIDTH 323 0
DWIDTH 5 0
BBX 6 8 0 1
BITMAP
FC
10
10
60
40
40
44
38
ENDCHAR
STARTCHAR uni0930094D
ENCODING -1
SWIDTH 337 0
DWIDTH 5 0
BBX 5 11 0 -2
BITMAP
F8
10
10
10
E0
40
20
20
10
20
30
ENDCHAR
STARTCHAR uni0932094D
ENCODING -1
SWIDTH 431 0
DWIDTH 6 0
BBX 8 8 0 1
BITMAP
FF
00
36
49
48
48
40
30
ENDCHAR
STARTCHAR uni0933094D
ENCODING -1
SWIDTH 677 0
DWIDTH 9 0
BBX 10 8 0 1
BITMAP
FFC0
0000
3700
4900
4880
4880
4880
7700
ENDCHAR
STARTCHAR uni0935094D
ENCODING -1
SWIDTH 255 0
DWIDTH 4 0
BBX 6 8 0 1
BITMAP
F8
00
30
40
40
44
44
38
ENDCHAR
STARTCHAR uni0936094D
ENCODING -1
SWIDTH 378 0
DWIDTH 5 0
BBX 4 9 1 0
BITMAP
E0
90
90
10
E0
80
40
40
20
ENDCHAR
STARTCHAR uni0937094D
ENCODING -1
SWIDTH 282 0
DWIDTH 4 0
BBX 6 7 0 2
BITMAP
FC
40
60
50
48
44
38
ENDCHAR
STARTCHAR uni0938094D
ENCODING -1
SWIDTH 338 0
DWIDTH 5 0
BBX 6 9 0 0
BITMAP
FC
20
20
20
FC
40
40
20
10
ENDCHAR
STARTCHAR uni0939094D
ENCODING -1
SWIDTH 457 0
DWIDTH 6 0
BBX 8 10 0 -1
BITMAP
FE
04
38
40
40
3F
40
40
40
3C
ENDCHAR
STARTCHAR uni0915093C094D
ENCODING -1
SWIDTH 519 0
DWIDTH 7 0
BBX 9 9 0 0
BITMAP
FF80
3780
4480
4400
4400
4400
3C00
0400
4400
ENDCHAR
STARTCHAR uni0916093C094D
ENCODING -1
SWIDTH 463 0
DWIDTH 6 0
BBX 8 9 0 0
BITMAP
FF
10
16
18
E8
48
27
20
50
ENDCHAR
STARTCHAR uni0917093C094D
ENCODING -1
SWIDTH 264 0
DWIDTH 4 0
BBX 4 9 0 0
BITMAP
F0
20
20
20
C0
00
00
00
40
ENDCHAR
STARTCHAR uni091C093C094D
ENCODING -1
SWIDTH 314 0
DWIDTH 4 0
BBX 6 10 0 -1
BITMAP
FC
00
00
7C
10
10
10
E0
00
40
ENDCHAR
STARTCHAR uni0928093C094D
ENCODING -1
SWIDTH 241 0
DWIDTH 3 0
BBX 5 10 0 -1
BITMAP
F8
00
00
00
78
80
40
00
00
20
ENDCHAR
STARTCHAR uni092B093C094D
ENCODING -1
SWIDTH 530 0
DWIDTH 7 0
BBX 9 9 0 0
BITMAP
FF80
4780
4480
4400
4400
3C00
0400
0400
2400
ENDCHAR
STARTCHAR uni092F093C094D
ENCODING -1
SWIDTH 325 0
DWIDTH 5 0
BBX 6 10 0 -1
BITMAP
FC
10
10
60
40
40
44
38
00
20
ENDCHAR
STARTCHAR uni09080902
ENCODING -1
SWIDTH 478 0
DWIDTH 7 0
BBX 7 13 0 0
BITMAP
0C
10
14
10
FE
04
78
40
78
04
44
44
78
ENDCHAR
STARTCHAR uni09300941
ENCODING -1
SWIDTH 533 0
DWIDTH 7 0
BBX 8 9 0 0
BITMAP
FF
10
1C
12
E2
44
28
20
10
ENDCHAR
STARTCHAR uni09300942
ENCODING -1
SWIDTH 645 0
DWIDTH 9 0
BBX 9 9 0 0
BITMAP
FF80
1000
1700
1900
E900
4100
2600
2000
1000
ENDCHAR
STARTCHAR uni09390941
ENCODING -1
SWIDTH 495 0
DWIDTH 7 0
BBX 7 13 0 -4
BITMAP
FE
04
38
40
40
38
44
44
40
3C
44
44
3C
ENDCHAR
STARTCHAR uni09390942
ENCODING -1
SWIDTH 492 0
DWIDTH 7 0
BBX 7 13 0 -4
BITMAP
FE
04
04
78
40
38
44
40
38
44
44
44
32
ENDCHAR
STARTCHAR uni09260943
ENCODING -1
SWIDTH 390 0
DWIDTH 5 0
BBX 6 8 0 1
BITMAP
FC
08
70
40
30
40
40
78
ENDCHAR
STARTCHAR uni09390943
ENCODING -1
SWIDTH 519 0
DWIDTH 7 0
BBX 7 11 0 -2
BITMAP
FE
04
78
40
3C
52
50
50
4C
40
3C
ENDCHAR
STARTCHAR uni094D0930
ENCODING -1
SWIDTH 0 0
DWIDTH 0 0
BBX 5 3 -6 -2
BITMAP
20
50
98
ENDCHAR
STARTCHAR uni0930094D.1
ENCODING -1
SWIDTH 192 0
DWIDTH 3 0
BBX 5 4 -1 5
BITMAP
70
00
88
78
ENDCHAR
STARTCHAR uni0930094D.2
ENCODING -1
SWIDTH 0 0
DWIDTH 0 0
BBX 2 4 -2 9
BITMAP
C0
80
80
80
ENDCHAR
STARTCHAR uni0930094D0902
ENCODING -1
SWIDTH 0 0
DWIDTH 0 0
BBX 2 4 -2 9
BITMAP
C0
80
C0
80
ENDCHAR
STARTCHAR uni093E0930094D
ENCODING -1
SWIDTH 231 0
DWIDTH 3 0
BBX 4 13 0 0
BITMAP
30
40
40
40
E0
40
40
40
40
40
40
40
40
ENDCHAR
STARTCHAR uni093E0930094D0902
ENCODING -1
SWIDTH 231 0
DWIDTH 3 0
BBX 4 13 0 0
BITMAP
30
50
40
40
E0
40
40
40
40
40
40
40
40
ENDCHAR
STARTCHAR uni0930094D.aMatraI
ENCODING -1
SWIDTH 0 0
DWIDTH 0 0
BBX 3 3 -1 9
BITMAP
60
80
80
ENDCHAR
STARTCHAR uni0902.aMatraI
ENCODING -1
SWIDTH 0 0
DWIDTH 0 0
BBX 1 1 0 10
BITMAP
80
ENDCHAR
STARTCHAR uni0930094D0902.aMatraI
ENCODING -1
SWIDTH 0 0
DWIDTH 0 0
BBX 3 3 -1 9
BITMAP
60
A0
80
ENDCHAR
STARTCHAR uni09400930094D
ENCODING -1
SWIDTH 231 0
DWIDTH 3 0
BBX 6 13 -2 0
BITMAP
6C
90
90
10
38
10
10
10
10
10
10
10
10
ENDCHAR
STARTCHAR uni09400902
ENCODING -1
SWIDTH 231 0
DWIDTH 3 0
BBX 5 13 -2 0
BITMAP
E0
98
90
10
38
10
10
10
10
10
10
10
10
ENDCHAR
STARTCHAR uni09400930094D0902
ENCODING -1
SWIDTH 231 0
DWIDTH 3 0
BBX 6 13 -2 0
BITMAP
EC
94
10
10
38
10
10
10
10
10
10
10
10
ENDCHAR
STARTCHAR uni0940.aLong
ENCODING -1
SWIDTH 231 0
DWIDTH 3 0
BBX 8 13 -5 0
BITMAP
FC
82
82
02
07
02
02
02
02
02
02
02
02
ENDCHAR
STARTCHAR uni09400930094D.aLong
ENCODING -1
SWIDTH 231 0
DWIDTH 3 0
BBX 9 13 -5 0
BITMAP
FD80
8200
8200
0200
0700
0200
0200
0200
0200
0200
0200
0200
0200
ENDCHAR
STARTCHAR uni09400902.aLong
ENCODING -1
SWIDTH 231 0
DWIDTH 3 0
BBX 9 13 -5 0
BITMAP
FC00
8280
8200
0200
0700
0200
0200
0200
0200
0200
0200
0200
0200
ENDCHAR
STARTCHAR uni09400930094D0902.aLong
ENCODING -1
SWIDTH 231 0
DWIDTH 3 0
BBX 9 13 -5 0
BITMAP
FD80
8280
0200
0200
0700
0200
0200
0200
0200
0200
0200
0200
0200
ENDCHAR
STARTCHAR uni09470930094D
ENCODING -1
SWIDTH 0 0
DWIDTH 0 0
BBX 4 4 -4 9
BITMAP
B0
A0
60
20
ENDCHAR
STARTCHAR uni09470902
ENCODING -1
SWIDTH 0 0
DWIDTH 0 0
BBX 4 5 -4 8
BITMAP
80
80
50
40
20
ENDCHAR
STARTCHAR uni09470901
ENCODING -1
SWIDTH 0 0
DWIDTH 0 0
BBX 7 5 -4 8
BITMAP
88
A2
62
5C
20
ENDCHAR
STARTCHAR uni09470930094D0902
ENCODING -1
SWIDTH 0 0
DWIDTH 0 0
BBX 4 4 -4 9
BITMAP
90
A0
70
20
ENDCHAR
STARTCHAR uni09480930094D
ENCODING -1
SWIDTH 0 0
DWIDTH 0 0
BBX 5 4 -5 9
BITMAP
A8
50
30
10
ENDCHAR
STARTCHAR uni09480902
ENCODING -1
SWIDTH 0 0
DWIDTH 0 0
BBX 4 4 -4 9
BITMAP
A0
B0
60
20
ENDCHAR
STARTCHAR uni09480901
ENCODING -1
SWIDTH 0 0
DWIDTH 0 0
BBX 8 4 -4 9
BITMAP
A4
B1
6E
20
ENDCHAR
STARTCHAR uni09480930094D0902
ENCODING -1
SWIDTH 0 0
DWIDTH 0 0
BBX 5 4 -5 9
BITMAP
A8
50
38
10
ENDCHAR
STARTCHAR uni094B0930094D
ENCODING -1
SWIDTH 231 0
DWIDTH 3 0
BBX 5 13 -1 0
BITMAP
98
60
60
20
70
20
20
20
20
20
20
20
20
ENDCHAR
STARTCHAR uni094B0902
ENCODING -1
SWIDTH 231 0
DWIDTH 3 0
BBX 4 13 -1 0
BITMAP
80
50
40
20
70
20
20
20
20
20
20
20
20
ENDCHAR
STARTCHAR uni094B0930094D0902
ENCODING -1
SWIDTH 231 0
DWIDTH 3 0
BBX 5 13 -1 0
BITMAP
98
60
68
20
70
20
20
20
20
20
20
20
20
ENDCHAR
STARTCHAR uni094C0930094D
ENCODING -1
SWIDTH 231 0
DWIDTH 3 0
BBX 5 13 -1 0
BITMAP
B8
A0
60
20
70
20
20
20
20
20
20
20
20
ENDCHAR
STARTCHAR uni094C0902
ENCODING -1
SWIDTH 231 0
DWIDTH 3 0
BBX 4 13 -1 0
BITMAP
A0
B0
60
20
70
20
20
20
20
20
20
20
20
ENDCHAR
STARTCHAR uni094C0930094D0902
ENCODING -1
SWIDTH 231 0
DWIDTH 3 0
BBX 5 13 -1 0
BITMAP
B8
A8
60
20
70
20
20
20
20
20
20
20
20
ENDCHAR
STARTCHAR uni0915094D0937
ENCODING -1
SWIDTH 656 0
DWIDTH 9 0
BBX 8 9 1 0
BITMAP
73
8A
4A
FE
8A
8A
F2
0A
0A
ENDCHAR
STARTCHAR uni0915094D0937094D
ENCODING -1
SWIDTH 429 0
DWIDTH 6 0
BBX 7 9 1 0
BITMAP
70
88
48
FE
88
88
F0
08
08
ENDCHAR
STARTCHAR uni0915094D0937094D092E
ENCODING -1
SWIDTH 933 0
DWIDTH 13 0
BBX 12 9 1 0
BITMAP
77F0
8A20
4A20
B7E0
8A20
8820
F020
0820
0820
ENDCHAR
STARTCHAR uni0915094D0937094D092E094D
ENCODING -1
SWIDTH 717 0
DWIDTH 10 0
BBX 11 9 1 0
BITMAP
77E0
8A00
4A00
B7E0
8A00
8800
F000
0800
0800
ENDCHAR
STARTCHAR uni0915094D0937094D092E094D092F
ENCODING -1
SWIDTH 1283 0
DWIDTH 18 0
BBX 17 9 1 0
BITMAP
77FF80
8A0900
4A0900
B7F100
8A2100
8A2100
F01F00
080100
080100
ENDCHAR
STARTCHAR uni0915094D0937094D092F
ENCODING -1
SWIDTH 989 0
DWIDTH 14 0
BBX 13 9 1 0
BITMAP
73F8
8890
4890
FF10
8A10
8A10
F1F0
0810
0810
ENDCHAR
STARTCHAR uni0915094D0937094D0935
ENCODING -1
SWIDTH 936 0
DWIDTH 13 0
BBX 12 9 1 0
BITMAP
73F0
89A0
4A20
FE20
8A20
8A20
F1E0
0820
0820
ENDCHAR
STARTCHAR uni091C094D091E
ENCODING -1
SWIDTH 629 0
DWIDTH 9 0
BBX 9 10 0 -1
BITMAP
FF80
0100
7E00
4100
7900
0500
4500
7900
4100
4000
ENDCHAR
STARTCHAR uni091C094D091E094D
ENCODING -1
SWIDTH 398 0
DWIDTH 6 0
BBX 7 9 0 0
BITMAP
FE
00
7E
40
78
44
44
78
40
ENDCHAR
STARTCHAR uni091C094D091E094D092F
ENCODING -1
SWIDTH 975 0
DWIDTH 14 0
BBX 14 10 0 -1
BITMAP
FFFC
0048
7E48
4188
7A08
0510
45E8
7808
4008
4000
ENDCHAR
STARTCHAR uni0915094D0928
ENCODING -1
SWIDTH 1003 0
DWIDTH 14 0
BBX 14 9 0 0
BITMAP
FFFC
3708
4488
44F8
4488
4408
3C08
0408
0408
ENDCHAR
STARTCHAR uni0916094D0928
ENCODING -1
SWIDTH 958 0
DWIDTH 13 0
BBX 14 9 0 0
BITMAP
FFFC
1010
1710
18F0
E910
4710
2010
2010
1010
ENDCHAR
STARTCHAR uni0917094D0928
ENCODING -1
SWIDTH 736 0
DWIDTH 10 0
BBX 11 9 0 0
BITMAP
FFE0
2080
2080
2780
2880
C880
0080
0080
0080
ENDCHAR
STARTCHAR uni0918094D0928
ENCODING -1
SWIDTH 814 0
DWIDTH 11 0
BBX 12 9 0 0
BITMAP
FFF0
4040
7040
43C0
4440
4440
3A40
0040
0040
ENDCHAR
STARTCHAR uni091A094D0928
ENCODING -1
SWIDTH 829 0
DWIDTH 12 0
BBX 12 9 0 0
BITMAP
FFF0
0040
F840
43C0
4440
4440
3A40
0040
0040
ENDCHAR
STARTCHAR uni091B094D0928
ENCODING -1
SWIDTH 977 0
DWIDTH 14 0
BBX 14 9 0 0
BITMAP
FFFC
4608
4208
72F0
4288
4288
4208
3C08
0008
ENDCHAR
STARTCHAR uni091C094D0928
ENCODING -1
SWIDTH 831 0
DWIDTH 12 0
BBX 12 9 0 0
BITMAP
FFF0
0020
0020
7FC0
1420
1220
1020
E020
0020
ENDCHAR
STARTCHAR uni091D094D0928
ENCODING -1
SWIDTH 935 0
DWIDTH 13 0
BBX 13 9 0 0
BITMAP
FFF8
3810
4010
41F0
3F10
4810
4810
7810
4010
ENDCHAR
STARTCHAR uni091F094D0928
ENCODING -1
SWIDTH 494 0
DWIDTH 7 0
BBX 7 13 0 -4
BITMAP
FE
04
04
38
40
44
44
38
04
78
44
44
04
ENDCHAR
STARTCHAR uni0920094D0928
ENCODING -1
SWIDTH 516 0
DWIDTH 7 0
BBX 7 13 0 -4
BITMAP
FE
04
04
38
44
44
44
38
04
78
44
44
04
ENDCHAR
STARTCHAR uni0921094D0928
ENCODING -1
SWIDTH 481 0
DWIDTH 7 0
BBX 7 13 0 -4
BITMAP
FE
04
38
40
40
38
04
44
78
04
78
44
04
ENDCHAR
STARTCHAR uni0924094D0928
ENCODING -1
SWIDTH 756 0
DWIDTH 11 0
BBX 11 9 0 0
BITMAP
FFE0
0080
3880
4780
4880
4480
4080
4080
3080
ENDCHAR
STARTCHAR uni0925094D0928
ENCODING -1
SWIDTH 855 0
DWIDTH 12 0
BBX 11 9 1 0
BITMAP
6FE0
9040
1040
E7C0
8440
8440
7C40
0040
0040
ENDCHAR
STARTCHAR uni0926094D0928
ENCODING -1
SWIDTH 955 0
DWIDTH 13 0
BBX 14 11 0 -2
BITMAP
FFFC
0410
3C10
40F0
4510
4410
3C10
0410
0410
0400
0200
ENDCHAR
STARTCHAR uni0927094D0928
ENCODING -1
SWIDTH 814 0
DWIDTH 11 0
BBX 12 9 0 0
BITMAP
F7F0
4040
7040
43C0
4440
4440
3A40
0040
0040
ENDCHAR
STARTCHAR uni0928094D0928
ENCODING -1
SWIDTH 738 0
DWIDTH 10 0
BBX 11 9 0 0
BITMAP
FFE0
0080
0080
7F80
8880
4880
0080
0080
0080
ENDCHAR
STARTCHAR uni092A094D0928
ENCODING -1
SWIDTH 782 0
DWIDTH 11 0
BBX 11 9 0 0
BITMAP
FFE0
4040
4040
47C0
4440
3C40
0040
0040
0040
ENDCHAR
STARTCHAR uni092B094D0928
ENCODING -1
SWIDTH 1013 0
DWIDTH 14 0
BBX 14 9 0 0
BITMAP
FFFC
4708
4488
4478
4488
3C88
0408
0408
0408
ENDCHAR
STARTCHAR uni092C094D0928
ENCODING -1
SWIDTH 810 0
DWIDTH 11 0
BBX 12 9 0 0
BITMAP
FFF0
3040
4040
63C0
5440
4840
3840
0040
0040
ENDCHAR
STARTCHAR uni092D094D0928
ENCODING -1
SWIDTH 757 0
DWIDTH 11 0
BBX 11 9 0 0
BITMAP
DFE0
4080
4080
7F80
4880
4080
0080
0080
0080
ENDCHAR
STARTCHAR uni092E094D0928
ENCODING -1
SWIDTH 757 0
DWIDTH 11 0
BBX 11 9 0 0
BITMAP
FFE0
4080
4080
7F80
4880
4080
0080
0080
0080
ENDCHAR
STARTCHAR uni092F094D0928
ENCODING -1
SWIDTH 829 0
DWIDTH 12 0
BBX 12 9 0 0
BITMAP
FFF0
1040
1040
63C0
4440
4440
3A40
0040
0040
ENDCHAR
STARTCHAR uni0935094D0928
ENCODING -1
SWIDTH 798 0
DWIDTH 11 0
BBX 11 9 0 0
BITMAP
FFE0
3040
4040
47C0
4440
4440
3840
0040
0040
ENDCHAR
STARTCHAR uni0936094D0928
ENCODING -1
SWIDTH 845 0
DWIDTH 12 0
BBX 11 9 1 0
BITMAP
E7E0
9040
1040
17C0
E440
8440
4040
4040
2040
ENDCHAR
STARTCHAR uni0938094D0928
ENCODING -1
SWIDTH 831 0
DWIDTH 12 0
BBX 12 9 0 0
BITMAP
FFF0
2020
2020
23C0
FC20
4220
4020
2020
1020
ENDCHAR
STARTCHAR uni0939094D0928
ENCODING -1
SWIDTH 500 0
DWIDTH 7 0
BBX 7 10 0 -1
BITMAP
FE
04
7C
40
3C
4C
54
54
40
3C
ENDCHAR
STARTCHAR uni0915094D0930
ENCODING -1
SWIDTH 725 0
DWIDTH 10 0
BBX 10 9 0 0
BITMAP
FFC0
3780
4480
4480
4480
4480
3F80
1400
2400
ENDCHAR
STARTCHAR uni0916094D0930
ENCODING -1
SWIDTH 698 0
DWIDTH 10 0
BBX 10 9 0 0
BITMAP
FFC0
1080
1680
1880
E880
4880
2700
2280
1480
ENDCHAR
STARTCHAR uni0917094D0930
ENCODING -1
SWIDTH 494 0
DWIDTH 7 0
BBX 7 9 0 0
BITMAP
FE
24
24
24
24
CC
14
24
44
ENDCHAR
STARTCHAR uni0918094D0930
ENCODING -1
SWIDTH 559 0
DWIDTH 8 0
BBX 8 9 0 0
BITMAP
FF
42
42
32
42
42
3E
12
22
ENDCHAR
STARTCHAR uni0919094D0930
ENCODING -1
SWIDTH 505 0
DWIDTH 7 0
BBX 7 11 0 -2
BITMAP
FE
04
78
42
78
04
04
44
38
28
4C
ENDCHAR
STARTCHAR uni091A094D0930
ENCODING -1
SWIDTH 563 0
DWIDTH 8 0
BBX 8 9 0 0
BITMAP
FF
02
FA
42
42
42
3E
0A
32
ENDCHAR
STARTCHAR uni091B094D0930
ENCODING -1
SWIDTH 581 0
DWIDTH 8 0
BBX 8 10 0 -1
BITMAP
FF
42
46
32
42
42
42
3E
18
24
ENDCHAR
STARTCHAR uni091C094D0930
ENCODING -1
SWIDTH 547 0
DWIDTH 8 0
BBX 8 9 0 0
BITMAP
FF
02
7C
12
12
14
E4
0A
12
ENDCHAR
STARTCHAR uni091D094D0930
ENCODING -1
SWIDTH 684 0
DWIDTH 10 0
BBX 10 9 0 0
BITMAP
FFC0
3900
4100
4100
3F00
4900
4900
7B00
4500
ENDCHAR
STARTCHAR uni091E094D0930
ENCODING -1
SWIDTH 598 0
DWIDTH 8 0
BBX 9 9 0 0
BITMAP
FF80
6200
1200
1200
1E00
1200
7600
0A00
1200
ENDCHAR
STARTCHAR uni091F094D0930
ENCODING -1
SWIDTH 485 0
DWIDTH 7 0
BBX 7 10 0 -1
BITMAP
FE
08
38
40
40
44
44
38
28
64
ENDCHAR
STARTCHAR uni0920094D0930
ENCODING -1
SWIDTH 512 0
DWIDTH 7 0
BBX 7 10 0 -1
BITMAP
FE
04
38
44
44
44
44
7C
28
64
ENDCHAR
STARTCHAR uni0921094D0930
ENCODING -1
SWIDTH 475 0
DWIDTH 7 0
BBX 7 10 0 -1
BITMAP
FE
04
78
40
78
04
44
44
38
6C
ENDCHAR
STARTCHAR uni0922094D0930
ENCODING -1
SWIDTH 485 0
DWIDTH 7 0
BBX 7 10 0 -1
BITMAP
FE
04
38
40
4C
54
44
3C
28
24
ENDCHAR
STARTCHAR uni0923094D0930
ENCODING -1
SWIDTH 681 0
DWIDTH 10 0
BBX 10 9 0 0
BITMAP
FFC0
4900
4900
4900
4900
3B00
0500
0500
0900
ENDCHAR
STARTCHAR uni0924094D0930
ENCODING -1
SWIDTH 493 0
DWIDTH 7 0
BBX 7 9 0 0
BITMAP
FE
04
3C
44
44
0C
14
24
44
ENDCHAR
STARTCHAR uni0925094D0930
ENCODING -1
SWIDTH 593 0
DWIDTH 8 0
BBX 8 9 1 0
BITMAP
67
94
14
E4
84
84
7C
14
64
ENDCHAR
STARTCHAR uni0926094D0930
ENCODING -1
SWIDTH 489 0
DWIDTH 7 0
BBX 7 9 0 0
BITMAP
FE
04
3C
40
44
44
3C
14
24
ENDCHAR
STARTCHAR uni0927094D0930
ENCODING -1
SWIDTH 560 0
DWIDTH 8 0
BBX 8 9 0 0
BITMAP
EF
42
42
32
42
42
3E
0A
32
ENDCHAR
STARTCHAR uni0928094D0930
ENCODING -1
SWIDTH 473 0
DWIDTH 7 0
BBX 7 9 0 0
BITMAP
FE
08
08
78
88
58
18
28
48
ENDCHAR
STARTCHAR uni092A094D0930
ENCODING -1
SWIDTH 503 0
DWIDTH 7 0
BBX 7 9 0 0
BITMAP
FE
44
44
44
44
3C
14
24
44
ENDCHAR
STARTCHAR uni092B094D0930
ENCODING -1
SWIDTH 741 0
DWIDTH 10 0
BBX 11 9 0 0
BITMAP
FFE0
4780
4440
4440
4440
3C40
1580
2400
4400
ENDCHAR
STARTCHAR uni092C094D0930
ENCODING -1
SWIDTH 491 0
DWIDTH 7 0
BBX 7 9 0 0
BITMAP
FE
34
44
64
54
4C
3C
14
24
ENDCHAR
STARTCHAR uni092D094D0930
ENCODING -1
SWIDTH 491 0
DWIDTH 7 0
BBX 7 9 0 0
BITMAP
DE
44
44
7C
4C
4C
14
24
44
ENDCHAR
STARTCHAR uni092E094D0930
ENCODING -1
SWIDTH 490 0
DWIDTH 7 0
BBX 7 9 0 0
BITMAP
FE
44
44
7C
4C
54
14
24
44
ENDCHAR
STARTCHAR uni092F094D0930
ENCODING -1
SWIDTH 564 0
DWIDTH 8 0
BBX 8 9 0 0
BITMAP
FF
12
12
62
42
42
3E
12
22
ENDCHAR
STARTCHAR uni0935094D0930
ENCODING -1
SWIDTH 484 0
DWIDTH 7 0
BBX 7 9 0 0
BITMAP
FE
34
44
44
44
44
38
14
24
ENDCHAR
STARTCHAR uni0936094D0930
ENCODING -1
SWIDTH 558 0
DWIDTH 8 0
BBX 8 9 0 0
BITMAP
73
4A
4A
52
32
CE
1A
22
02
ENDCHAR
STARTCHAR uni0938094D0930
ENCODING -1
SWIDTH 604 0
DWIDTH 8 0
BBX 9 9 0 0
BITMAP
FF80
2200
2200
2200
FE00
4600
4A00
2200
1200
ENDCHAR
STARTCHAR uni0939094D0930
ENCODING -1
SWIDTH 505 0
DWIDTH 7 0
BBX 7 10 0 -1
BITMAP
FE
04
7C
40
3C
4C
4C
54
40
3C
ENDCHAR
STARTCHAR uni0915093C094D0930
ENCODING -1
SWIDTH 725 0
DWIDTH 10 0
BBX 10 10 0 -1
BITMAP
FFC0
3780
4480
4480
4480
4480
3F80
1400
2400
1000
ENDCHAR
STARTCHAR uni0916093C094D0930
ENCODING -1
SWIDTH 698 0
DWIDTH 10 0
BBX 10 10 0 -1
BITMAP
FFC0
1080
1680
1880
E880
4880
2700
2280
1480
0200
ENDCHAR
STARTCHAR uni0917093C094D0930
ENCODING -1
SWIDTH 494 0
DWIDTH 7 0
BBX 7 10 0 -1
BITMAP
FE
24
24
24
24
CC
14
24
44
10
ENDCHAR
STARTCHAR uni091C093C094D0930
ENCODING -1
SWIDTH 547 0
DWIDTH 8 0
BBX 8 9 0 0
BITMAP
FF
02
7C
12
12
12
14
EA
92
ENDCHAR
STARTCHAR uni0921093C094D0930
ENCODING -1
SWIDTH 475 0
DWIDTH 7 0
BBX 7 10 0 -1
BITMAP
FE
04
78
40
78
04
44
44
38
EC
ENDCHAR
STARTCHAR uni0922093C094D0930
ENCODING -1
SWIDTH 485 0
DWIDTH 7 0
BBX 7 10 0 -1
BITMAP
FE
04
38
40
4C
54
44
3C
A8
24
ENDCHAR
STARTCHAR uni0928093C094D0930
ENCODING -1
SWIDTH 473 0
DWIDTH 7 0
BBX 7 10 0 -1
BITMAP
FE
08
08
78
88
58
18
28
48
20
ENDCHAR
STARTCHAR uni092B093C094D0930
ENCODING -1
SWIDTH 741 0
DWIDTH 10 0
BBX 11 10 0 -1
BITMAP
FFE0
4780
4440
4440
4440
3C40
1580
2400
4400
1000
ENDCHAR
STARTCHAR uni092F093C094D0930
ENCODING -1
SWIDTH 564 0
DWIDTH 8 0
BBX 8 10 0 -1
BITMAP
FF
12
12
62
42
42
3E
12
22
08
ENDCHAR
STARTCHAR uni0915094D0930094D
ENCODING -1
SWIDTH 518 0
DWIDTH 7 0
BBX 9 9 0 0
BITMAP
FF80
3780
4480
4400
4400
4400
3C00
1400
2400
ENDCHAR
STARTCHAR uni0916094D0930094D
ENCODING -1
SWIDTH 469 0
DWIDTH 7 0
BBX 8 9 0 0
BITMAP
FF
10
16
18
E8
49
26
22
14
ENDCHAR
STARTCHAR uni0917094D0930094D
ENCODING -1
SWIDTH 264 0
DWIDTH 4 0
BBX 5 9 0 0
BITMAP
F0
20
20
20
C8
10
10
20
40
ENDCHAR
STARTCHAR uni0918094D0930094D
ENCODING -1
SWIDTH 319 0
DWIDTH 4 0
BBX 6 10 0 -1
BITMAP
FC
40
40
30
40
40
44
38
10
20
ENDCHAR
STARTCHAR uni091A094D0930094D
ENCODING -1
SWIDTH 331 0
DWIDTH 5 0
BBX 6 10 0 -1
BITMAP
FC
00
00
F8
40
40
44
3C
18
20
ENDCHAR
STARTCHAR uni091C094D0930094D
ENCODING -1
SWIDTH 312 0
DWIDTH 4 0
BBX 6 10 0 -1
BITMAP
FC
00
00
7C
10
10
14
E4
08
10
ENDCHAR
STARTCHAR uni091D094D0930094D
ENCODING -1
SWIDTH 441 0
DWIDTH 6 0
BBX 8 9 0 0
BITMAP
FF
38
40
40
3F
49
49
7A
44
ENDCHAR
STARTCHAR uni091E094D0930094D
ENCODING -1
SWIDTH 374 0
DWIDTH 5 0
BBX 7 9 0 0
BITMAP
FE
60
10
10
1E
12
74
08
10
ENDCHAR
STARTCHAR uni091F094D0930094D
ENCODING -1
SWIDTH 485 0
DWIDTH 7 0
BBX 7 13 0 -4
BITMAP
FE
08
08
38
40
40
44
7C
28
28
54
08
08
ENDCHAR
STARTCHAR uni0920094D0930094D
ENCODING -1
SWIDTH 512 0
DWIDTH 7 0
BBX 7 13 0 -4
BITMAP
FE
04
04
38
44
44
44
7C
28
28
54
08
08
ENDCHAR
STARTCHAR uni0921094D0930094D
ENCODING -1
SWIDTH 475 0
DWIDTH 7 0
BBX 7 13 0 -4
BITMAP
FE
04
78
40
78
04
04
44
38
28
44
10
08
ENDCHAR
STARTCHAR uni0922094D0930094D
ENCODING -1
SWIDTH 485 0
DWIDTH 7 0
BBX 7 12 0 -3
BITMAP
FE
04
38
40
4C
54
44
3C
28
24
10
08
ENDCHAR
STARTCHAR uni0923094D0930094D
ENCODING -1
SWIDTH 457 0
DWIDTH 6 0
BBX 8 9 0 0
BITMAP
FE
48
48
48
49
3A
02
04
08
ENDCHAR
STARTCHAR uni0924094D0930094D
ENCODING -1
SWIDTH 268 0
DWIDTH 4 0
BBX 6 9 0 0
BITMAP
FC
00
38
44
44
08
10
20
40
ENDCHAR
STARTCHAR uni0925094D0930094D
ENCODING -1
SWIDTH 358 0
DWIDTH 5 0
BBX 6 10 1 -1
BITMAP
60
90
90
10
E0
80
84
78
30
40
ENDCHAR
STARTCHAR uni0926094D0930094D
ENCODING -1
SWIDTH 489 0
DWIDTH 7 0
BBX 7 11 0 -2
BITMAP
FE
04
3C
40
44
44
3C
14
24
08
04
ENDCHAR
STARTCHAR uni0927094D0930094D
ENCODING -1
SWIDTH 322 0
DWIDTH 5 0
BBX 6 10 0 -1
BITMAP
EC
40
40
30
40
40
44
3C
10
20
ENDCHAR
STARTCHAR uni0928094D0930094D
ENCODING -1
SWIDTH 247 0
DWIDTH 3 0
BBX 5 9 0 0
BITMAP
F8
00
00
78
88
48
10
20
40
ENDCHAR
STARTCHAR uni092A094D0930094D
ENCODING -1
SWIDTH 270 0
DWIDTH 4 0
BBX 6 9 0 0
BITMAP
F8
40
40
40
44
38
10
20
40
ENDCHAR
STARTCHAR uni092B094D0930094D
ENCODING -1
SWIDTH 523 0
DWIDTH 7 0
BBX 9 9 0 0
BITMAP
FF80
4780
4480
4400
4400
3C00
1400
2400
4400
ENDCHAR
STARTCHAR uni092C094D0930094D
ENCODING -1
SWIDTH 267 0
DWIDTH 4 0
BBX 6 10 0 -1
BITMAP
F8
00
30
40
60
54
48
38
10
20
ENDCHAR
STARTCHAR uni092D094D0930094D
ENCODING -1
SWIDTH 257 0
DWIDTH 4 0
BBX 5 9 0 0
BITMAP
D8
40
40
78
48
50
10
20
40
ENDCHAR
STARTCHAR uni092E094D0930094D
ENCODING -1
SWIDTH 261 0
DWIDTH 4 0
BBX 5 9 0 0
BITMAP
F8
40
40
78
48
50
10
20
40
ENDCHAR
STARTCHAR uni092F094D0930094D
ENCODING -1
SWIDTH 323 0
DWIDTH 5 0
BBX 6 10 0 -1
BITMAP
F8
10
10
60
40
40
44
38
10
20
ENDCHAR
STARTCHAR uni0935094D0930094D
ENCODING -1
SWIDTH 255 0
DWIDTH 4 0
BBX 5 10 0 -1
BITMAP
F8
00
30
40
40
40
48
38
10
20
ENDCHAR
STARTCHAR uni0938094D0930094D
ENCODING -1
SWIDTH 347 0
DWIDTH 5 0
BBX 7 9 0 0
BITMAP
FC
20
20
20
FE
44
48
20
10
ENDCHAR
STARTCHAR uni0915093C094D0930094D
ENCODING -1
SWIDTH 518 0
DWIDTH 7 0
BBX 9 10 0 -1
BITMAP
FF80
3780
4480
4400
4400
4400
3C00
1400
2400
1000
ENDCHAR
STARTCHAR uni0916093C094D0930094D
ENCODING -1
SWIDTH 466 0
DWIDTH 7 0
BBX 8 10 0 -1
BITMAP
FF
10
16
18
E8
49
27
22
14
02
ENDCHAR
STARTCHAR uni0917093C094D0930094D
ENCODING -1
SWIDTH 264 0
DWIDTH 4 0
BBX 5 10 0 -1
BITMAP
F0
20
20
20
C8
10
10
20
40
10
ENDCHAR
STARTCHAR uni091C093C094D0930094D
ENCODING -1
SWIDTH 320 0
DWIDTH 4 0
BBX 6 10 0 -1
BITMAP
FC
00
00
7C
10
10
14
E8
10
80
ENDCHAR
STARTCHAR uni0928093C094D0930094D
ENCODING -1
SWIDTH 247 0
DWIDTH 3 0
BBX 5 10 0 -1
BITMAP
F8
00
00
78
88
48
10
20
40
20
ENDCHAR
STARTCHAR uni092B093C094D0930094D
ENCODING -1
SWIDTH 523 0
DWIDTH 7 0
BBX 9 10 0 -1
BITMAP
FF80
4780
4480
4400
4400
3C00
1400
2400
4400
2000
ENDCHAR
STARTCHAR uni092F093C094D0930094D
ENCODING -1
SWIDTH 323 0
DWIDTH 5 0
BBX 6 11 0 -2
BITMAP
F8
10
10
60
40
40
44
38
10
20
08
ENDCHAR
STARTCHAR uni0915094D0915
ENCODING -1
SWIDTH 1255 0
DWIDTH 18 0
BBX 18 9 0 0
BITMAP
FFFFC0
376F00
448880
448880
448880
448880
3C7B00
040800
040800
ENDCHAR
STARTCHAR uni0915094D0916
ENCODING -1
SWIDTH 1256 0
DWIDTH 18 0
BBX 18 9 0 0
BITMAP
FFFFC0
371100
449700
449900
44E900
444900
3C4700
042100
041100
ENDCHAR
STARTCHAR uni0915094D091A
ENCODING -1
SWIDTH 1086 0
DWIDTH 15 0
BBX 15 9 0 0
BITMAP
FFFE
3704
44F4
4444
4444
4444
3C3C
0404
0404
ENDCHAR
STARTCHAR uni0915094D091C
ENCODING -1
SWIDTH 1071 0
DWIDTH 15 0
BBX 15 9 0 0
BITMAP
FFFE
3404
477C
4424
4424
4424
3C24
04E4
0404
ENDCHAR
STARTCHAR uni0915094D091F
ENCODING -1
SWIDTH 984 0
DWIDTH 14 0
BBX 14 9 0 0
BITMAP
FFFC
3710
44F0
4480
4480
4488
3C88
0470
0400
ENDCHAR
STARTCHAR uni0915094D0923
ENCODING -1
SWIDTH 1183 0
DWIDTH 17 0
BBX 17 9 0 0
BITMAP
FFFF80
349200
479200
449200
449200
447200
3C0200
040200
040200
ENDCHAR
STARTCHAR uni0915094D0924
ENCODING -1
SWIDTH 761 0
DWIDTH 11 0
BBX 11 9 0 0
BITMAP
FFE0
0400
7F80
2440
4440
4440
2440
3580
0400
ENDCHAR
STARTCHAR uni0915094D0925
ENCODING -1
SWIDTH 1118 0
DWIDTH 16 0
BBX 16 9 0 0
BITMAP
FF73
3412
4412
47E2
4482
4484
3C7A
0402
0402
ENDCHAR
STARTCHAR uni0915094D0926
ENCODING -1
SWIDTH 1009 0
DWIDTH 14 0
BBX 14 9 0 0
BITMAP
FFFC
3708
44F8
4480
4488
4488
3C78
0408
0408
ENDCHAR
STARTCHAR uni0915094D092A
ENCODING -1
SWIDTH 1007 0
DWIDTH 14 0
BBX 14 9 0 0
BITMAP
FFFC
3488
4788
4488
4488
4478
3C08
0408
0408
ENDCHAR
STARTCHAR uni0915094D092B
ENCODING -1
SWIDTH 1242 0
DWIDTH 17 0
BBX 18 9 0 0
BITMAP
FFFFC0
348F00
478880
448880
448880
447880
3C0B00
040800
040800
ENDCHAR
STARTCHAR uni0915094D092E
ENCODING -1
SWIDTH 994 0
DWIDTH 14 0
BBX 14 9 0 0
BITMAP
FFFC
3488
4788
44F8
4488
4488
3C08
0408
0408
ENDCHAR
STARTCHAR uni0915094D092F
ENCODING -1
SWIDTH 1076 0
DWIDTH 15 0
BBX 15 9 0 0
BITMAP
FFFE
3424
47E4
4484
4484
4484
3C7C
0404
0404
ENDCHAR
STARTCHAR uni0915094D0932
ENCODING -1
SWIDTH 1178 0
DWIDTH 16 0
BBX 17 9 0 0
BITMAP
FFFF80
370200
44EE00
449200
449200
448200
3C8200
046200
040200
ENDCHAR
STARTCHAR uni0915094D0935
ENCODING -1
SWIDTH 1013 0
DWIDTH 14 0
BBX 14 9 0 0
BITMAP
FFFC
3768
4488
4488
4488
4488
3C78
0408
0408
ENDCHAR
STARTCHAR uni0915094D0936
ENCODING -1
SWIDTH 1194 0
DWIDTH 17 0
BBX 17 9 0 0
BITMAP
FF3180
344900
470900
448900
447100
444100
3C2100
042100
041100
ENDCHAR
STARTCHAR uni0915094D0938
ENCODING -1
SWIDTH 1143 0
DWIDTH 16 0
BBX 16 9 0 0
BITMAP
FFFF
3722
44A2
44A2
44FE
4442
3C42
0422
0412
ENDCHAR
STARTCHAR uni0916094D0916
ENCODING -1
SWIDTH 1223 0
DWIDTH 17 0
BBX 17 9 0 0
BITMAP
FFFF80
102100
162500
182900
E8C900
488900
274700
202100
102100
ENDCHAR
STARTCHAR uni0916094D0924
ENCODING -1
SWIDTH 984 0
DWIDTH 14 0
BBX 14 9 0 0
BITMAP
FFFC
1008
16F8
1888
E888
4888
2708
2088
1048
ENDCHAR
STARTCHAR uni0916094D092E
ENCODING -1
SWIDTH 965 0
DWIDTH 14 0
BBX 14 9 0 0
BITMAP
FFFC
1090
1690
18F0
E890
4890
2710
2010
1010
ENDCHAR
STARTCHAR uni0916094D092F
ENCODING -1
SWIDTH 1047 0
DWIDTH 15 0
BBX 15 9 0 0
BITMAP
FFFE
1024
1624
18C4
E884
4888
27F4
2004
1004
ENDCHAR
STARTCHAR uni0916094D0935
ENCODING -1
SWIDTH 975 0
DWIDTH 14 0
BBX 14 9 0 0
BITMAP
FFFC
1068
1688
1888
E888
4890
27E8
2008
1008
ENDCHAR
STARTCHAR uni0916094D0936
ENCODING -1
SWIDTH 1123 0
DWIDTH 16 0
BBX 16 9 0 0
BITMAP
FE63
1092
1692
1812
E9E2
4882
2782
2042
1022
ENDCHAR
STARTCHAR uni0917094D0917
ENCODING -1
SWIDTH 744 0
DWIDTH 10 0
BBX 11 9 0 0
BITMAP
FFE0
2480
2480
2480
2480
C880
0080
0080
0080
ENDCHAR
STARTCHAR uni0917094D0918
ENCODING -1
SWIDTH 823 0
DWIDTH 12 0
BBX 12 9 0 0
BITMAP
FFF0
2440
2440
2340
2440
C440
0440
07C0
0040
ENDCHAR
STARTCHAR uni0917094D091C
ENCODING -1
SWIDTH 801 0
DWIDTH 11 0
BBX 11 9 0 0
BITMAP
FFE0
2040
27C0
2240
2140
C140
0240
0E40
0040
ENDCHAR
STARTCHAR uni0917094D0923
ENCODING -1
SWIDTH 945 0
DWIDTH 13 0
BBX 13 9 0 0
BITMAP
FFF8
2490
2490
2490
2490
C710
0010
0010
0010
ENDCHAR
STARTCHAR uni0917094D0926
ENCODING -1
SWIDTH 748 0
DWIDTH 10 0
BBX 11 9 0 0
BITMAP
FFE0
2080
2780
2800
2840
C840
0780
0040
0040
ENDCHAR
STARTCHAR uni0917094D0927
ENCODING -1
SWIDTH 823 0
DWIDTH 12 0
BBX 12 9 0 0
BITMAP
FEF0
2440
2440
2340
2440
C440
0440
07C0
0040
ENDCHAR
STARTCHAR uni0917094D092C
ENCODING -1
SWIDTH 755 0
DWIDTH 11 0
BBX 11 9 0 0
BITMAP
FFE0
2780
2480
2A80
2980
C480
0780
0080
0080
ENDCHAR
STARTCHAR uni0917094D092D
ENCODING -1
SWIDTH 755 0
DWIDTH 11 0
BBX 11 9 0 0
BITMAP
F9E0
2480
2480
2780
2480
C480
0080
0080
0080
ENDCHAR
STARTCHAR uni0917094D092E
ENCODING -1
SWIDTH 754 0
DWIDTH 11 0
BBX 11 9 0 0
BITMAP
FFE0
2480
2480
2780
2480
C480
0080
0080
0080
ENDCHAR
STARTCHAR uni0917094D092F
ENCODING -1
SWIDTH 828 0
DWIDTH 12 0
BBX 12 9 0 0
BITMAP
FFF0
2140
2140
2640
2840
C440
07C0
0040
0040
ENDCHAR
STARTCHAR uni0917094D0932
ENCODING -1
SWIDTH 924 0
DWIDTH 13 0
BBX 13 9 0 0
BITMAP
FFF8
2010
2770
2890
2890
C890
0810
0610
0010
ENDCHAR
STARTCHAR uni0917094D0935
ENCODING -1
SWIDTH 747 0
DWIDTH 10 0
BBX 11 9 0 0
BITMAP
FFE0
2680
2480
2880
2880
C480
0780
0080
0080
ENDCHAR
STARTCHAR uni0917094D0938
ENCODING -1
SWIDTH 839 0
DWIDTH 12 0
BBX 12 9 0 0
BITMAP
FFF0
2220
2220
2220
2FC0
C820
0420
0220
0220
ENDCHAR
STARTCHAR uni0918094D092E
ENCODING -1
SWIDTH 818 0
DWIDTH 11 0
BBX 12 9 0 0
BITMAP
FFF0
4240
4240
73C0
4240
4240
4440
3C40
0040
ENDCHAR
STARTCHAR uni0918094D092F
ENCODING -1
SWIDTH 867 0
DWIDTH 12 0
BBX 12 9 0 0
BITMAP
FFF0
4120
4120
3620
4420
4420
47E0
3820
0020
ENDCHAR
STARTCHAR uni091A094D091A
ENCODING -1
SWIDTH 868 0
DWIDTH 12 0
BBX 12 9 0 0
BITMAP
FFF0
0020
F7A0
4220
4220
4220
3DE0
0020
0020
ENDCHAR
STARTCHAR uni091A094D091B
ENCODING -1
SWIDTH 922 0
DWIDTH 13 0
BBX 13 8 0 1
BITMAP
FFF8
0210
FA60
4110
4210
4210
3E10
03E0
ENDCHAR
STARTCHAR uni091A094D092E
ENCODING -1
SWIDTH 830 0
DWIDTH 12 0
BBX 12 9 0 0
BITMAP
FFF0
0240
FA40
43C0
4240
4240
3C40
0040
0040
ENDCHAR
STARTCHAR uni091A094D092F
ENCODING -1
SWIDTH 904 0
DWIDTH 13 0
BBX 13 9 0 0
BITMAP
FFF8
0090
F890
4310
4210
4220
3DD0
0010
0010
ENDCHAR
STARTCHAR uni091B094D092F
ENCODING -1
SWIDTH 1068 0
DWIDTH 15 0
BBX 15 9 0 0
BITMAP
FFFE
47E4
4224
3224
42E4
4284
427C
3C04
0004
ENDCHAR
STARTCHAR uni091B094D0935
ENCODING -1
SWIDTH 581 0
DWIDTH 8 0
BBX 8 11 0 -2
BITMAP
FF
42
46
32
42
42
42
3E
42
42
3C
ENDCHAR
STARTCHAR uni091C094D0915
ENCODING -1
SWIDTH 1054 0
DWIDTH 15 0
BBX 15 9 0 0
BITMAP
FFFE
0378
7C44
1444
1444
1444
13D8
E040
0040
ENDCHAR
STARTCHAR uni091C094D091C
ENCODING -1
SWIDTH 903 0
DWIDTH 13 0
BBX 13 9 0 0
BITMAP
FFF8
0010
7BE0
1090
1090
1090
1090
E710
0010
ENDCHAR
STARTCHAR uni091C094D091D
ENCODING -1
SWIDTH 990 0
DWIDTH 14 0
BBX 14 9 0 0
BITMAP
FFFC
0388
7C08
1408
13F8
1048
1448
E3C8
0408
ENDCHAR
STARTCHAR uni091C094D091F
ENCODING -1
SWIDTH 815 0
DWIDTH 11 0
BBX 12 8 0 1
BITMAP
FFF0
0040
7FC0
1400
1400
1420
1420
E3C0
ENDCHAR
STARTCHAR uni091C094D0921
ENCODING -1
SWIDTH 797 0
DWIDTH 11 0
BBX 11 9 0 0
BITMAP
FFE0
0040
7FC0
1400
13C0
1040
1040
E440
0380
ENDCHAR
STARTCHAR uni091C094D0924
ENCODING -1
SWIDTH 830 0
DWIDTH 12 0
BBX 12 9 0 0
BITMAP
FFF0
0040
7FC0
1240
1440
1440
1440
E240
0140
ENDCHAR
STARTCHAR uni091C094D0926
ENCODING -1
SWIDTH 817 0
DWIDTH 11 0
BBX 12 9 0 0
BITMAP
FFF0
0040
7FC0
1400
1420
1420
13C0
E020
0020
ENDCHAR
STARTCHAR uni091C094D092C
ENCODING -1
SWIDTH 820 0
DWIDTH 11 0
BBX 12 9 0 0
BITMAP
FFF0
0340
7E40
1540
14C0
1440
13C0
E040
0040
ENDCHAR
STARTCHAR uni091C094D092E
ENCODING -1
SWIDTH 813 0
DWIDTH 11 0
BBX 12 9 0 0
BITMAP
FFF0
0440
7C40
13C0
1440
1440
1040
E040
0040
ENDCHAR
STARTCHAR uni091C094D092F
ENCODING -1
SWIDTH 893 0
DWIDTH 13 0
BBX 13 9 0 0
BITMAP
FFF8
0120
7D20
1320
1420
1220
13E0
E020
0020
ENDCHAR
STARTCHAR uni091C094D0935
ENCODING -1
SWIDTH 813 0
DWIDTH 11 0
BBX 12 9 0 0
BITMAP
FFF0
0340
7C40
1440
1440
1440
13C0
E040
0040
ENDCHAR
STARTCHAR uni091D094D092E
ENCODING -1
SWIDTH 936 0
DWIDTH 13 0
BBX 13 9 0 0
BITMAP
FFF8
3910
4110
41F0
3F10
4910
4810
7810
4010
ENDCHAR
STARTCHAR uni091D094D092F
ENCODING -1
SWIDTH 1000 0
DWIDTH 14 0
BBX 14 9 0 0
BITMAP
FFFC
3848
4048
4188
3F08
4908
48F8
7808
4008
ENDCHAR
STARTCHAR uni091E094D091B
ENCODING -1
SWIDTH 913 0
DWIDTH 13 0
BBX 13 8 0 1
BITMAP
FFF8
6210
1260
1310
1E10
1210
6210
03E0
ENDCHAR
STARTCHAR uni091E094D091C
ENCODING -1
SWIDTH 932 0
DWIDTH 13 0
BBX 13 9 0 0
BITMAP
FFF8
0010
63F0
1090
1C90
1090
6090
0390
0010
ENDCHAR
STARTCHAR uni091E094D0936
ENCODING -1
SWIDTH 975 0
DWIDTH 14 0
BBX 14 9 0 0
BITMAP
FB8C
6248
1048
1048
1F88
1208
7108
0108
0088
ENDCHAR
STARTCHAR uni091F094D091F
ENCODING -1
SWIDTH 494 0
DWIDTH 7 0
BBX 7 13 0 -4
BITMAP
FE
08
38
40
40
44
38
08
78
40
44
44
38
ENDCHAR
STARTCHAR uni091F094D0920
ENCODING -1
SWIDTH 495 0
DWIDTH 7 0
BBX 7 13 0 -4
BITMAP
FE
08
38
40
40
44
38
08
7C
44
44
44
38
ENDCHAR
STARTCHAR uni091F094D092F
ENCODING -1
SWIDTH 990 0
DWIDTH 14 0
BBX 14 9 0 0
BITMAP
FFFC
0808
3FC8
4048
4048
41C8
4508
3CF8
0008
ENDCHAR
STARTCHAR uni091F094D0935
ENCODING -1
SWIDTH 501 0
DWIDTH 7 0
BBX 7 11 0 -2
BITMAP
FE
04
38
40
40
44
44
3C
44
44
38
ENDCHAR
STARTCHAR uni0920094D092F
ENCODING -1
SWIDTH 998 0
DWIDTH 14 0
BBX 14 9 0 0
BITMAP
FFFC
0408
3BC8
4448
4448
45C8
4508
3CF8
0008
ENDCHAR
STARTCHAR uni0921094D0921
ENCODING -1
SWIDTH 493 0
DWIDTH 7 0
BBX 7 14 0 -5
BITMAP
FE
04
78
40
78
04
44
38
40
40
38
04
44
78
ENDCHAR
STARTCHAR uni0921094D0922
ENCODING -1
SWIDTH 493 0
DWIDTH 7 0
BBX 7 13 0 -4
BITMAP
FE
04
04
78
40
7C
04
74
4C
54
54
44
3C
ENDCHAR
STARTCHAR uni0921094D092F
ENCODING -1
SWIDTH 973 0
DWIDTH 14 0
BBX 14 9 0 0
BITMAP
FFFC
0410
7F90
4050
7990
0510
0510
44F0
3810
ENDCHAR
STARTCHAR uni0921094D0935
ENCODING -1
SWIDTH 493 0
DWIDTH 7 0
BBX 7 11 0 -2
BITMAP
FE
04
78
40
78
04
44
7C
44
44
38
ENDCHAR
STARTCHAR uni0922094D092F
ENCODING -1
SWIDTH 981 0
DWIDTH 14 0
BBX 14 9 0 0
BITMAP
FFFC
0408
3F88
4048
4C48
5588
5508
3CF8
0008
ENDCHAR
STARTCHAR uni0923094D091F
ENCODING -1
SWIDTH 908 0
DWIDTH 13 0
BBX 13 8 0 1
BITMAP
FFF8
4820
48E0
4900
4900
3910
0110
01E0
ENDCHAR
STARTCHAR uni0923094D0920
ENCODING -1
SWIDTH 936 0
DWIDTH 13 0
BBX 13 8 0 1
BITMAP
FFF8
4810
48E0
4910
4910
3910
0110
01E0
ENDCHAR
STARTCHAR uni0923094D0921
ENCODING -1
SWIDTH 892 0
DWIDTH 12 0
BBX 13 9 0 0
BITMAP
FFF8
4820
49E0
4900
49E0
3810
0110
0110
00E0
ENDCHAR
STARTCHAR uni0923094D0922
ENCODING -1
SWIDTH 908 0
DWIDTH 13 0
BBX 13 8 0 1
BITMAP
FFF8
4820
48E0
4900
4930
3950
0110
01F0
ENDCHAR
STARTCHAR uni0923094D0923
ENCODING -1
SWIDTH 1127 0
DWIDTH 16 0
BBX 16 9 0 0
BITMAP
FFFF
4912
4912
4912
4912
38E2
0002
0002
0002
ENDCHAR
STARTCHAR uni0923094D092E
ENCODING -1
SWIDTH 932 0
DWIDTH 13 0
BBX 13 9 0 0
BITMAP
FFF8
4910
4910
49F0
4910
3910
0010
0010
0010
ENDCHAR
STARTCHAR uni0923094D092F
ENCODING -1
SWIDTH 998 0
DWIDTH 14 0
BBX 14 9 0 0
BITMAP
FFFC
4848
4848
4988
4908
3908
00F8
0008
0008
ENDCHAR
STARTCHAR uni0923094D0935
ENCODING -1
SWIDTH 923 0
DWIDTH 13 0
BBX 13 9 0 0
BITMAP
FFF8
48D0
4910
4910
4910
3910
00F0
0010
0010
ENDCHAR
STARTCHAR uni0924094D0915
ENCODING -1
SWIDTH 992 0
DWIDTH 14 0
BBX 14 9 0 0
BITMAP
FFFC
06F0
3888
4888
4888
4488
47B0
4080
3080
ENDCHAR
STARTCHAR uni0924094D0916
ENCODING -1
SWIDTH 1014 0
DWIDTH 14 0
BBX 14 9 0 0
BITMAP
FFFC
0108
3928
4548
4648
4448
4238
4108
2108
ENDCHAR
STARTCHAR uni0924094D0924
ENCODING -1
SWIDTH 542 0
DWIDTH 8 0
BBX 8 9 0 0
BITMAP
FF
04
FC
24
44
44
44
24
14
ENDCHAR
STARTCHAR uni0924094D0925
ENCODING -1
SWIDTH 869 0
DWIDTH 12 0
BBX 12 9 0 0
BITMAP
F730
04A0
00A0
3F20
4420
4420
43E0
4020
2020
ENDCHAR
STARTCHAR uni0924094D092A
ENCODING -1
SWIDTH 757 0
DWIDTH 11 0
BBX 11 9 0 0
BITMAP
FFE0
0480
3880
4480
4480
4780
4080
4080
2080
ENDCHAR
STARTCHAR uni0924094D092B
ENCODING -1
SWIDTH 992 0
DWIDTH 14 0
BBX 14 9 0 0
BITMAP
FFFC
04F0
3888
4488
4488
4788
40B0
4080
2080
ENDCHAR
STARTCHAR uni0924094D092E
ENCODING -1
SWIDTH 764 0
DWIDTH 11 0
BBX 11 9 0 0
BITMAP
FFE0
0440
3C40
4780
4440
4440
4040
4040
3040
ENDCHAR
STARTCHAR uni0924094D092F
ENCODING -1
SWIDTH 830 0
DWIDTH 12 0
BBX 12 9 0 0
BITMAP
FFF0
0140
0140
3E40
4440
4440
43C0
4040
2040
ENDCHAR
STARTCHAR uni0924094D0932
ENCODING -1
SWIDTH 957 0
DWIDTH 13 0
BBX 14 9 0 0
BITMAP
FFFC
0010
3B70
4490
4490
4490
4410
4710
2010
ENDCHAR
STARTCHAR uni0924094D0935
ENCODING -1
SWIDTH 751 0
DWIDTH 11 0
BBX 11 9 0 0
BITMAP
FFE0
0780
3880
4880
4880
4480
4780
4080
3080
ENDCHAR
STARTCHAR uni0924094D0938
ENCODING -1
SWIDTH 876 0
DWIDTH 12 0
BBX 12 9 0 0
BITMAP
FFF0
0120
3920
4920
47E0
4420
4220
4220
2120
ENDCHAR
STARTCHAR uni0925094D092F
ENCODING -1
SWIDTH 931 0
DWIDTH 13 0
BBX 12 9 1 0
BITMAP
67F0
9120
1120
E620
8420
8420
7BE0
0020
0020
ENDCHAR
STARTCHAR uni0925094D0935
ENCODING -1
SWIDTH 862 0
DWIDTH 12 0
BBX 11 9 1 0
BITMAP
E7E0
9340
1440
E440
8440
8440
7BC0
0040
0040
ENDCHAR
STARTCHAR uni0926094D0917
ENCODING -1
SWIDTH 489 0
DWIDTH 7 0
BBX 7 10 0 -1
BITMAP
FE
3C
40
40
44
44
3C
24
24
60
ENDCHAR
STARTCHAR uni0926094D0918
ENCODING -1
SWIDTH 686 0
DWIDTH 10 0
BBX 10 9 0 0
BITMAP
FFC0
0080
0F00
7000
4880
6880
4F80
4880
7880
ENDCHAR
STARTCHAR uni0926094D0926
ENCODING -1
SWIDTH 506 0
DWIDTH 7 0
BBX 7 9 0 0
BITMAP
FE
3C
40
40
30
44
44
7C
04
ENDCHAR
STARTCHAR uni0926094D0927
ENCODING -1
SWIDTH 686 0
DWIDTH 10 0
BBX 10 9 0 0
BITMAP
FFC0
0080
0F00
6800
4880
6880
4F80
4880
7880
ENDCHAR
STARTCHAR uni0926094D092C
ENCODING -1
SWIDTH 481 0
DWIDTH 7 0
BBX 7 11 0 -2
BITMAP
FE
04
3C
40
40
44
44
3C
54
4C
38
ENDCHAR
STARTCHAR uni0926094D092D
ENCODING -1
SWIDTH 499 0
DWIDTH 7 0
BBX 7 12 0 -3
BITMAP
FE
04
3C
40
44
44
3C
44
24
3C
24
04
ENDCHAR
STARTCHAR uni0926094D092E
ENCODING -1
SWIDTH 706 0
DWIDTH 10 0
BBX 10 9 0 0
BITMAP
FFC0
3880
4080
4080
4880
3880
0780
0880
0080
ENDCHAR
STARTCHAR uni0926094D092F
ENCODING -1
SWIDTH 583 0
DWIDTH 8 0
BBX 8 9 0 0
BITMAP
FF
32
42
42
32
42
42
7E
02
ENDCHAR
STARTCHAR uni0926094D0935
ENCODING -1
SWIDTH 483 0
DWIDTH 7 0
BBX 7 11 0 -2
BITMAP
FE
04
3C
40
40
44
44
3C
44
44
38
ENDCHAR
STARTCHAR uni0927094D092E
ENCODING -1
SWIDTH 817 0
DWIDTH 11 0
BBX 12 9 0 0
BITMAP
E7F0
4240
4240
73C0
4240
4240
4440
3C40
0040
ENDCHAR
STARTCHAR uni0927094D092F
ENCODING -1
SWIDTH 886 0
DWIDTH 12 0
BBX 13 9 0 0
BITMAP
E7F8
4120
4120
3720
4420
4420
47E0
3820
0020
ENDCHAR
STARTCHAR uni0927094D0935
ENCODING -1
SWIDTH 810 0
DWIDTH 11 0
BBX 12 9 0 0
BITMAP
E7F0
4340
4440
3440
4440
4440
47C0
3840
0040
ENDCHAR
STARTCHAR uni0928094D0915
ENCODING -1
SWIDTH 973 0
DWIDTH 14 0
BBX 14 9 0 0
BITMAP
FFFC
06F0
0888
7888
8888
0888
07B0
0080
0080
ENDCHAR
STARTCHAR uni0928094D091A
ENCODING -1
SWIDTH 820 0
DWIDTH 11 0
BBX 12 9 0 0
BITMAP
FFF0
0040
0F40
0440
7440
8440
03C0
0040
0040
ENDCHAR
STARTCHAR uni0928094D091B
ENCODING -1
SWIDTH 781 0
DWIDTH 11 0
BBX 11 8 0 1
BITMAP
FFE0
0840
0980
7C40
8840
4840
0840
0F80
ENDCHAR
STARTCHAR uni0928094D091F
ENCODING -1
SWIDTH 715 0
DWIDTH 10 0
BBX 10 8 0 1
BITMAP
FFC0
0080
0780
7800
8800
4880
0880
0780
ENDCHAR
STARTCHAR uni0928094D0921
ENCODING -1
SWIDTH 705 0
DWIDTH 10 0
BBX 10 9 0 0
BITMAP
FFC0
0080
0780
7800
8700
0080
0880
0880
0700
ENDCHAR
STARTCHAR uni0928094D0924
ENCODING -1
SWIDTH 717 0
DWIDTH 10 0
BBX 10 9 0 0
BITMAP
FFC0
0080
0780
7880
8880
4880
0880
0880
0680
ENDCHAR
STARTCHAR uni0928094D0925
ENCODING -1
SWIDTH 804 0
DWIDTH 11 0
BBX 11 9 0 0
BITMAP
EE60
0940
0140
7E40
8840
4840
07C0
0040
0040
ENDCHAR
STARTCHAR uni0928094D0926
ENCODING -1
SWIDTH 724 0
DWIDTH 10 0
BBX 10 9 0 0
BITMAP
FFC0
0080
0780
7800
8880
0880
0780
0080
0080
ENDCHAR
STARTCHAR uni0928094D0927
ENCODING -1
SWIDTH 753 0
DWIDTH 11 0
BBX 11 9 0 0
BITMAP
FDE0
0880
0880
7E80
8880
8880
0880
0F80
0080
ENDCHAR
STARTCHAR uni0928094D092A
ENCODING -1
SWIDTH 742 0
DWIDTH 10 0
BBX 11 9 0 0
BITMAP
FFE0
0880
0880
7880
8880
4780
0080
0080
0080
ENDCHAR
STARTCHAR uni0928094D092B
ENCODING -1
SWIDTH 970 0
DWIDTH 14 0
BBX 14 9 0 0
BITMAP
FFFC
08F0
0888
7888
8888
4788
00B0
0080
0080
ENDCHAR
STARTCHAR uni0928094D092D
ENCODING -1
SWIDTH 739 0
DWIDTH 10 0
BBX 11 9 0 0
BITMAP
F9E0
0880
0880
7F80
8880
4880
0080
0080
0080
ENDCHAR
STARTCHAR uni0928094D092E
ENCODING -1
SWIDTH 735 0
DWIDTH 10 0
BBX 10 9 0 0
BITMAP
FFC0
0880
0880
7F80
8880
4880
0080
0080
0080
ENDCHAR
STARTCHAR uni0928094D092F
ENCODING -1
SWIDTH 801 0
DWIDTH 11 0
BBX 11 9 0 0
BITMAP
FFE0
0240
0240
7E40
8840
0840
07C0
0040
0040
ENDCHAR
STARTCHAR uni0928094D0935
ENCODING -1
SWIDTH 732 0
DWIDTH 10 0
BBX 10 9 0 0
BITMAP
FFC0
0680
0880
7880
8880
0880
0780
0080
0080
ENDCHAR
STARTCHAR uni0928094D0938
ENCODING -1
SWIDTH 867 0
DWIDTH 12 0
BBX 12 9 0 0
BITMAP
FFF0
0120
0120
7A20
87E0
4420
0220
0220
0120
ENDCHAR
STARTCHAR uni0928094D0939
ENCODING -1
SWIDTH 714 0
DWIDTH 10 0
BBX 10 10 0 -1
BITMAP
FFC0
0080
0780
0800
7800
8700
0880
0880
0800
0780
ENDCHAR
STARTCHAR uni092A094D091F
ENCODING -1
SWIDTH 489 0
DWIDTH 7 0
BBX 7 9 0 0
BITMAP
FE
44
44
3C
40
40
44
44
38
ENDCHAR
STARTCHAR uni092A094D0920
ENCODING -1
SWIDTH 506 0
DWIDTH 7 0
BBX 7 9 0 0
BITMAP
FE
44
44
38
44
44
44
44
38
ENDCHAR
STARTCHAR uni092A094D0924
ENCODING -1
SWIDTH 495 0
DWIDTH 7 0
BBX 7 9 0 0
BITMAP
FE
44
44
3C
44
44
44
44
24
ENDCHAR
STARTCHAR uni092A094D092A
ENCODING -1
SWIDTH 770 0
DWIDTH 11 0
BBX 11 9 0 0
BITMAP
FFE0
4440
4440
4440
4440
3BC0
0040
0040
0040
ENDCHAR
STARTCHAR uni092A094D092B
ENCODING -1
SWIDTH 1003 0
DWIDTH 14 0
BBX 14 9 0 0
BITMAP
FFFC
44B0
4448
4488
4488
3B88
00B0
0080
0080
ENDCHAR
STARTCHAR uni092A094D092E
ENCODING -1
SWIDTH 774 0
DWIDTH 11 0
BBX 11 9 0 0
BITMAP
FFE0
4440
4440
47C0
4440
3C40
0040
0040
0040
ENDCHAR
STARTCHAR uni092A094D092F
ENCODING -1
SWIDTH 855 0
DWIDTH 12 0
BBX 12 9 0 0
BITMAP
FFF0
4120
4120
4620
4420
3C20
03E0
0020
0020
ENDCHAR
STARTCHAR uni092A094D0932
ENCODING -1
SWIDTH 960 0
DWIDTH 13 0
BBX 14 9 0 0
BITMAP
FFFC
4010
4370
4490
4490
3C10
0410
0310
0010
ENDCHAR
STARTCHAR uni092A094D0935
ENCODING -1
SWIDTH 780 0
DWIDTH 11 0
BBX 11 9 0 0
BITMAP
FFE0
4340
4440
4440
4440
3C40
03C0
0040
0040
ENDCHAR
STARTCHAR uni092A094D0938
ENCODING -1
SWIDTH 880 0
DWIDTH 12 0
BBX 13 9 0 0
BITMAP
FFF8
4120
4120
4120
47E0
3C20
0220
0220
0120
ENDCHAR
STARTCHAR uni092B094D091C
ENCODING -1
SWIDTH 1100 0
DWIDTH 15 0
BBX 16 9 0 0
BITMAP
FFFF
4404
477C
4414
4414
3C14
0414
04E4
0404
ENDCHAR
STARTCHAR uni092B094D091F
ENCODING -1
SWIDTH 1006 0
DWIDTH 14 0
BBX 14 9 0 0
BITMAP
FFFC
4788
44F8
4480
4480
3C84
0488
0478
0400
ENDCHAR
STARTCHAR uni092B094D0924
ENCODING -1
SWIDTH 1034 0
DWIDTH 14 0
BBX 15 9 0 0
BITMAP
FFFE
4408
47F8
4488
4488
3C88
0488
0448
0428
ENDCHAR
STARTCHAR uni092B094D092A
ENCODING -1
SWIDTH 1021 0
DWIDTH 14 0
BBX 14 9 0 0
BITMAP
FFFC
4488
4788
4488
4488
3C78
0408
0408
0408
ENDCHAR
STARTCHAR uni092B094D092B
ENCODING -1
SWIDTH 1256 0
DWIDTH 18 0
BBX 18 9 0 0
BITMAP
FFFFC0
448F00
478880
448880
448880
3C7880
040B00
040800
040800
ENDCHAR
STARTCHAR uni092B094D092F
ENCODING -1
SWIDTH 1120 0
DWIDTH 16 0
BBX 16 9 0 0
BITMAP
FFFF
4424
47E4
4484
4484
3C84
047C
0404
0404
ENDCHAR
STARTCHAR uni092B094D0932
ENCODING -1
SWIDTH 1202 0
DWIDTH 17 0
BBX 17 9 0 0
BITMAP
FFFF80
478100
44EF00
449100
449100
3C9100
048100
046100
040100
ENDCHAR
STARTCHAR uni092B094D0936
ENCODING -1
SWIDTH 1211 0
DWIDTH 17 0
BBX 17 9 0 0
BITMAP
FFB980
444900
474900
448900
44F100
3C4100
044100
042100
041100
ENDCHAR
STARTCHAR uni092C094D091C
ENCODING -1
SWIDTH 883 0
DWIDTH 12 0
BBX 13 9 0 0
BITMAP
FFF8
0020
73E0
60A0
50A0
50A0
48A0
3F20
0020
ENDCHAR
STARTCHAR uni092C094D091D
ENCODING -1
SWIDTH 962 0
DWIDTH 13 0
BBX 14 10 0 -1
BITMAP
FFFC
3790
4410
6410
57F0
4C50
3850
04D0
0710
0400
ENDCHAR
STARTCHAR uni092C094D0924
ENCODING -1
SWIDTH 786 0
DWIDTH 11 0
BBX 11 9 0 0
BITMAP
FFE0
3040
43C0
6440
5440
4C40
3C40
0440
0340
ENDCHAR
STARTCHAR uni092C094D0926
ENCODING -1
SWIDTH 775 0
DWIDTH 11 0
BBX 11 9 0 0
BITMAP
FFE0
3040
43C0
6400
5440
4C40
3BC0
0040
0040
ENDCHAR
STARTCHAR uni092C094D0927
ENCODING -1
SWIDTH 844 0
DWIDTH 12 0
BBX 12 9 0 0
BITMAP
FEF0
3420
4420
6320
5420
4C20
3C20
03E0
0020
ENDCHAR
STARTCHAR uni092C094D092C
ENCODING -1
SWIDTH 783 0
DWIDTH 11 0
BBX 11 9 0 0
BITMAP
FFE0
3340
4640
6540
54C0
4C40
3BC0
0040
0040
ENDCHAR
STARTCHAR uni092C094D092D
ENCODING -1
SWIDTH 764 0
DWIDTH 11 0
BBX 11 9 0 0
BITMAP
F9E0
3440
4440
6780
5440
4C40
3840
0040
0040
ENDCHAR
STARTCHAR uni092C094D092F
ENCODING -1
SWIDTH 852 0
DWIDTH 12 0
BBX 12 9 0 0
BITMAP
FFF0
3120
4120
6620
5420
4C20
3BE0
0020
0020
ENDCHAR
STARTCHAR uni092C094D0932
ENCODING -1
SWIDTH 961 0
DWIDTH 13 0
BBX 14 9 0 0
BITMAP
FFFC
3010
4370
6490
5490
4C10
3C10
0310
0010
ENDCHAR
STARTCHAR uni092C094D0935
ENCODING -1
SWIDTH 776 0
DWIDTH 11 0
BBX 11 9 0 0
BITMAP
FFE0
3340
4440
6440
5440
4C40
3BC0
0040
0040
ENDCHAR
STARTCHAR uni092C094D0936
ENCODING -1
SWIDTH 926 0
DWIDTH 13 0
BBX 13 9 0 0
BITMAP
F398
3490
4090
6090
5710
4C10
3A10
0110
0110
ENDCHAR
STARTCHAR uni092C094D0938
ENCODING -1
SWIDTH 897 0
DWIDTH 13 0
BBX 13 9 0 0
BITMAP
FFF8
3120
4120
6120
57E0
4C20
3A20
0120
0120
ENDCHAR
STARTCHAR uni092D094D092F
ENCODING -1
SWIDTH 827 0
DWIDTH 12 0
BBX 12 9 0 0
BITMAP
DFF0
4140
4240
7C40
4840
4440
03C0
0040
0040
ENDCHAR
STARTCHAR uni092D094D0932
ENCODING -1
SWIDTH 941 0
DWIDTH 13 0
BBX 13 9 0 0
BITMAP
DFF8
4010
4770
7890
4490
4410
0410
0710
0010
ENDCHAR
STARTCHAR uni092D094D0935
ENCODING -1
SWIDTH 755 0
DWIDTH 11 0
BBX 11 9 0 0
BITMAP
DFE0
4780
4480
7880
4480
4480
0780
0080
0080
ENDCHAR
STARTCHAR uni092E094D0924
ENCODING -1
SWIDTH 765 0
DWIDTH 11 0
BBX 11 9 0 0
BITMAP
FFE0
4040
4780
7C40
4440
4440
0440
0440
0240
ENDCHAR
STARTCHAR uni092E094D0926
ENCODING -1
SWIDTH 766 0
DWIDTH 11 0
BBX 11 9 0 0
BITMAP
FFE0
4040
4780
7C00
4440
4440
03C0
0040
0040
ENDCHAR
STARTCHAR uni092E094D092A
ENCODING -1
SWIDTH 762 0
DWIDTH 11 0
BBX 11 9 0 0
BITMAP
FFE0
4440
4440
7840
4480
4340
0040
0040
0040
ENDCHAR
STARTCHAR uni092E094D092C
ENCODING -1
SWIDTH 768 0
DWIDTH 11 0
BBX 11 9 0 0
BITMAP
FFE0
4740
4440
7A40
4540
4480
0340
0040
0040
ENDCHAR
STARTCHAR uni092E094D092D
ENCODING -1
SWIDTH 768 0
DWIDTH 11 0
BBX 11 9 0 0
BITMAP
F9E0
4440
4440
7F80
4440
4440
0040
0040
0040
ENDCHAR
STARTCHAR uni092E094D092E
ENCODING -1
SWIDTH 759 0
DWIDTH 11 0
BBX 11 9 0 0
BITMAP
FFE0
4440
4440
7F80
4440
4440
0040
0040
0080
ENDCHAR
STARTCHAR uni092E094D092F
ENCODING -1
SWIDTH 834 0
DWIDTH 12 0
BBX 12 9 0 0
BITMAP
FFF0
4120
4320
7C20
4420
4440
03A0
0020
0020
ENDCHAR
STARTCHAR uni092E094D0932
ENCODING -1
SWIDTH 945 0
DWIDTH 13 0
BBX 13 9 0 0
BITMAP
FFF8
4010
4770
7C90
4490
4410
0410
0710
0010
ENDCHAR
STARTCHAR uni092E094D0935
ENCODING -1
SWIDTH 761 0
DWIDTH 11 0
BBX 11 9 0 0
BITMAP
FFE0
4740
4440
7840
4440
4480
0340
0040
0040
ENDCHAR
STARTCHAR uni092E094D0936
ENCODING -1
SWIDTH 884 0
DWIDTH 12 0
BBX 13 9 0 0
BITMAP
F738
44A0
44A0
40A0
7F20
4420
0420
0220
0120
ENDCHAR
STARTCHAR uni092E094D0938
ENCODING -1
SWIDTH 816 0
DWIDTH 11 0
BBX 12 9 0 0
BITMAP
FFF0
4240
4240
4240
7FC0
4840
0440
0440
0240
ENDCHAR
STARTCHAR uni092E094D0939
ENCODING -1
SWIDTH 758 0
DWIDTH 11 0
BBX 11 10 0 -1
BITMAP
FFE0
4040
4380
4400
7C00
4380
4440
0440
0400
0380
ENDCHAR
STARTCHAR uni092F094D092F
ENCODING -1
SWIDTH 897 0
DWIDTH 13 0
BBX 13 9 0 0
BITMAP
FFF8
1120
1120
6320
4420
4220
3DE0
0020
0020
ENDCHAR
STARTCHAR uni0930094D092F
ENCODING -1
SWIDTH 713 0
DWIDTH 10 0
BBX 10 9 0 0
BITMAP
FFC0
0480
8480
7880
1080
1080
0F80
0080
0080
ENDCHAR
STARTCHAR uni0930094D0939
ENCODING -1
SWIDTH 619 0
DWIDTH 9 0
BBX 9 10 0 -1
BITMAP
FF80
0100
9E00
7000
1000
0E00
1100
1100
1000
0E00
ENDCHAR
STARTCHAR uni0932094D0915
ENCODING -1
SWIDTH 1182 0
DWIDTH 17 0
BBX 17 9 0 0
BITMAP
FFFF80
00DE00
371100
491100
491100
411100
40F600
301000
001000
ENDCHAR
STARTCHAR uni0932094D0916
ENCODING -1
SWIDTH 1195 0
DWIDTH 17 0
BBX 17 9 0 0
BITMAP
FFFF80
002100
362D00
493100
49D100
489100
404F00
304100
002100
ENDCHAR
STARTCHAR uni0932094D0917
ENCODING -1
SWIDTH 950 0
DWIDTH 13 0
BBX 14 9 0 0
BITMAP
FFFC
0090
3690
4890
4890
4910
4010
3010
0010
ENDCHAR
STARTCHAR uni0932094D091C
ENCODING -1
SWIDTH 1035 0
DWIDTH 14 0
BBX 15 9 0 0
BITMAP
FFFE
0008
36F8
4828
4828
4828
4028
31C8
0008
ENDCHAR
STARTCHAR uni0932094D091F
ENCODING -1
SWIDTH 929 0
DWIDTH 13 0
BBX 13 8 0 1
BITMAP
FFF8
0010
36F0
4900
4900
4910
4110
30F0
ENDCHAR
STARTCHAR uni0932094D0920
ENCODING -1
SWIDTH 953 0
DWIDTH 13 0
BBX 14 8 0 1
BITMAP
FFFC
0010
36E0
4910
4910
4910
4110
30F0
ENDCHAR
STARTCHAR uni0932094D0921
ENCODING -1
SWIDTH 916 0
DWIDTH 13 0
BBX 13 9 0 0
BITMAP
FFF8
0010
36F0
4900
48E0
4010
4110
3110
00E0
ENDCHAR
STARTCHAR uni0932094D0922
ENCODING -1
SWIDTH 924 0
DWIDTH 13 0
BBX 13 8 0 1
BITMAP
FFF8
0010
36F0
4900
4930
4950
4110
30F0
ENDCHAR
STARTCHAR uni0932094D0924
ENCODING -1
SWIDTH 929 0
DWIDTH 13 0
BBX 13 9 0 0
BITMAP
FFF8
0010
36F0
4910
4910
4110
4110
3110
00D0
ENDCHAR
STARTCHAR uni0932094D0925
ENCODING -1
SWIDTH 1061 0
DWIDTH 15 0
BBX 15 9 0 0
BITMAP
FEE6
00A4
3724
49E4
4904
4104
40FC
3004
0004
ENDCHAR
STARTCHAR uni0932094D0926
ENCODING -1
SWIDTH 939 0
DWIDTH 13 0
BBX 13 9 0 0
BITMAP
FFF8
0010
36F0
4900
4910
4110
40F0
3010
0010
ENDCHAR
STARTCHAR uni0932094D092A
ENCODING -1
SWIDTH 939 0
DWIDTH 13 0
BBX 13 9 0 0
BITMAP
FFF8
0110
3710
4910
4910
40F0
4010
3010
0010
ENDCHAR
STARTCHAR uni0932094D092B
ENCODING -1
SWIDTH 1176 0
DWIDTH 16 0
BBX 17 9 0 0
BITMAP
FFFF80
011E00
371100
491100
491100
48F100
401600
301000
001000
ENDCHAR
STARTCHAR uni0932094D092C
ENCODING -1
SWIDTH 949 0
DWIDTH 13 0
BBX 14 9 0 0
BITMAP
FFFC
00D0
3790
4950
4930
4110
40F0
3010
0010
ENDCHAR
STARTCHAR uni0932094D092D
ENCODING -1
SWIDTH 931 0
DWIDTH 13 0
BBX 13 9 0 0
BITMAP
FF38
0110
3710
49F0
4910
4110
4010
3010
0010
ENDCHAR
STARTCHAR uni0932094D092E
ENCODING -1
SWIDTH 931 0
DWIDTH 13 0
BBX 13 9 0 0
BITMAP
FFF8
0110
3710
49F0
4910
4110
4010
3010
0010
ENDCHAR
STARTCHAR uni0932094D092F
ENCODING -1
SWIDTH 1033 0
DWIDTH 14 0
BBX 15 9 0 0
BITMAP
FFFE
0048
3748
49C8
4908
4108
40F8
3008
0008
ENDCHAR
STARTCHAR uni0932094D0932
ENCODING -1
SWIDTH 1112 0
DWIDTH 16 0
BBX 16 9 0 0
BITMAP
FFFF
0004
36DC
4924
4924
4924
4104
30C4
0004
ENDCHAR
STARTCHAR uni0932094D0935
ENCODING -1
SWIDTH 940 0
DWIDTH 13 0
BBX 13 9 0 0
BITMAP
FFF8
00D0
3710
4910
4910
4110
40F0
3010
0010
ENDCHAR
STARTCHAR uni0932094D0938
ENCODING -1
SWIDTH 1068 0
DWIDTH 15 0
BBX 15 9 0 0
BITMAP
FFFE
0044
3644
4944
49FC
4884
4084
3044
0024
ENDCHAR
STARTCHAR uni0932094D0939
ENCODING -1
SWIDTH 922 0
DWIDTH 13 0
BBX 13 9 0 0
BITMAP
FFF8
0010
36F0
4900
48E0
4110
4110
3100
00F0
ENDCHAR
STARTCHAR uni0933094D092F
ENCODING -1
SWIDTH 1050 0
DWIDTH 15 0
BBX 15 9 0 0
BITMAP
FFFE
3724
4924
48C4
4884
4888
4974
3604
0004
ENDCHAR
STARTCHAR uni0935094D092F
ENCODING -1
SWIDTH 852 0
DWIDTH 12 0
BBX 12 9 0 0
BITMAP
FFF0
3120
4120
4620
4420
4420
3BE0
0020
0020
ENDCHAR
STARTCHAR uni0935094D0932
ENCODING -1
SWIDTH 961 0
DWIDTH 13 0
BBX 14 9 0 0
BITMAP
FFFC
3010
4370
4490
4490
4410
3C10
0310
0010
ENDCHAR
STARTCHAR uni0935094D0935
ENCODING -1
SWIDTH 776 0
DWIDTH 11 0
BBX 11 9 0 0
BITMAP
FFE0
3340
4440
4440
4440
4440
3BC0
0040
0040
ENDCHAR
STARTCHAR uni0935094D0939
ENCODING -1
SWIDTH 754 0
DWIDTH 11 0
BBX 11 10 0 -1
BITMAP
FFE0
0080
3780
4400
4400
4380
4440
3C00
0400
0380
ENDCHAR
STARTCHAR uni0936094D0915
ENCODING -1
SWIDTH 1093 0
DWIDTH 15 0
BBX 15 9 1 0
BITMAP
E7FE
9378
1448
1444
E444
8448
43D8
4040
2040
ENDCHAR
STARTCHAR uni0936094D091A
ENCODING -1
SWIDTH 950 0
DWIDTH 13 0
BBX 13 9 1 0
BITMAP
E7F8
9020
17A0
1220
E220
8220
41E0
4020
2020
ENDCHAR
STARTCHAR uni0936094D091B
ENCODING -1
SWIDTH 968 0
DWIDTH 14 0
BBX 13 9 1 0
BITMAP
E7F8
9420
1460
1310
E410
8410
4410
43E0
2000
ENDCHAR
STARTCHAR uni0936094D091F
ENCODING -1
SWIDTH 854 0
DWIDTH 12 0
BBX 11 9 1 0
BITMAP
E7E0
9040
1380
1400
E400
8440
4440
43C0
2000
ENDCHAR
STARTCHAR uni0936094D0924
ENCODING -1
SWIDTH 864 0
DWIDTH 12 0
BBX 11 9 1 0
BITMAP
E7E0
9040
13C0
1440
E440
8440
4440
4440
2340
ENDCHAR
STARTCHAR uni0936094D092E
ENCODING -1
SWIDTH 885 0
DWIDTH 12 0
BBX 12 9 1 0
BITMAP
E7F0
9440
1440
13C0
E440
8440
4040
4040
2040
ENDCHAR
STARTCHAR uni0936094D092F
ENCODING -1
SWIDTH 940 0
DWIDTH 13 0
BBX 12 9 1 0
BITMAP
E7F0
9120
9120
1620
E420
8420
43E0
4020
2020
ENDCHAR
STARTCHAR uni0936094D0932
ENCODING -1
SWIDTH 1039 0
DWIDTH 15 0
BBX 14 9 1 0
BITMAP
E7FC
9010
1370
1490
E490
8490
4410
4310
2010
ENDCHAR
STARTCHAR uni0936094D0935
ENCODING -1
SWIDTH 850 0
DWIDTH 12 0
BBX 11 9 1 0
BITMAP
E7E0
9340
1440
1440
E440
8440
43C0
4040
2040
ENDCHAR
STARTCHAR uni0936094D0936
ENCODING -1
SWIDTH 1009 0
DWIDTH 14 0
BBX 13 9 1 0
BITMAP
E398
9490
9490
1090
E790
8210
4210
4110
2090
ENDCHAR
STARTCHAR uni0937094D0915
ENCODING -1
SWIDTH 1039 0
DWIDTH 15 0
BBX 15 9 0 0
BITMAP
FFFE
6378
5444
4C44
4444
3C44
03D8
0040
0040
ENDCHAR
STARTCHAR uni0937094D091F
ENCODING -1
SWIDTH 493 0
DWIDTH 7 0
BBX 7 9 0 0
BITMAP
FE
74
4C
3C
40
40
44
44
38
ENDCHAR
STARTCHAR uni0937094D0920
ENCODING -1
SWIDTH 511 0
DWIDTH 7 0
BBX 7 9 0 0
BITMAP
FE
7C
7C
7C
44
44
44
44
38
ENDCHAR
STARTCHAR uni0937094D0923
ENCODING -1
SWIDTH 980 0
DWIDTH 14 0
BBX 14 9 0 0
BITMAP
FFFC
6448
5448
4C48
4488
3B88
0008
0008
0008
ENDCHAR
STARTCHAR uni0937094D092A
ENCODING -1
SWIDTH 980 0
DWIDTH 14 0
BBX 14 9 0 0
BITMAP
FFFC
6448
5448
4C48
4488
3B88
0008
0008
0008
ENDCHAR
STARTCHAR uni0937094D092B
ENCODING -1
SWIDTH 1036 0
DWIDTH 15 0
BBX 15 9 0 0
BITMAP
FFFE
6478
5444
4C44
4444
3BC4
0058
0040
0040
ENDCHAR
STARTCHAR uni0937094D092E
ENCODING -1
SWIDTH 791 0
DWIDTH 11 0
BBX 11 9 0 0
BITMAP
FFE0
6440
5440
4FC0
4440
3C40
0040
0040
0040
ENDCHAR
STARTCHAR uni0937094D092F
ENCODING -1
SWIDTH 877 0
DWIDTH 12 0
BBX 12 9 0 0
BITMAP
FFF0
6120
5120
4F20
4420
3C20
03E0
0020
0020
ENDCHAR
STARTCHAR uni0937094D0935
ENCODING -1
SWIDTH 802 0
DWIDTH 11 0
BBX 11 9 0 0
BITMAP
FFE0
6340
5440
4C40
4440
3C40
03C0
0040
0040
ENDCHAR
STARTCHAR uni0937094D0937
ENCODING -1
SWIDTH 804 0
DWIDTH 11 0
BBX 11 9 0 0
BITMAP
FFE0
6640
5540
4CC0
4440
3BC0
0040
0040
0040
ENDCHAR
STARTCHAR uni0938094D0915
ENCODING -1
SWIDTH 1089 0
DWIDTH 15 0
BBX 15 9 0 0
BITMAP
FFFE
21BC
2224
2222
FE22
4224
41EC
2020
1020
ENDCHAR
STARTCHAR uni0938094D0916
ENCODING -1
SWIDTH 990 0
DWIDTH 14 0
BBX 14 9 0 0
BITMAP
FFFC
2108
2168
2148
FE88
4448
4278
2208
1108
ENDCHAR
STARTCHAR uni0938094D091C
ENCODING -1
SWIDTH 970 0
DWIDTH 14 0
BBX 14 9 0 0
BITMAP
FFFC
2010
21F0
2050
FC50
4050
4050
2390
1010
ENDCHAR
STARTCHAR uni0938094D091F
ENCODING -1
SWIDTH 844 0
DWIDTH 12 0
BBX 12 9 0 0
BITMAP
FFF0
2040
21C0
2200
FE00
4220
4220
23E0
1000
ENDCHAR
STARTCHAR uni0938094D0924
ENCODING -1
SWIDTH 852 0
DWIDTH 12 0
BBX 12 9 0 0
BITMAP
FFF0
2020
21E0
2220
FE20
4220
4220
2220
1120
ENDCHAR
STARTCHAR uni0938094D0925
ENCODING -1
SWIDTH 960 0
DWIDTH 13 0
BBX 14 9 0 0
BITMAP
F99C
2250
2050
FF90
4210
4210
21F0
2010
1010
ENDCHAR
STARTCHAR uni0938094D0926
ENCODING -1
SWIDTH 851 0
DWIDTH 12 0
BBX 12 9 0 0
BITMAP
FFF0
2020
21E0
2200
FE20
4220
21E0
2020
1020
ENDCHAR
STARTCHAR uni0938094D092A
ENCODING -1
SWIDTH 857 0
DWIDTH 12 0
BBX 12 9 0 0
BITMAP
FFF0
2220
2220
2220
FE20
41E0
4020
2020
1020
ENDCHAR
STARTCHAR uni0938094D092B
ENCODING -1
SWIDTH 1092 0
DWIDTH 15 0
BBX 15 9 0 0
BITMAP
FFFE
223C
2224
2222
FE22
41E4
402C
2020
1020
ENDCHAR
STARTCHAR uni0938094D092C
ENCODING -1
SWIDTH 857 0
DWIDTH 12 0
BBX 12 9 0 0
BITMAP
FFF0
21A0
2220
2320
FEA0
4260
41E0
2020
1020
ENDCHAR
STARTCHAR uni0938094D092E
ENCODING -1
SWIDTH 850 0
DWIDTH 12 0
BBX 12 9 0 0
BITMAP
FFF0
2220
2220
2220
FFE0
4220
4020
2020
1020
ENDCHAR
STARTCHAR uni0938094D092F
ENCODING -1
SWIDTH 920 0
DWIDTH 13 0
BBX 13 9 0 0
BITMAP
FFF8
2090
2090
2310
FE10
4210
41F0
2010
1010
ENDCHAR
STARTCHAR uni0938094D0932
ENCODING -1
SWIDTH 1027 0
DWIDTH 14 0
BBX 15 9 0 0
BITMAP
FFFE
2008
21B8
2248
FE48
4248
4208
2388
1008
ENDCHAR
STARTCHAR uni0938094D0935
ENCODING -1
SWIDTH 842 0
DWIDTH 12 0
BBX 12 9 0 0
BITMAP
FFF0
21A0
2220
2220
FE20
4220
43E0
2020
1020
ENDCHAR
STARTCHAR uni0938094D0938
ENCODING -1
SWIDTH 871 0
DWIDTH 12 0
BBX 12 9 0 0
BITMAP
FFF0
2120
2120
2120
FFE0
4420
4220
2220
1120
ENDCHAR
STARTCHAR uni0939094D0923
ENCODING -1
SWIDTH 1136 0
DWIDTH 16 0
BBX 16 13 0 -4
BITMAP
FFFF
0512
3912
4112
4112
3912
44E2
4402
4002
3C00
1000
0800
0800
ENDCHAR
STARTCHAR uni0939094D092E
ENCODING -1
SWIDTH 746 0
DWIDTH 10 0
BBX 11 10 0 -1
BITMAP
FFE0
0480
3C80
4080
4080
3C80
4780
4480
4480
3800
ENDCHAR
STARTCHAR uni0939094D092F
ENCODING -1
SWIDTH 785 0
DWIDTH 11 0
BBX 11 11 0 -2
BITMAP
FFE0
0440
3C40
4040
4040
3E40
4240
4E40
4840
47C0
3840
ENDCHAR
STARTCHAR uni0939094D0932
ENCODING -1
SWIDTH 1110 0
DWIDTH 16 0
BBX 16 13 0 -4
BITMAP
FFFF
0404
3804
40DC
4124
3924
4504
40C4
4004
3C00
1000
0800
0800
ENDCHAR
STARTCHAR uni0939094D0935
ENCODING -1
SWIDTH 920 0
DWIDTH 13 0
BBX 13 13 0 -4
BITMAP
FFF8
0410
38D0
4110
4110
3910
4510
44F0
4010
3C00
1000
0800
0800
ENDCHAR
STARTCHAR uni0915093C094D0915093C
ENCODING -1
SWIDTH 1275 0
DWIDTH 18 0
BBX 18 9 0 0
BITMAP
FFFFC0
376F00
448880
448880
448880
448880
3C7B00
040800
244800
ENDCHAR
STARTCHAR uni0915093C094D0924
ENCODING -1
SWIDTH 1016 0
DWIDTH 14 0
BBX 14 9 0 0
BITMAP
FFFC
3788
44F8
4488
4488
4488
3C88
0488
2468
ENDCHAR
STARTCHAR uni0915093C094D092B
ENCODING -1
SWIDTH 1246 0
DWIDTH 17 0
BBX 18 9 0 0
BITMAP
FFFFC0
348F00
478880
448880
448880
447880
3C0B00
040800
240800
ENDCHAR
STARTCHAR uni0915093C094D092B093C
ENCODING -1
SWIDTH 1247 0
DWIDTH 17 0
BBX 18 9 0 0
BITMAP
FFFFC0
348F00
478880
448880
448880
447880
3C0B00
040800
244800
ENDCHAR
STARTCHAR uni0915093C094D092C
ENCODING -1
SWIDTH 1043 0
DWIDTH 15 0
BBX 15 9 0 0
BITMAP
FFFE
3778
44C8
44A8
4498
4448
3C78
0408
2408
ENDCHAR
STARTCHAR uni0915093C094D092E
ENCODING -1
SWIDTH 998 0
DWIDTH 14 0
BBX 14 9 0 0
BITMAP
FFFC
3488
4788
44F8
4488
4488
3C08
0408
2408
ENDCHAR
STARTCHAR uni0916093C094D0924
ENCODING -1
SWIDTH 984 0
DWIDTH 14 0
BBX 14 9 0 0
BITMAP
FFFC
1008
16F8
1888
E888
4888
2708
2088
1248
ENDCHAR
STARTCHAR uni0916093C094D092E
ENCODING -1
SWIDTH 965 0
DWIDTH 14 0
BBX 14 9 0 0
BITMAP
FFFC
1090
1690
18F0
E890
4890
2710
2010
1210
ENDCHAR
STARTCHAR uni0916093C094D092F
ENCODING -1
SWIDTH 1045 0
DWIDTH 15 0
BBX 15 9 0 0
BITMAP
FFFE
1024
1624
18C4
E884
4888
27F4
2004
1204
ENDCHAR
STARTCHAR uni0916093C094D0935
ENCODING -1
SWIDTH 972 0
DWIDTH 14 0
BBX 14 9 0 0
BITMAP
FFFC
1070
1690
1890
E890
4590
22F0
2010
1210
ENDCHAR
STARTCHAR uni0916093C094D0936
ENCODING -1
SWIDTH 1123 0
DWIDTH 16 0
BBX 16 9 0 0
BITMAP
FE63
1092
1692
1812
E9E2
4882
2782
2042
1222
ENDCHAR
STARTCHAR uni0916093C094D0938
ENCODING -1
SWIDTH 1066 0
DWIDTH 15 0
BBX 15 9 0 0
BITMAP
FFFE
1044
1644
1844
E9FC
4884
2784
2044
1224
ENDCHAR
STARTCHAR uni091C093C094D091C093C
ENCODING -1
SWIDTH 934 0
DWIDTH 13 0
BBX 13 9 0 0
BITMAP
FFF8
0010
7BE0
1090
1090
1090
1090
E710
4210
ENDCHAR
STARTCHAR uni091C093C094D092F
ENCODING -1
SWIDTH 893 0
DWIDTH 13 0
BBX 13 9 0 0
BITMAP
FFF8
0120
7D20
1320
1420
1220
13E0
E020
4020
ENDCHAR
STARTCHAR uni092B093C094D091C093C
ENCODING -1
SWIDTH 1100 0
DWIDTH 15 0
BBX 16 9 0 0
BITMAP
FFFF
4404
477C
4414
4414
3C14
0414
04E4
2444
ENDCHAR
STARTCHAR uni092B093C094D0924
ENCODING -1
SWIDTH 1036 0
DWIDTH 15 0
BBX 15 9 0 0
BITMAP
FFFE
4408
47F8
4488
4488
3C88
0488
0448
2428
ENDCHAR
STARTCHAR uni092B093C094D092B093C
ENCODING -1
SWIDTH 1256 0
DWIDTH 18 0
BBX 18 9 0 0
BITMAP
FFFFC0
448F00
478880
448880
448880
3C7880
040B00
040800
244800
ENDCHAR
STARTCHAR uni092B093C094D0938
ENCODING -1
SWIDTH 1141 0
DWIDTH 16 0
BBX 16 9 0 0
BITMAP
FFFF
4422
4722
44A2
44FE
3C42
0442
0422
2412
ENDCHAR
STARTCHAR uni092C094D091C093C
ENCODING -1
SWIDTH 883 0
DWIDTH 12 0
BBX 13 9 0 0
BITMAP
FFF8
0020
73E0
60A0
50A0
50A0
48A0
3F20
0220
ENDCHAR
STARTCHAR uni0932094D091C093C
ENCODING -1
SWIDTH 1062 0
DWIDTH 15 0
BBX 15 10 0 -1
BITMAP
FFFE
0008
36F8
4828
4828
4828
4028
31C8
0008
0080
ENDCHAR
STARTCHAR uni0936094D0915093C
ENCODING -1
SWIDTH 1093 0
DWIDTH 15 0
BBX 15 9 1 0
BITMAP
E7FE
9378
1448
1444
E444
8448
43D8
4040
2240
ENDCHAR
STARTCHAR uni0924094D0924094D
ENCODING -1
SWIDTH 309 0
DWIDTH 4 0
BBX 6 9 0 0
BITMAP
FC
00
FC
40
40
40
40
20
10
ENDCHAR
STARTCHAR uni0928094D092D094D
ENCODING -1
SWIDTH 505 0
DWIDTH 7 0
BBX 9 7 0 2
BITMAP
F980
0800
0800
0800
7F80
8800
0800
ENDCHAR
STARTCHAR uni0928094D0938094D
ENCODING -1
SWIDTH 635 0
DWIDTH 9 0
BBX 11 9 0 0
BITMAP
FFE0
0100
0100
7900
87E0
4400
0200
0200
0100
ENDCHAR
STARTCHAR uni092E094D092D094D
ENCODING -1
SWIDTH 533 0
DWIDTH 7 0
BBX 9 7 0 2
BITMAP
F980
4400
4400
4400
7F80
4400
4400
ENDCHAR
STARTCHAR uni0932094D092D094D
ENCODING -1
SWIDTH 694 0
DWIDTH 10 0
BBX 11 8 0 1
BITMAP
FF20
0100
3700
49E0
4900
4100
4000
3000
ENDCHAR
STARTCHAR uni0938094D0924094D0930094D
ENCODING -1
SWIDTH 575 0
DWIDTH 8 0
BBX 10 9 0 0
BITMAP
FF80
2000
2380
2440
FC40
4040
4080
2300
1400
ENDCHAR
STARTCHAR uni0915094D0924094D092F
ENCODING -1
SWIDTH 1356 0
DWIDTH 19 0
BBX 19 9 0 0
BITMAP
FFFFE0
370240
448240
447C40
448840
448840
3C87C0
048040
046040
ENDCHAR
STARTCHAR uni0915094D0924094D0930
ENCODING -1
SWIDTH 997 0
DWIDTH 14 0
BBX 14 9 0 0
BITMAP
FFFC
3708
44F8
4488
4488
4418
3C28
0448
0488
ENDCHAR
STARTCHAR uni0915094D0924094D0935
ENCODING -1
SWIDTH 1242 0
DWIDTH 17 0
BBX 18 9 0 0
BITMAP
FFFFC0
370D00
44F100
449100
449100
449100
3C8F00
048100
044100
ENDCHAR
STARTCHAR uni0915094D092A094D0930
ENCODING -1
SWIDTH 1007 0
DWIDTH 14 0
BBX 14 9 0 0
BITMAP
FFFC
3488
4788
4488
4488
4478
3C28
0448
0488
ENDCHAR
STARTCHAR uni0915094D0935094D092F
ENCODING -1
SWIDTH 1384 0
DWIDTH 19 0
BBX 20 9 0 0
BITMAP
FFFFF0
376240
448240
448E40
448840
448840
3C77C0
040040
040040
ENDCHAR
STARTCHAR uni0915094D0938094D091F
ENCODING -1
SWIDTH 1376 0
DWIDTH 19 0
BBX 19 9 0 0
BITMAP
FFFFE0
371040
4493C0
44A400
447C00
444420
3C2420
0423C0
041000
ENDCHAR
STARTCHAR uni0915094D0938094D0921
ENCODING -1
SWIDTH 1388 0
DWIDTH 19 0
BBX 20 9 0 0
BITMAP
FFFFF0
371040
4493C0
44A200
445FC0
444020
3C2220
042220
0411C0
ENDCHAR
STARTCHAR uni0915094D0938094D0924
ENCODING -1
SWIDTH 1423 0
DWIDTH 20 0
BBX 20 9 0 0
BITMAP
FFFFF0
371020
4491E0
44A220
447E20
444220
3C2220
042220
041120
ENDCHAR
STARTCHAR uni0915094D0938094D092A094D0930
ENCODING -1
SWIDTH 1437 0
DWIDTH 20 0
BBX 20 9 0 0
BITMAP
FFFFF0
379220
449220
447E20
444220
4441E0
3C20A0
042120
041220
ENDCHAR
STARTCHAR uni0915094D0938094D092A094D0932
ENCODING -1
SWIDTH 1866 0
DWIDTH 26 0
BBX 26 9 0 0
BITMAP
FFFFFFC0
37120080
44923B80
44A22480
447E4480
4441C080
3C202080
04203880
04100080
ENDCHAR
STARTCHAR uni0917094D0927094D092F
ENCODING -1
SWIDTH 1156 0
DWIDTH 16 0
BBX 16 9 0 0
BITMAP
FEFF
2412
2412
2762
2442
C442
047E
0782
0002
ENDCHAR
STARTCHAR uni0917094D0927094D0935
ENCODING -1
SWIDTH 1084 0
DWIDTH 15 0
BBX 15 9 0 0
BITMAP
FEFE
2434
2444
2344
2444
C444
047C
0784
0004
ENDCHAR
STARTCHAR uni0917094D0928094D092F
ENCODING -1
SWIDTH 1069 0
DWIDTH 15 0
BBX 15 9 0 0
BITMAP
FFFE
2024
2024
27C4
2884
C884
007C
0004
0004
ENDCHAR
STARTCHAR uni0917094D092D094D092F
ENCODING -1
SWIDTH 1102 0
DWIDTH 15 0
BBX 16 9 0 0
BITMAP
F9FF
2424
2424
27C4
2484
C444
007C
0004
0004
ENDCHAR
STARTCHAR uni0917094D0930094D092F
ENCODING -1
SWIDTH 817 0
DWIDTH 11 0
BBX 12 9 0 0
BITMAP
FFF0
2240
2240
2E40
2840
C840
07C0
0140
0240
ENDCHAR
STARTCHAR uni091A094D091B094D0935
ENCODING -1
SWIDTH 913 0
DWIDTH 13 0
BBX 13 11 0 -2
BITMAP
FFF8
0210
0260
F110
4210
4210
4210
3FE0
0210
0220
01E0
ENDCHAR
STARTCHAR uni091C094D091C094D091E
ENCODING -1
SWIDTH 945 0
DWIDTH 13 0
BBX 13 10 0 -1
BITMAP
FFF8
0010
7FF0
1410
13D0
1050
1450
E7D0
0410
0400
ENDCHAR
STARTCHAR uni091C094D091C094D092F
ENCODING -1
SWIDTH 1252 0
DWIDTH 18 0
BBX 18 9 0 0
BITMAP
FFFFC0
000900
7BE900
109900
10A100
109100
109F00
E70100
000100
ENDCHAR
STARTCHAR uni091C094D091C094D0935
ENCODING -1
SWIDTH 1243 0
DWIDTH 17 0
BBX 17 9 0 0
BITMAP
FFFF80
001A00
7BE200
10A200
10A200
109200
109E00
E70200
000200
ENDCHAR
STARTCHAR uni0924094D0915094D092F
ENCODING -1
SWIDTH 1346 0
DWIDTH 19 0
BBX 19 9 0 0
BITMAP
FFFFE0
068240
38FC40
488840
488840
448840
4787C0
408040
308040
ENDCHAR
STARTCHAR uni0924094D0915094D0930
ENCODING -1
SWIDTH 995 0
DWIDTH 14 0
BBX 14 9 0 0
BITMAP
FFFC
06F0
3888
4888
4888
4488
47B0
4280
3680
ENDCHAR
STARTCHAR uni0924094D0915094D0935
ENCODING -1
SWIDTH 1282 0
DWIDTH 18 0
BBX 18 9 0 0
BITMAP
FFFFC0
06F680
388880
488880
488880
448880
478780
408080
308080
ENDCHAR
STARTCHAR uni0924094D0915094D0937
ENCODING -1
SWIDTH 943 0
DWIDTH 13 0
BBX 13 9 0 0
BITMAP
FB98
0250
3BF0
4410
4450
4450
4790
4050
2050
ENDCHAR
STARTCHAR uni0924094D0916094D0930
ENCODING -1
SWIDTH 1008 0
DWIDTH 14 0
BBX 14 9 0 0
BITMAP
FFFC
0108
3928
4548
4648
4448
4278
4128
2148
ENDCHAR
STARTCHAR uni0924094D0924094D092F
ENCODING -1
SWIDTH 888 0
DWIDTH 12 0
BBX 13 9 0 0
BITMAP
FFF8
0120
FD20
4720
4420
4420
43E0
2020
1020
ENDCHAR
STARTCHAR uni0924094D0924094D0935
ENCODING -1
SWIDTH 788 0
DWIDTH 11 0
BBX 11 9 0 0
BITMAP
FFE0
0340
FC40
4440
4440
4440
43C0
2040
1040
ENDCHAR
STARTCHAR uni0924094D0928094D092F
ENCODING -1
SWIDTH 1098 0
DWIDTH 15 0
BBX 16 9 0 0
BITMAP
FFFF
0024
3824
47E4
4484
4084
407C
4004
2004
ENDCHAR
STARTCHAR uni0924094D092A094D0930
ENCODING -1
SWIDTH 763 0
DWIDTH 11 0
BBX 11 9 0 0
BITMAP
FFE0
0440
3840
4440
4440
47C0
4140
4240
3440
ENDCHAR
STARTCHAR uni0924094D092A094D0932
ENCODING -1
SWIDTH 1219 0
DWIDTH 17 0
BBX 17 9 0 0
BITMAP
FFFF80
040100
387F00
444900
448900
438100
408100
406100
300100
ENDCHAR
STARTCHAR uni0924094D092E094D092F
ENCODING -1
SWIDTH 1096 0
DWIDTH 15 0
BBX 16 9 0 0
BITMAP
FFFF
0424
3824
47C4
4484
4484
407C
4004
3004
ENDCHAR
STARTCHAR uni0924094D0930094D092F
ENCODING -1
SWIDTH 848 0
DWIDTH 12 0
BBX 12 9 0 0
BITMAP
FFF0
0120
3920
4620
4420
0C20
13E0
2020
4020
ENDCHAR
STARTCHAR uni0924094D0938094D092F
ENCODING -1
SWIDTH 1234 0
DWIDTH 17 0
BBX 17 9 0 0
BITMAP
FFFF80
010900
390900
453900
47E100
442100
421F00
410100
210100
ENDCHAR
STARTCHAR uni0924094D0938094D0935
ENCODING -1
SWIDTH 1155 0
DWIDTH 16 0
BBX 16 9 0 0
BITMAP
FFFF
011A
3922
4522
47E2
4422
421E
4102
2102
ENDCHAR
STARTCHAR uni0926094D0917094D0930
ENCODING -1
SWIDTH 493 0
DWIDTH 7 0
BBX 7 12 0 -3
BITMAP
FE
04
3C
40
40
44
44
3C
24
24
6C
34
ENDCHAR
STARTCHAR uni0926094D092C094D0930
ENCODING -1
SWIDTH 483 0
DWIDTH 7 0
BBX 7 13 0 -4
BITMAP
FE
04
04
3C
40
40
44
44
3C
74
4C
38
10
ENDCHAR
STARTCHAR uni0926094D092F094D092D
ENCODING -1
SWIDTH 607 0
DWIDTH 9 0
BBX 9 11 0 -2
BITMAP
FF80
3A00
4200
4200
3200
4200
3E00
0A00
EA00
1200
0A00
ENDCHAR
STARTCHAR uni0926094D092F094D0930
ENCODING -1
SWIDTH 595 0
DWIDTH 8 0
BBX 9 9 0 0
BITMAP
FF80
3200
4200
4200
3200
4200
4200
7E00
1A00
ENDCHAR
STARTCHAR uni0927094D0928094D092F
ENCODING -1
SWIDTH 1138 0
DWIDTH 16 0
BBX 16 9 0 0
BITMAP
F7FF
4012
7012
43E2
4442
4442
3C3E
0002
0002
ENDCHAR
STARTCHAR uni0928094D0915094D0938
ENCODING -1
SWIDTH 1384 0
DWIDTH 19 0
BBX 20 9 0 0
BITMAP
FFFFF0
06F240
089240
788A40
888FC0
488840
078440
008440
008240
ENDCHAR
STARTCHAR uni0928094D0924094D092F
ENCODING -1
SWIDTH 1073 0
DWIDTH 15 0
BBX 15 9 0 0
BITMAP
FFFE
0024
0024
7FC4
8884
4884
087C
0C04
0204
ENDCHAR
STARTCHAR uni0928094D0924094D0930
ENCODING -1
SWIDTH 732 0
DWIDTH 10 0
BBX 10 9 0 0
BITMAP
FFC0
0080
0780
7880
8880
4080
0180
0680
0880
ENDCHAR
STARTCHAR uni0928094D0924094D0938
ENCODING -1
SWIDTH 1134 0
DWIDTH 16 0
BBX 16 9 0 0
BITMAP
FFFF
0022
0722
78A2
88FE
8842
0842
0C22
0222
ENDCHAR
STARTCHAR uni0928094D0925094D092F
ENCODING -1
SWIDTH 1168 0
DWIDTH 16 0
BBX 17 9 0 0
BITMAP
F77F80
091200
011200
7E7200
884200
484200
07BE00
000200
000200
ENDCHAR
STARTCHAR uni0928094D0925094D0935
ENCODING -1
SWIDTH 1089 0
DWIDTH 15 0
BBX 15 9 0 0
BITMAP
F77E
0934
0144
7E44
8844
4844
07BC
0004
0004
ENDCHAR
STARTCHAR uni0928094D0926094D0930
ENCODING -1
SWIDTH 734 0
DWIDTH 10 0
BBX 10 9 0 0
BITMAP
FFC0
0080
0780
7800
8880
0880
0780
0180
0280
ENDCHAR
STARTCHAR uni0928094D0926094D0935
ENCODING -1
SWIDTH 732 0
DWIDTH 10 0
BBX 10 11 0 -2
BITMAP
FFC0
0080
0780
0800
7800
8800
0880
0780
0880
0880
0780
ENDCHAR
STARTCHAR uni0928094D0927094D092F
ENCODING -1
SWIDTH 1097 0
DWIDTH 15 0
BBX 16 9 0 0
BITMAP
FCFF
0824
0824
7EE4
8884
0884
08FC
0784
0004
ENDCHAR
STARTCHAR uni0928094D0927094D0930
ENCODING -1
SWIDTH 783 0
DWIDTH 11 0
BBX 11 9 0 0
BITMAP
FCE0
0840
0840
7E40
8840
0840
07C0
0140
0240
ENDCHAR
STARTCHAR uni0928094D0927094D0935
ENCODING -1
SWIDTH 1036 0
DWIDTH 15 0
BBX 15 9 0 0
BITMAP
FCFE
0878
0848
7E88
8888
0848
08F8
0788
0008
ENDCHAR
STARTCHAR uni0928094D0928094D092F
ENCODING -1
SWIDTH 1071 0
DWIDTH 15 0
BBX 15 9 0 0
BITMAP
FFFE
0024
0024
7FC4
8884
0084
007C
0004
0004
ENDCHAR
STARTCHAR uni0928094D092A094D0930
ENCODING -1
SWIDTH 737 0
DWIDTH 10 0
BBX 11 9 0 0
BITMAP
FFE0
0880
0880
7880
8880
4780
0280
0480
0880
ENDCHAR
STARTCHAR uni0928094D092B094D0930
ENCODING -1
SWIDTH 975 0
DWIDTH 14 0
BBX 14 9 0 0
BITMAP
FFFC
08F0
0888
7888
8888
8788
02B0
0480
0880
ENDCHAR
STARTCHAR uni0928094D092D094D092F
ENCODING -1
SWIDTH 1071 0
DWIDTH 15 0
BBX 15 9 0 0
BITMAP
F9FE
0824
0824
7FC4
8884
0884
007C
0004
0004
ENDCHAR
STARTCHAR uni0928094D092D094D0935
ENCODING -1
SWIDTH 995 0
DWIDTH 14 0
BBX 14 9 0 0
BITMAP
F9FC
0868
0888
7F88
8888
0888
0078
0008
0008
ENDCHAR
STARTCHAR uni0928094D092E094D092F
ENCODING -1
SWIDTH 1071 0
DWIDTH 15 0
BBX 15 9 0 0
BITMAP
FFFE
0824
0824
7FC4
8884
0884
007C
0004
0004
ENDCHAR
STARTCHAR uni0928094D0938094D091F
ENCODING -1
SWIDTH 1113 0
DWIDTH 16 0
BBX 16 9 0 0
BITMAP
FFFF
0204
021C
7A20
8FC0
4422
0422
023C
0100
ENDCHAR
STARTCHAR uni0928094D0938094D092E094D092F
ENCODING -1
SWIDTH 1453 0
DWIDTH 20 0
BBX 21 9 0 0
BITMAP
FFFFF8
022120
022120
7A2720
8FFC20
442420
0403E0
020020
020020
ENDCHAR
STARTCHAR uni0928094D0938094D092F
ENCODING -1
SWIDTH 1194 0
DWIDTH 17 0
BBX 17 9 0 0
BITMAP
FFFF80
020A00
020A00
7A3200
8FC200
442200
043E00
020200
020200
ENDCHAR
STARTCHAR uni092A094D0924094D092F
ENCODING -1
SWIDTH 1119 0
DWIDTH 16 0
BBX 16 9 0 0
BITMAP
FFFF
4012
4012
47E2
4442
3C44
043A
0402
0302
ENDCHAR
STARTCHAR uni092C094D091C094D092F
ENCODING -1
SWIDTH 1235 0
DWIDTH 17 0
BBX 17 9 0 0
BITMAP
FFFF80
000900
33E900
40B900
60A100
50A100
489F00
3F0100
000100
ENDCHAR
STARTCHAR uni092C094D0927094D0935
ENCODING -1
SWIDTH 1097 0
DWIDTH 15 0
BBX 16 9 0 0
BITMAP
FE7F
3434
4444
6344
5444
4C44
4C7C
3384
0004
ENDCHAR
STARTCHAR uni092C094D092D094D0930
ENCODING -1
SWIDTH 764 0
DWIDTH 11 0
BBX 11 9 0 0
BITMAP
F9E0
3440
4440
6780
5480
4D40
3940
0240
0440
ENDCHAR
STARTCHAR uni092C094D0932094D092F
ENCODING -1
SWIDTH 480 0
DWIDTH 7 0
BBX 19 9 0 0
BITMAP
FFFFE0
300480
437480
649C80
549080
4C1080
3C0F80
030080
000080
ENDCHAR
STARTCHAR uni092D094D0930094D092F
ENCODING -1
SWIDTH 830 0
DWIDTH 12 0
BBX 12 9 0 0
BITMAP
CFF0
4140
4240
7C40
4840
4C40
13C0
2040
4040
ENDCHAR
STARTCHAR uni092E094D092A094D0930
ENCODING -1
SWIDTH 765 0
DWIDTH 11 0
BBX 11 9 0 0
BITMAP
FFE0
4440
4440
7840
4440
43C0
0140
0240
0440
ENDCHAR
STARTCHAR uni092E094D092C094D092F
ENCODING -1
SWIDTH 1124 0
DWIDTH 16 0
BBX 16 9 0 0
BITMAP
FFFF
4712
4412
7A62
4542
44C6
07BA
0002
0002
ENDCHAR
STARTCHAR uni092E094D092C094D0930
ENCODING -1
SWIDTH 768 0
DWIDTH 11 0
BBX 11 9 0 0
BITMAP
FFE0
4740
4440
7A40
4540
4480
0740
0140
0240
ENDCHAR
STARTCHAR uni092E094D092D094D092F
ENCODING -1
SWIDTH 1101 0
DWIDTH 15 0
BBX 16 9 0 0
BITMAP
F9FF
4424
4424
7FC4
4484
4444
007C
0004
0004
ENDCHAR
STARTCHAR uni092E094D092D094D0930
ENCODING -1
SWIDTH 759 0
DWIDTH 11 0
BBX 11 9 0 0
BITMAP
F9E0
4440
4440
7F80
4480
4540
0140
0240
0440
ENDCHAR
STARTCHAR uni092E094D092D094D0935
ENCODING -1
SWIDTH 1028 0
DWIDTH 14 0
BBX 15 9 0 0
BITMAP
F9FE
4468
4488
7F88
4488
4488
0078
0008
0008
ENDCHAR
STARTCHAR uni0932094D0915094D092F
ENCODING -1
SWIDTH 1534 0
DWIDTH 21 0
BBX 22 9 0 0
BITMAP
FFFFFC
00D090
371F90
491210
491210
411110
40F1F0
301010
001010
ENDCHAR
STARTCHAR uni0932094D0925094D092F
ENCODING -1
SWIDTH 1397 0
DWIDTH 20 0
BBX 20 9 0 0
BITMAP
FEEFF0
00A140
372240
49EC40
490840
410440
40FBC0
300040
000040
ENDCHAR
STARTCHAR uni0932094D0926094D0930
ENCODING -1
SWIDTH 933 0
DWIDTH 13 0
BBX 13 9 0 0
BITMAP
FFF8
0010
36F0
4900
4910
4110
40F0
3050
0050
ENDCHAR
STARTCHAR uni0932094D0932094D092F
ENCODING -1
SWIDTH 1476 0
DWIDTH 21 0
BBX 21 9 0 0
BITMAP
FFFFF8
000090
36DC90
492310
492210
410220
4101D0
30C010
000010
ENDCHAR
STARTCHAR uni0932094D0935094D0921
ENCODING -1
SWIDTH 1247 0
DWIDTH 17 0
BBX 18 9 0 0
BITMAP
FFFFC0
00C100
370F00
490800
490F00
411080
411080
30F080
000F00
ENDCHAR
STARTCHAR uni0937094D0915094D0930
ENCODING -1
SWIDTH 1042 0
DWIDTH 15 0
BBX 15 9 0 0
BITMAP
FFFE
6378
5444
4C44
4444
3C44
03D8
0140
0240
ENDCHAR
STARTCHAR uni0937094D091F094D092F
ENCODING -1
SWIDTH 997 0
DWIDTH 14 0
BBX 14 9 0 0
BITMAP
FFFC
77C8
4C48
3C48
41C8
4108
44F8
4408
3808
ENDCHAR
STARTCHAR uni0937094D091F094D0930
ENCODING -1
SWIDTH 493 0
DWIDTH 7 0
BBX 7 11 0 -2
BITMAP
FE
74
4C
3C
40
40
44
44
38
28
44
ENDCHAR
STARTCHAR uni0937094D091F094D0935
ENCODING -1
SWIDTH 493 0
DWIDTH 7 0
BBX 7 11 0 -2
BITMAP
FE
64
5C
3C
40
44
44
3C
44
44
38
ENDCHAR
STARTCHAR uni0937094D0920094D092F
ENCODING -1
SWIDTH 1006 0
DWIDTH 14 0
BBX 14 9 0 0
BITMAP
FFFC
7FC8
7C48
3848
44C8
4488
44F8
4408
3808
ENDCHAR
STARTCHAR uni0937094D0920094D0930
ENCODING -1
SWIDTH 512 0
DWIDTH 7 0
BBX 7 10 0 -1
BITMAP
FE
7C
7C
7C
44
44
44
44
38
6C
ENDCHAR
STARTCHAR uni0937094D0923094D092F
ENCODING -1
SWIDTH 1273 0
DWIDTH 18 0
BBX 18 9 0 0
BITMAP
FFFFC0
648480
548480
4C9880
449080
3B9080
000F80
000080
000080
ENDCHAR
STARTCHAR uni0937094D092A094D0930
ENCODING -1
SWIDTH 798 0
DWIDTH 11 0
BBX 11 9 0 0
BITMAP
FFE0
6440
5440
4C40
4440
3BC0
0140
0240
0440
ENDCHAR
STARTCHAR uni0937094D092E094D092F
ENCODING -1
SWIDTH 1121 0
DWIDTH 16 0
BBX 16 9 0 0
BITMAP
FFFF
6412
5432
4FC2
4442
3C44
003A
0002
0002
ENDCHAR
STARTCHAR uni0938094D0915094D0930
ENCODING -1
SWIDTH 1084 0
DWIDTH 15 0
BBX 15 9 0 0
BITMAP
FFFE
21BC
2224
2224
FE24
4224
43FC
20A0
1120
ENDCHAR
STARTCHAR uni0938094D0915094D0935
ENCODING -1
SWIDTH 1369 0
DWIDTH 19 0
BBX 19 9 0 0
BITMAP
FFFFE0
21BF40
222440
222440
FE2440
422440
43E3C0
202040
102040
ENDCHAR
STARTCHAR uni0938094D0924094D092F
ENCODING -1
SWIDTH 1185 0
DWIDTH 17 0
BBX 17 9 0 0
BITMAP
FFFF80
200A00
200A00
21F200
FE4200
422200
423E00
220200
110200
ENDCHAR
STARTCHAR uni0938094D0924094D0930
ENCODING -1
SWIDTH 818 0
DWIDTH 11 0
BBX 12 9 0 0
BITMAP
FFF0
2040
23C0
2440
FC40
4040
40C0
2340
1440
ENDCHAR
STARTCHAR uni0938094D0924094D0935
ENCODING -1
SWIDTH 1126 0
DWIDTH 16 0
BBX 16 9 0 0
BITMAP
FFFF
201A
21E2
2222
FE22
4222
421E
2202
1102
ENDCHAR
STARTCHAR uni0938094D0925094D092F
ENCODING -1
SWIDTH 1303 0
DWIDTH 18 0
BBX 18 9 0 0
BITMAP
F99FC0
224480
204480
239C80
FE1080
421080
41EF80
200080
100080
ENDCHAR
STARTCHAR uni0938094D092A094D0930
ENCODING -1
SWIDTH 850 0
DWIDTH 12 0
BBX 12 9 0 0
BITMAP
FFF0
2220
2220
FE20
4220
41E0
20A0
2120
1220
ENDCHAR
STARTCHAR uni0938094D092E094D092F
ENCODING -1
SWIDTH 1189 0
DWIDTH 17 0
BBX 17 9 0 0
BITMAP
FFFF80
220900
220900
223100
FFC100
422200
403D00
200100
100100
ENDCHAR
STARTCHAR uni093F.a01
ENCODING -1
SWIDTH 231 0
DWIDTH 3 0
BBX 7 13 0 0
BITMAP
3C
42
42
40
E0
40
40
40
40
40
40
40
40
ENDCHAR
STARTCHAR uni093F.a04
ENCODING -1
SWIDTH 231 0
DWIDTH 3 0
BBX 9 13 0 0
BITMAP
3F00
4080
4080
4000
E000
4000
4000
4000
4000
4000
4000
4000
4000
ENDCHAR
STARTCHAR uni093F.a05
ENCODING -1
SWIDTH 231 0
DWIDTH 3 0
BBX 9 13 0 0
BITMAP
3F80
4080
4080
4000
E000
4000
4000
4000
4000
4000
4000
4000
4000
ENDCHAR
STARTCHAR uni093F.a06
ENCODING -1
SWIDTH 231 0
DWIDTH 3 0
BBX 10 13 0 0
BITMAP
3FC0
4040
4040
4000
E000
4000
4000
4000
4000
4000
4000
4000
4000
ENDCHAR
STARTCHAR uni093F.a07
ENCODING -1
SWIDTH 231 0
DWIDTH 3 0
BBX 11 13 0 0
BITMAP
3FC0
4020
4020
4000
E000
4000
4000
4000
4000
4000
4000
4000
4000
ENDCHAR
STARTCHAR uni093F.a08
ENCODING -1
SWIDTH 231 0
DWIDTH 3 0
BBX 11 13 0 0
BITMAP
3FE0
4020
4020
4000
E000
4000
4000
4000
4000
4000
4000
4000
4000
ENDCHAR
STARTCHAR uni093F.a09
ENCODING -1
SWIDTH 231 0
DWIDTH 3 0
BBX 12 13 0 0
BITMAP
3FF0
4010
4010
4000
E000
4000
4000
4000
4000
4000
4000
4000
4000
ENDCHAR
STARTCHAR uni093F.a10
ENCODING -1
SWIDTH 231 0
DWIDTH 3 0
BBX 13 13 0 0
BITMAP
3FF0
4008
4008
4000
E000
4000
4000
4000
4000
4000
4000
4000
4000
ENDCHAR
STARTCHAR uni093F.a11
ENCODING -1
SWIDTH 231 0
DWIDTH 3 0
BBX 13 13 0 0
BITMAP
3FF8
4008
4008
4000
E000
4000
4000
4000
4000
4000
4000
4000
4000
ENDCHAR
STARTCHAR uni093F.a12
ENCODING -1
SWIDTH 231 0
DWIDTH 3 0
BBX 14 13 0 0
BITMAP
3FFC
4004
4004
4000
E000
4000
4000
4000
4000
4000
4000
4000
4000
ENDCHAR
STARTCHAR uni093F.a13
ENCODING -1
SWIDTH 231 0
DWIDTH 3 0
BBX 15 13 0 0
BITMAP
3FFC
4002
4002
4000
E000
4000
4000
4000
4000
4000
4000
4000
4000
ENDCHAR
STARTCHAR uni093F.a14
ENCODING -1
SWIDTH 231 0
DWIDTH 3 0
BBX 15 13 0 0
BITMAP
3FFE
4002
4002
4000
E000
4000
4000
4000
4000
4000
4000
4000
4000
ENDCHAR
STARTCHAR uni093F.a15
ENCODING -1
SWIDTH 231 0
DWIDTH 3 0
BBX 16 13 0 0
BITMAP
3FFF
4001
4001
4000
E000
4000
4000
4000
4000
4000
4000
4000
4000
ENDCHAR
STARTCHAR uni093F.a16
ENCODING -1
SWIDTH 231 0
DWIDTH 3 0
BBX 17 13 0 0
BITMAP
3FFF00
400080
400080
400000
E00000
400000
400000
400000
400000
400000
400000
400000
400000
ENDCHAR
STARTCHAR uni093F.a17
ENCODING -1
SWIDTH 231 0
DWIDTH 3 0
BBX 17 13 0 0
BITMAP
3FFF80
400080
400080
400000
E00000
400000
400000
400000
400000
400000
400000
400000
400000
ENDCHAR
STARTCHAR uni093F.a18
ENCODING -1
SWIDTH 231 0
DWIDTH 3 0
BBX 18 13 0 0
BITMAP
3FFFC0
400040
400040
400000
E00000
400000
400000
400000
400000
400000
400000
400000
400000
ENDCHAR
STARTCHAR uni093F.a19
ENCODING -1
SWIDTH 231 0
DWIDTH 3 0
BBX 19 13 0 0
BITMAP
3FFFC0
400020
400020
400000
E00000
400000
400000
400000
400000
400000
400000
400000
400000
ENDCHAR
STARTCHAR uni093F.a20
ENCODING -1
SWIDTH 231 0
DWIDTH 3 0
BBX 19 13 0 0
BITMAP
3FFFE0
400020
400020
400000
E00000
400000
400000
400000
400000
400000
400000
400000
400000
ENDCHAR
STARTCHAR uni093F.a21
ENCODING -1
SWIDTH 231 0
DWIDTH 3 0
BBX 20 13 0 0
BITMAP
3FFFE0
400010
400010
400000
E00000
400000
400000
400000
400000
400000
400000
400000
400000
ENDCHAR
STARTCHAR uni093F.a22
ENCODING -1
SWIDTH 231 0
DWIDTH 3 0
BBX 21 13 0 0
BITMAP
3FFFF0
400008
400008
400000
E00000
400000
400000
400000
400000
400000
400000
400000
400000
ENDCHAR
STARTCHAR uni093F.a23
ENCODING -1
SWIDTH 231 0
DWIDTH 3 0
BBX 21 13 0 0
BITMAP
3FFFF8
400008
400008
400000
E00000
400000
400000
400000
400000
400000
400000
400000
400000
ENDCHAR
STARTCHAR uni093F.a24
ENCODING -1
SWIDTH 231 0
DWIDTH 3 0
BBX 22 13 0 0
BITMAP
3FFFF8
400004
400004
400000
E00000
400000
400000
400000
400000
400000
400000
400000
400000
ENDCHAR
STARTCHAR uni093F.a25
ENCODING -1
SWIDTH 231 0
DWIDTH 3 0
BBX 23 13 0 0
BITMAP
3FFFFC
400002
400002
400000
E00000
400000
400000
400000
400000
400000
400000
400000
400000
ENDCHAR
STARTCHAR uni093F.a26
ENCODING -1
SWIDTH 231 0
DWIDTH 3 0
BBX 23 13 0 0
BITMAP
3FFFFE
400002
400002
400000
E00000
400000
400000
400000
400000
400000
400000
400000
400000
ENDCHAR
STARTCHAR uni093F.a32
ENCODING -1
SWIDTH 231 0
DWIDTH 3 0
BBX 28 13 0 0
BITMAP
3FFFFFF0
40000010
40000010
40000000
E0000000
40000000
40000000
40000000
40000000
40000000
40000000
40000000
40000000
ENDCHAR
STARTCHAR uni093E0901
ENCODING -1
SWIDTH 231 0
DWIDTH 3 0
BBX 5 13 -1 0
BITMAP
20
88
70
00
70
20
20
20
20
20
20
20
20
ENDCHAR
STARTCHAR dvNG_GA
ENCODING -1
SWIDTH 562 0
DWIDTH 8 0
BBX 8 12 0 -3
BITMAP
FF
3C
40
41
3C
02
42
7C
24
24
44
04
ENDCHAR
STARTCHAR dvNG_MA
ENCODING -1
SWIDTH 728 0
DWIDTH 10 0
BBX 10 13 0 -4
BITMAP
FFC0
0480
3880
4080
4280
3C80
4480
7C80
0880
0F80
0880
0880
0080
ENDCHAR
STARTCHAR dvNY_CA
ENCODING -1
SWIDTH 963 0
DWIDTH 13 0
BBX 14 9 0 0
BITMAP
FFFC
0010
73D0
1110
1D10
1110
70F0
0010
0010
ENDCHAR
STARTCHAR dvTT_GA
ENCODING -1
SWIDTH 510 0
DWIDTH 7 0
BBX 7 13 0 -4
BITMAP
FE
04
04
3C
40
42
42
3C
24
24
24
44
04
ENDCHAR
STARTCHAR dvTTH_TTHA
ENCODING -1
SWIDTH 511 0
DWIDTH 7 0
BBX 7 13 0 -4
BITMAP
FE
04
38
44
44
44
38
08
7C
44
44
44
38
ENDCHAR
STARTCHAR dvDD_GA
ENCODING -1
SWIDTH 541 0
DWIDTH 8 0
BBX 8 12 0 -3
BITMAP
FF
3C
40
40
3C
02
42
7C
24
24
44
04
ENDCHAR
STARTCHAR dvDDH_DDHA
ENCODING -1
SWIDTH 487 0
DWIDTH 7 0
BBX 7 12 0 -3
BITMAP
FE
04
38
4C
54
44
3C
40
4C
54
44
3C
ENDCHAR
STARTCHAR dvSHA_MatraVocalicR
ENCODING -1
SWIDTH 558 0
DWIDTH 8 0
BBX 8 13 0 -4
BITMAP
73
4A
4A
32
5A
86
02
02
0C
08
08
09
06
ENDCHAR
STARTCHAR dvT_KH_NA
ENCODING -1
SWIDTH 1341 0
DWIDTH 19 0
BBX 19 9 0 0
BITMAP
FFFFE0
010040
397040
454F80
464840
444C40
427040
410040
210040
ENDCHAR
STARTCHAR dvT_S_NA
ENCODING -1
SWIDTH 1169 0
DWIDTH 16 0
BBX 17 9 0 0
BITMAP
FFFF80
010200
390200
451E00
47E200
442200
420200
410200
210200
ENDCHAR
ENDFONT
